<?xml version="1.0" standalone="no"?>
<!DOCTYPE svg PUBLIC "-//W3C//DTD SVG 1.1//EN" "http://www.w3.org/Graphics/SVG/1.1/DTD/svg11.dtd" >
<svg xmlns="http://www.w3.org/2000/svg" xmlns:xlink="http://www.w3.org/1999/xlink" version="1.1">
<metadata></metadata>
<defs>
<font id="caveat_brushregular" horiz-adv-x="778" >
<font-face units-per-em="2048" ascent="1638" descent="-410" />
<missing-glyph horiz-adv-x="434" />
<glyph unicode="&#xfb00;" horiz-adv-x="1263" d="M561 811l41 2q59 0 193 27q4 16 4 37l10 51q0 20 12 73q0 27 8 52q0 20 6.5 54t10.5 75q6 8 7 25.5t7 37.5q-55 12 -125 17q-94 -12 -104 -23q-45 -39 -62 -68q-18 -31 -43 -100q-10 -4 -16 -33q-4 -33 -23 -82q-14 -39 -24 -89t-4 -60q20 0 33 2q14 14 69 2zM975 410 q-6 -51 -4 -62l-6 -43v-37q4 -121 8 -170q10 -41 10 -61q0 -37 -57 -60q-35 -14 -78 -14t-64 33l-14 49l-8 47l-6 17q0 10 -6 28l-5 58q0 49 3 86v14q0 8 5 24.5t1 38.5q12 104 11 131t3 56.5t0 60.5q10 37 14 72q-39 2 -133 -4q-102 -6 -219 -29q-8 -25 -10 -57.5t-6 -82.5 t-4 -75v-70q-6 -47 -4 -61l-7 -43v-37q4 -121 9 -168q10 -41 10 -63q0 -35 -58 -60q-45 -12 -82.5 -12t-58.5 31l-14 49l-8 49l-7 16q0 8 -6 27l-4 57q0 51 2 86v15q0 8 5.5 24.5t0.5 40.5q12 102 11.5 131t3.5 56.5t0 58.5q6 29 8 34t6 38h-70q-49 0 -61 2q-59 0 -76 33 q-12 35 17 77q4 10 34 13q47 0 168 24q4 16 4 29l11 72q0 18 12 73q0 27 8 52q0 18 6 61q16 84 19 125q14 27 16 35q-8 10 6 28l6 13q4 25 58 75l53 31q12 16 98 43q18 10 78 -8q6 -2 36 0t46 -4t23 -6l47 -6q94 -31 135 -58q12 20 32.5 40t32.5 24l37 24q23 25 93.5 39.5 t121.5 -2.5q27 0 43.5 -6t24.5 -6l49 -8q70 -29 80 -44.5t6 -29.5q-25 -74 -111 -61l-88 -5q-68 -25 -96 -84q-35 -51 -47 -123.5t-17 -89t-12 -36.5q-6 -14 -14 -56.5t-2 -52.5q20 0 33 2q14 14 69 2l41 2q113 0 138 -41q14 -20 -1.5 -50t-43.5 -40l-199 -24l-64 -13 q-10 -29 -12 -67.5t-6 -81.5t-4 -66v-69z" />
<glyph unicode="&#xfb01;" horiz-adv-x="1079" d="M840 1217h4q106 -4 135 -36t10 -153q-25 -86 -85 -114.5t-113 22.5q-25 61 -37.5 80.5t-14.5 38.5q1 129 101 162zM408 369q-6 -47 -5 -62l-6 -43v-37q4 -121 9 -170q-6 -63 -27 -81.5t-78 -4.5q-2 2 -10 4q-90 41 -96 78l-5 17q0 8 -6 26l-4 58q0 51 2 86v14 q0 8 5.5 24.5t0.5 40.5q8 106 8.5 133t4.5 55t0 58l8 53q4 23 -16.5 29t-36.5 -2q-129 0 -138 35q-6 53 9 70q4 10 34 12q53 0 166 24q4 12 4 29l11 74q0 18 12 74q0 16 8 53l27 190q6 6 9 25.5t19 48.5q4 27 56 78q4 4 16 6l37 25q14 16 98 45q16 8 84 0q18 -10 33 -9 l113 -18q100 -33 90 -78q-12 -43 -37 -53t-72 -4h-41q-57 4 -92 -25q-12 -10 -32.5 -45t-28.5 -59q-23 -86 -49 -160q-29 -86 -29 -106q-12 -53 -4 -62q18 0 30 2q14 14 70 2l43 2q18 0 70 -10q10 -6 36.5 -9t45.5 -9l41 -5l22 3q43 0 90 -33l21 -13q14 -6 43 -57v-22 l-2 -43q0 -154 -4 -172q-12 -55 -13 -304v-51q0 -37 -18.5 -66.5t-42.5 -37.5q-90 0 -119 26q-14 4 -33 64q-12 12 -14 29.5t-6 29t-4 183.5l8 84v12q4 109 14 184q-2 63 -22.5 78.5t-65.5 11.5l-155 -12l-64 -12q-10 -29 -11 -69t-11 -163v-69z" />
<glyph unicode="&#xfb03;" horiz-adv-x="1636" d="M1348 993q0 4 -16.5 12.5t-21.5 16.5t-5 55q0 154 116 156q102 2 134 -45t-11 -141q0 -25 -26.5 -52.5t-34.5 -44.5q-18 -25 -86 2q-25 10 -25 13q-24 8 -24 28zM561 809l43 2q63 0 191 27q4 16 4 36l10 52q0 20 12 73q0 27 8 52q0 29 5.5 58.5t9.5 70.5q6 8 8 41l6 8 l2 14q-57 12 -125 17l-59 -3q-39 -23 -61.5 -42t-51.5 -70q-29 -39 -33 -51q-41 -125 -44 -142.5t-11 -38.5q-4 -14 -12 -56t-2 -52q18 0 31 2q14 14 69 2zM975 408q-6 -51 -4 -62l-6 -43v-37q4 -121 8 -170q10 -41 10 -61q0 -37 -57 -60q-31 -14 -76 -14t-66 33l-14 49 l-6 47l-6 16q0 10 -6 29l-4 58q0 49 2 86v14q0 8 5 24.5t1 40.5q10 90 10 131t3 62.5t-1 52.5q10 37 14 72q-37 2 -131 -4q-106 -6 -219 -29q-10 -33 -12 -61.5t-6 -78.5t-4 -75v-70q-6 -47 -4 -61l-7 -43v-37q4 -121 9 -168q10 -41 10 -63q0 -35 -48 -53.5t-89 -18.5 t-62 31l-14 49l-12 65q0 8 -7 27l-4 57q0 51 2 86v15q0 8 5.5 24.5t0.5 40.5q8 106 8.5 133t4.5 54.5t0 58.5q6 29 8 34t6 38q-49 0 -67 2h-64q-57 0 -74 33q-12 35 17 77q4 10 32 11q55 2 168 26q4 16 4 31l11 70q0 18 12 73q0 27 8 51q0 25 7.5 64t11.5 80q6 8 8 43 q14 27 16 35q-8 10 6 28l6 13q4 29 56 75l53 31q16 16 98 43q18 10 52 -1t65 -5q27 0 43 -6t23 -6l51 -9q82 -27 133 -55q31 53 63 64l37 24q16 16 99 43q18 10 52 -1t64 -5q27 0 43.5 -6t22.5 -6t17.5 -2t20.5 -3t15 -3q57 -25 84 -76q0 -14 -6 -35q-31 -18 -102 -2l-43 -2 q-39 -23 -50 -31q-68 -68 -96 -145q-2 -6 -6 -13.5t-14 -29.5q-45 -100 -59.5 -169t-8.5 -79q20 0 31 2q14 14 69 2l43 2q121 0 170 -8q59 -16 72 -29q31 -18 57 -30q53 -29 54 -62v-24l-2 -45q0 -152 -4 -170q-12 -55 -13 -304v-51l2 -65q0 -70 -30.5 -70t-34.5 2t-9.5 6 t-13.5 8q-14 0 -23.5 -1t-25.5 7.5t-20 12.5q-14 23 -17 22q-25 4 -31 37l-10 27q-12 12 -14 29.5t-6 29t-4 180.5l8 87v12q6 109 14 184v76l-186 -10l-105 -19q-10 -31 -12 -60.5t-6 -80.5t-4 -74v-69z" />
<glyph unicode="ft" horiz-adv-x="1271" d="M1069 1004q18 0 91 -13.5t111 -29t48 -26.5t20 -32q12 -43 -1 -61.5t-64 -30.5q-94 -8 -162 -8l-61 -12q-2 -27 -2 -84l-2 -27v-16l-13 -103q-10 -20 -10 -147q0 -250 37 -398q-23 -61 -76 -61t-98 35l-27 41q4 -4 8 -11q-4 8 -13 21.5t-13 32.5l-31 57q-6 25 -14 82 q-10 4 -13 66v61q0 45 -4 61q4 4 0 76l4 47q0 8 4 62q-2 2 -2 37l5 90v57q-195 -14 -242 -19.5t-103 -23.5q-20 -4 -28 -4q12 -6 12 -59l-2 -68v-129q0 -49 -7 -56.5t7 -23.5q-2 -6 -3 -32.5t1 -37.5q-4 -14 1 -86.5t9 -97.5q10 -16 8 -63t0 -80q10 -8 15 -39 q-29 -53 -103 -47q-74 10 -99.5 34.5t-51.5 90.5q0 14 -6 63q0 25 2 35q-4 20 -4 27v51l-9 112v86q-4 57 -4 80q4 6 0 37q0 84 -2 101q2 6 2 26v31q2 8 2 19.5t-4 23.5h-92q-45 -4 -55 7t-16.5 34.5t-0.5 40.5q10 39 41 43l50 12q10 0 48 7t44 16v16q0 2 10 64q18 45 18 75 l19 64q0 20 24 69q-4 6 2.5 21.5t6.5 28.5l14 36q14 18 14 27q0 12 10 37q8 8 13 18q68 53 86 66q25 18 108 18l43 2q57 0 86 -11t45 -17q78 -49 78 -131q0 -14 -20 -35q-47 -51 -166 -2q-29 14 -58.5 14t-48.5 -33q-14 -31 -36 -190q-20 -109 -29 -125l104 22 q115 14 115 11q80 23 139 28l47 13l9 45q0 12 10 41l59 221q10 16 62 45q4 6 33.5 3t52.5 -19q35 -10 49 -37l-14 -76l-13 -76l-2 -27q0 -6 -4 -26v-2q-4 -18 2 -55z" />
<glyph unicode="tt" horiz-adv-x="1267" d="M1069 1049q18 0 92 -13.5t111 -29t47 -26.5t20 -34q12 -41 -1 -59.5t-66 -30.5q-90 -8 -160 -8l-61 -12q-2 -29 -2 -84l-2 -27v-16l-13 -103q-10 -20 -10 -146t2 -173q4 -96 23 -160q6 -41 12 -66q-23 -61 -76 -61t-98 35l-27 39q4 -2 8 -8q-23 35 -26 53l-31 57l-14 80 q-10 10 -13 68v59q0 47 -4 63q4 4 0 74l4 49q0 8 4 62q-2 2 -2 37l5 90v47q-49 0 -142 -10q-133 -16 -184 -33v-51l2 -168v-47l6 -86q0 -66 14 -123l9 -66l16 -84l35 -119q2 -35 -16.5 -51t-63.5 -16q-109 0 -143 49q0 12 -13 14q-4 6 -6 13q-4 12 -18.5 40.5t-14.5 51.5 q-8 12 -10 41q-18 20 -31 123v26q-10 10 -15 85t-5 112v67l-2 66v14q-4 39 4 84h-18q-47 0 -62 4q-49 0 -84 27q-35 18 -35 29q-23 55 1 71.5t112 22.5q53 0 102 16q10 55 12.5 62.5t2.5 27.5l18 35q6 0 6 25l29 86q0 10 16 43q16 43 31 57q14 16 68 23q59 0 96 -31 q-2 -2 -4 -10l-21 -170v-15l-2 -18q0 -12 -4 -25v-14l-2 -16q0 -20 -4 -35q63 0 137 18.5t111 20.5l102 24q23 115 27 123l22 82q0 14 14.5 57t18.5 62q10 16 62 43q4 6 33.5 3t52.5 -17q35 -10 49 -37l-27 -150v-2l-2 -26q0 -8 -4 -29v-2q-4 -18 2 -53z" />
<glyph horiz-adv-x="0" />
<glyph unicode="&#xd;" horiz-adv-x="434" />
<glyph unicode=" "  horiz-adv-x="434" />
<glyph unicode="&#x09;" horiz-adv-x="434" />
<glyph unicode="&#xa0;" horiz-adv-x="434" />
<glyph unicode="!" horiz-adv-x="452" d="M70.5 146.5q25.5 23.5 52.5 23.5t47 8t37.5 8t55.5 -9t51.5 -11t22.5 -4t18.5 -14.5t9.5 -30.5q-31 -137 -99 -174l-61 -11q-27 0 -60 29q-66 6 -65 31q0 4 -22.5 30.5t-22.5 43t5 37t30.5 44zM389 1456l-18 -153q-8 -104 -39 -391t-31 -390.5t12 -134.5q-23 -39 -57 -39 q-18 0 -30.5 4t-16.5 4h-8l-8 2q-47 74 -54 131q-35 84 -38 108t-9 32q-6 86 -6 92v86q8 51 8 106v31q0 41 16.5 120t16.5 131t31.5 121.5t43 98.5t15.5 41t10 23q10 16 27 16q31 12 43 12q92 0 92 -51z" />
<glyph unicode="&#x22;" horiz-adv-x="716" d="M408 1214l-7 48q0 33 20.5 61.5t53.5 38.5q53 16 98 16q70 0 70 -55q0 -18 -8 -72l-29 -184q-45 -289 -94 -289q-37 76 -43 123q-47 111 -47 129q0 25 -8 33q-8 57 -8 104zM82 1214l-6 48q0 33 20.5 61.5t53.5 38.5q53 16 100 16q68 0 67 -55q-47 -346 -65 -418 q-33 -127 -66 -127q-37 76 -43 123q-47 111 -47 129q0 25 -8 33q-8 57 -8 104z" />
<glyph unicode="#" horiz-adv-x="1132" d="M354 524q92 12 97.5 15.5t11.5 5.5q18 4 49 22q10 2 26.5 10.5t42 14.5t36 12t40.5 17q4 4 20.5 54t20.5 58l-18 12q-29 0 -119 -16q-12 -6 -141 -27q-43 -98 -43 -114.5t-23 -63.5zM-111 406q0 16 25 24q0 4 29 12q94 20 96 27q8 4 121 35q16 6 23 16t34 70 q14 16 15 30.5t-8 14.5t-87 -19.5t-145.5 -19.5t-75.5 41q-10 8 -10 35.5t10 38t59 16.5l140 35q104 39 126.5 50t27.5 13t18.5 8.5t27.5 12.5q2 10 31 96t37 115q8 16 25 28q47 131 50 134.5t17 37.5q20 61 57 76q31 0 48 -14q14 -8 38.5 -35t23.5 -42t-36 -62 q-6 -18 -18.5 -56.5t-18.5 -50.5q-8 -20 -28 -94q-45 -66 -45 -94q8 -4 33.5 0t29.5 10q10 0 31 14q8 0 19.5 7.5t13.5 11.5q35 6 36 8q94 12 111 55q0 33 16.5 66t15.5 39t11 51q20 55 25.5 77.5t15.5 28.5q12 20 12 33q8 20 27 33q49 25 84 0q16 -8 39 -29q10 0 43 -26 l22 -47q-4 -4 -9 -18.5t-9 -22t-23 -52.5q-41 -109 -32 -110l104 18l31 -12q84 -35 96 -131q10 -29 -10 -39q-12 14 -99 -4l-212 -35q-45 -172 -44 -174q88 0 148 4q43 8 96 -27q27 -27 33 -76t-8 -77q-47 0 -135 -21q-152 -16 -172.5 -16t-21.5 -3t-62 -208 q-37 -170 -41 -201.5t-10.5 -46t-28 -14.5t-49 5t-46 11t-18.5 10.5t-29 14.5q0 2 -16 51q-2 8 2 47q-4 63 16 115q16 4 17 41q8 47 16 64.5t6 38t-14 20.5t-56 -12.5t-79 -20.5q-80 -18 -90 -19q-27 -4 -34 -11t-13 -37.5t-21 -75.5q0 -8 -12 -54q-12 -72 -37 -123l-4 -28 q0 -4 -5 -14.5t-11.5 -21.5t-21.5 -11t-34.5 7t-34.5 3q-2 2 -8 4q-18 10 -35 27q-6 0 -22 20q-29 31 -2 100q18 57 16 68q4 10 27 92q4 4 -57.5 -6t-63.5 -10q-29 0 -57 51q-18 37 -19.5 49t8.5 29z" />
<glyph unicode="$" horiz-adv-x="884" d="M557 254q2 16 2 43t-4 76q0 16 -49 76l-12 12q-8 -53 -11 -60q-4 -8 -16 -204q41 0 63 16zM453 1128h-7q-31 -12 -65 -51q-18 -33 -19 -49l-18 -80q-6 -76 6 -106q0 -16 33 -49q4 -10 33 -37q2 16 16 90q-4 -8 -4 8q4 84 18 121q2 68 -1 68.5t2.5 39.5t5.5 45zM395 496 l-39 18q-6 0 -41.5 28.5t-42 36t-10.5 11.5l-26 14q-23 10 -37 37l-47 64q-4 6 -15 45q-8 8 -16 32.5t-6 40.5q-8 14 -5 63.5t3 70t2 34.5q14 16 16 74q2 2 4 10q4 6 33 68q8 8 20.5 17t28.5 30q4 0 24.5 23.5t45.5 37.5q16 0 37 4q92 16 157 25l17 68q0 49 41 73l14 9 q51 8 56 -35t-17 -129l57 -11q51 -29 66 -49q35 -27 65 -82q39 -119 29 -163q-4 -39 4 -48q8 -18 -18.5 -33.5t-66.5 -24.5t-50 1q-37 0 -47 45l-19 25q-10 20 -10 35.5t-6 82.5q-12 8 -35 64l-24 -195q2 -2 -6.5 -43t-6.5 -68.5t-14 -99.5q20 -16 94 -54t88 -60l47 -51 l27 -58q4 -8 11 -58t3 -73q10 -10 -2 -53q2 -6 -2 -41q-14 -43 -22 -55q0 -10 -31 -41q-23 -37 -45.5 -58.5t-73.5 -52.5q-10 -20 -82 -29q-29 -12 -49 5q-12 -4 -33 0l-14 -84q-37 -113 -49 -117q-29 -16 -35 11.5t-3 52t3 28.5l2 12v11q0 6 1 13t2 17t7 35t6 41l-24 8 l-49 4l-31 13q-8 10 -80 53q-16 0 -31 35l-18 24q-25 29 -25 58q-10 25 0 51q35 68 125 35q2 -2 15 -9q20 -14 67 -55t51.5 -42t16.5 -7q0 8 2 12q4 0 10 10q4 12 -2 39q0 4 3 89t3 102.5t4 23.5q-2 3 -2 9z" />
<glyph unicode="%" horiz-adv-x="1644" d="M1159 1249h8q4 -2 14.5 -3t16.5 -3q63 -47 16 -115q-90 -113 -117.5 -166t-60.5 -106q-16 -27 -280 -461l-64 -125q-76 -147 -110 -258q-25 -39 -74 -6q-2 2 -4 3t-4 5t-5 8.5t-12 10.5q-23 25 -32 94q0 37 8 55q23 49 63 156q18 25 47 82q10 29 41 74l129 235 q41 66 72 121q12 12 41 57l41 82q86 109 104.5 139.5t38.5 47.5q2 6 16.5 23.5t45 35.5t61.5 14zM1341 199q18 68 29 77q2 10 2 19v18q6 43 -6 119q-2 41 -10 63.5t-39 63.5q-25 18 -25 25q-14 12 -35 -19q-6 -16 -28.5 -57t-24.5 -45q4 -8 -8 -21q-2 -4 -1 -12t0 -18.5 t-7 -104.5q0 -49 8 -69q0 -37 6 -66q-2 -39 6 -51q18 -39 40 -39t48.5 30.5t40.5 75.5q-4 11 4 11zM1047 502l12 45v7t8 15q10 10 14 25q-4 35 47 80q6 4 9.5 9t4.5 9t9 13q29 20 72 10q39 -8 43 -5t34 11q74 4 146 -86q47 -57 65 -123q29 -70 23 -153t-18 -99 q-2 -23 -32 -100.5t-38 -89.5q-14 -25 -16.5 -33t-20.5 -27q-29 -29 -58.5 -39t-64.5 -10t-41 -2q-14 2 -20 2h-15q-23 0 -54.5 16.5t-53.5 49.5l-29 55q-14 8 -18 51q-16 47 -29 162q-2 35 8 178q0 14 10 14q5 5 3 15zM440 854q18 68 29 78q2 10 2 18v19q6 43 -6 118 q-2 41 -10.5 64t-38.5 63q-25 18 -25 25q-14 12 -35 -18q-6 -16 -28.5 -57.5t-24.5 -45.5q4 -8 -8 -20q-2 -4 -1 -12.5t0 -18.5t-7 -104q0 -49 8 -70q0 -37 6 -66q-2 -39 6 -51q18 -39 40 -39t48.5 31t40.5 76q-4 10 4 10zM145 1157l13 45v7t8 16q10 10 14 24q-4 35 47 80 q6 4 9.5 9t4.5 9.5t9 12.5q29 20 72 10q39 -8 43 -5t34 11q74 4 146 -86q47 -57 65 -123q29 -70 23 -152.5t-19 -99.5q-2 -23 -31.5 -100.5t-37.5 -89.5q-12 -25 -15.5 -33t-21.5 -26q-29 -29 -58.5 -39.5t-64.5 -10.5t-41 -2q-14 2 -20 2h-15q-23 0 -54.5 16.5t-53.5 49.5 l-29 55q-14 8 -18 51q-16 47 -29 162q-2 35 8 178q0 14 10 15q4 4 2 14z" />
<glyph unicode="&#x26;" horiz-adv-x="1003" d="M428 1182q-33 -4 -41 -49q-14 -92 -2 -142q16 -98 45 -121q25 20 35 56q27 55 33 94q10 61 -33 129q-8 25 -37 33zM227 369v-33q2 -90 18.5 -120t69.5 -54q129 0 170 82q6 12 11.5 21t5.5 14.5t-10.5 16.5t-20.5 26q-27 33 -31 52t-30 46q0 2 -19.5 30.5t-23.5 53.5 l-33 78q0 -16 -72 -88q-35 -78 -35 -125zM682 1008l-23 -88q-2 0 -4 -7q-2 -2 -10 -16q-16 -29 -24 -47q0 -8 -16.5 -26.5t-33.5 -26.5q-12 -12 -28 -27q-31 -25 -29 -33q-4 -27 35 -91t41 -72.5t16.5 -27t20.5 -34.5t26 -29q12 51 21.5 71.5t17.5 63.5q16 37 17 72 q25 53 41 62q10 0 37.5 5t105.5 -16q0 -2 6 -4q23 -12 39 -28q8 -14 -1 -98.5t-42 -176.5q-63 -141 -92 -153q-16 -4 58.5 -77t91 -85.5t16.5 -16.5q76 -55 80 -79q10 -39 -15 -72q-4 -4 -15 -6t-27.5 -3t-34 -9.5t-72.5 -2.5q-4 -10 -40 -5t-53.5 10.5t-27.5 8.5t-24.5 16 t-18.5 17q-18 18 -42 49t-29 34t-36 46q-37 -31 -116 -90q-8 -2 -25.5 -12t-26.5 -14q-23 -27 -61.5 -24t-68 -4t-47 -3t-55.5 17.5t-52 15.5q-45 23 -99 80q0 4 -18 34q-20 10 -24.5 31t-6.5 35t-3 26.5t-9 24.5q2 6 -1 33t-7 35q0 111 24 127l13 78q6 14 12 49 q-8 23 33 63q31 53 74 92q0 12 26 19q8 4 27 22q4 8 28 25q12 23 -3 56.5t-11 51.5q0 31 -9 46.5t-11 26.5t-3 29.5t-6 39.5q2 10 -2 39q-14 68 45 147q6 29 16.5 34t21 13t19.5 16.5t51 31t112 18.5q123 -6 129 -31q16 -4 38 -31q18 -8 42 -47t24 -51t10 -51q4 -45 -12 -96 z" />
<glyph unicode="'" horiz-adv-x="389" d="M82 1214l-6 48q0 33 20.5 61.5t53.5 38.5q53 16 98 16q70 0 69 -55q0 -18 -10 -72l-26 -184q-45 -289 -95 -289q-37 76 -43 123q-47 111 -47 129q0 25 -8 33q-8 57 -8 104z" />
<glyph unicode="(" horiz-adv-x="579" d="M135 702l12 195q0 125 13 145v39q0 25 8 37q14 27 45 127q10 0 57 133q0 4 18.5 22.5t52.5 39t62 22.5l48 11h8q8 0 29.5 1t28.5 0t23.5 -3.5t28.5 -8.5q25 -14 64 -45q0 -16 -72 -47q-4 0 -24 -29l-37 -79l-49 -140q-33 -90 -58.5 -231t-30.5 -160q-12 -55 -12 -163.5 t4 -161.5q16 -170 72 -287q14 -29 20.5 -46.5t8.5 -21.5t6 -14q18 -41 100 -148l17 -30q23 -20 75 -97q6 -10 15 -61q-33 4 -43.5 8t-44.5 27l-2 -2q2 4 -9.5 10t-27.5 6l-86 64q-31 31 -52 47l-43 49l-34 57l-15 31q-6 6 -10 39q-10 6 -53 67l-27 54l-10 39q-29 72 -35 94 l-22 90q0 4 -6.5 34.5t-6.5 92.5l-8 53q0 29 8 55q-8 8 -6 43v43z" />
<glyph unicode=")" horiz-adv-x="616" d="M289 516q-8 6 -8 72.5t-8.5 172t-11.5 126t-7 39.5q-10 43 -31 229l-14 49q-6 29 -35 76q0 12 -23.5 40t-23.5 48q0 8 45 37h16h30t46.5 -5t53 -44t67.5 -119l39 -88q-2 0 2 -4q14 -20 29 -82l12 -41l33 -172q4 -20 4 -53v-39q12 -25 12 -140q0 -131 -24 -223l-15 -59 q-6 -37 -59 -153.5t-123 -198.5l-84 -84q-4 -14 -45 -41l-100 -41l-60 -11q-63 0 -74 31l84 49q0 4 45 56v6q10 -6 54 65l24 43q0 6 33 49h4q2 2 2 12.5t33 67.5q2 0 16.5 47.5t16.5 61.5t4 16v-2q20 31 20 54.5t-6 48.5q0 47 27 104z" />
<glyph unicode="*" horiz-adv-x="749" d="M303 1253l-2 17q0 4 -6 41q-25 37 -8 63q18 12 47 8q35 0 119 -59l-2 -59q4 -33 6 -50.5t6 -34t8 -21.5t10 -1q4 8 58.5 29.5t99.5 32.5q27 14 39 6q8 -2 33.5 -45t25.5 -54v-45q-10 2 -147 -45l-117 -69q10 -29 19.5 -90.5t12.5 -86t-7.5 -32.5t-73.5 -8l-27 2h-6 q-2 2 -53 16q-2 4 -11.5 63.5t-9.5 73.5q-8 0 -26 -14q-20 -18 -49 -37q-10 0 -35 -25q-90 -53 -98.5 -50t-20.5 16.5t-10 17.5q0 4 -21 25q-16 20 -16 31.5t42 27.5t42 25l35 22q0 6 26 17q0 6 25 18q2 4 5 6t7 5t9.5 8.5t11.5 9.5q-4 0 -111 39q-57 23 -88 102 q-14 37 -12 45q4 8 33.5 -2t78.5 -23q16 2 67.5 -5t86.5 -9q-2 20 0 55t3 38t1 5z" />
<glyph unicode="+" horiz-adv-x="1056" d="M444 123q-16 33 -16 70.5t-4 58.5v2q-12 49 -12 117v73q-43 -4 -66 0q-20 -10 -41.5 -9t-28.5 -5q-16 -12 -77 -12q-12 0 -58 35l-22 39q-2 2 -2 32q-6 16 -6 64q8 12 8 57q33 16 70.5 16.5t58.5 4.5h2q49 12 98 12t72 -2q4 152 4 164l4 30q0 41 28.5 72t42 31t27 -1 t19.5 -2t15 -5t13 -11q14 -16 29 -98q0 -8 14 -184q147 -6 220 -6l30 -4q41 0 72 -29t31 -42t-1 -26.5t-2 -19.5t-5.5 -15.5t-10.5 -13.5q-16 -14 -98 -29q-20 0 -213 -18q6 -68 6 -119q10 -20 9 -41.5t5 -27.5q12 -16 13 -78q0 -12 -35 -58l-39 -22q-2 -2 -33 -2 q-16 -6 -63 -6q-13 8 -58 8z" />
<glyph unicode="," horiz-adv-x="415" d="M313 201q31 -4 34 -36t3 -86t-31 -147q-6 -29 -22 -45q0 -6 -21 -53q-12 -61 -92 -102q-16 -12 -28 -15q-47 -10 -78 13q-12 6 -6 14q0 14 23.5 48t29.5 47.5t16 51.5v78q0 72 -32.5 99.5t-28.5 83.5q-2 2 0 19t14 41t31 36l31 -2q43 4 75 -8l33 -9q2 1 49 -28z" />
<glyph unicode="-" horiz-adv-x="833" d="M74 543q39 16 85 16t72 4h2q66 12 148 12l246 -12l35 -4q53 0 91 -28.5t36.5 -44t-3.5 -34t-4 -26.5q-6 -18 -45 -27l-32 -6q-37 0 -62 -8q-31 0 -53.5 -9t-79.5 -9l-33 -7q-66 -20 -123 -18q-25 -10 -51.5 -9t-32.5 -5q-20 -12 -96 -13q-18 0 -72 35l-28 39q-4 4 -2 33 q-8 14 -9 63q11 15 11 58z" />
<glyph unicode="." horiz-adv-x="409" d="M182 287h2q39 6 78 -23l21 -22q2 -8 26 -25q2 -6 -6 -53q14 -10 25 -55q2 -43 -15 -144q4 -10 -6 -20q-23 -23 -86 -2q0 -2 -3 -1t-16.5 4t-20.5 4t-50 11q-37 14 -37 21q-23 23 -22 36q-12 25 -4 58t12 53l18 35q0 14 23 61q4 27 10 33q33 21 51 29z" />
<glyph unicode="/" horiz-adv-x="571" d="M-12 -211l-4 41q0 18 36 184l228 695q37 84 43 112q59 129 62 137.5t7 14.5q23 47 74 213q2 2 11.5 20.5t13.5 22.5l47 33q37 27 66.5 26.5t43.5 -18.5l25 -51q0 -35 -43 -111q-100 -256 -104.5 -269.5t-18.5 -45.5q-2 -14 -24 -76l-48 -135q-35 -76 -34 -90 q-55 -182 -70 -191q0 -2 -8 -18q-25 -61 -27 -95q-4 -33 -53 -239q0 -12 -18 -78q0 -18 -9.5 -76.5t-21.5 -93.5q-33 -88 -88 -88q-29 0 -63 37t-34 98z" />
<glyph unicode="0" horiz-adv-x="915" d="M596 539l4 65q8 72 -10 205q-2 72 -16.5 109.5t-59.5 107.5q-37 33 -37 43q-23 23 -53 -33q-8 -31 -80 -176q6 -16 -12 -35q-4 -6 -4 -24q6 -12 4 -35q-6 -20 -13 -172q0 -86 15 -123q0 -70 8 -111q-2 -57 8 -90q29 -68 61.5 -67.5t72.5 53.5t63 131q-2 16 6 16 q0 14 11 48t11 47zM119 971l6 43q0 14 20 39q12 33 11.5 43t21 54t40 61.5t34.5 41.5q0 10 13.5 22.5t27.5 14.5q47 16 72 8q63 -25 75 -10q4 6 42 13.5t53.5 6.5t33.5 -16q72 -35 142.5 -135t99.5 -211q45 -139 31 -274q-14 -154 -65.5 -309.5t-63 -178t-18.5 -34t-9 -24.5 t-30.5 -46t-43.5 -37q-57 -45 -102 -47q-10 -2 -33.5 -1t-42 1t-28.5 -4q-37 4 -58.5 3t-60.5 17q-61 39 -99 97q-8 35 -22 49l-21 45q-23 14 -26 88q-63 184 -31 586q0 27 14 26q6 10 4 25q1 14 13 43z" />
<glyph unicode="1" horiz-adv-x="712" d="M471 -12l-41 4q-43 8 -51 39q0 8 -17 16q-12 0 -30.5 21.5t-19.5 80t-1 120t2 67.5q6 0 0 24q-8 80 -2 110t8.5 202t-14.5 180q-2 4 -14 1t-19 -9q-16 -33 -20 -33q-8 -8 -21 -16q-37 -43 -114 -25q-55 8 -70.5 22.5t-19.5 42t22 46.5q53 37 76 82l29 32l22 17 q0 4 12.5 14t25.5 21.5t13 21.5l21 33q20 20 20 37q2 0 14.5 12t22.5 18q14 29 57 76q27 39 28 40t8.5 5t19.5 9.5t25.5 13.5t22.5 9t44 -3t35 -8t6 -13.5t14 -9.5t19 -14q8 0 37 -14q16 -20 18 -31q-12 -6 -12 -25l-19 -168q-27 -115 -39 -538q-8 -61 -8 -97t-8 -112 t-8 -149.5t-4 -98.5q-15 -59 -70 -53z" />
<glyph unicode="2" horiz-adv-x="851" d="M248 0l-25 4q-10 0 -28.5 15.5t-21.5 8t-21 7.5q-47 35 -79 94t-7 100q10 27 42.5 71t43 62.5t37 50t34.5 52.5q8 33 56 63q12 25 20 38.5t16 29.5q25 47 32 56.5t13 19.5q10 14 37 35q6 20 19.5 45.5t17.5 33.5q74 90 107 199q8 45 -10.5 71.5t-67.5 6.5 q-141 -66 -246 -252q-23 -10 -41 8q-16 6 -41 31q-27 16 -35 40.5t-8 85t16.5 91.5t26.5 37q12 12 12 37q12 25 25 28q8 23 4 29l12 16l25 46q25 37 61 45q8 8 14.5 13t14.5 13q8 0 25 8q16 0 53 7q8 8 39 7t51 -14q37 -4 48 -6t15.5 -2t22.5 -22l21 -17q4 0 50 -48 t53 -65.5t16.5 -23.5t36 -43t34.5 -55q25 -47 17.5 -137.5t-52.5 -172t-180 -270.5q-51 -72 -207 -241q305 0 311.5 -4.5t67.5 -55.5q10 -12 34.5 -60t26.5 -69q10 -27 15 -27q6 -8 4 -27.5t-19 -19.5q-14 16 -70.5 21.5t-171 5.5t-163.5 -4q-133 0 -133 4z" />
<glyph unicode="3" horiz-adv-x="872" d="M395 -23q-18 -8 -61 -8t-101 11q-115 25 -149 79q-45 74 -45 158q-8 74 76 74q18 0 43.5 -12.5t36.5 -22.5q12 -6 51 -10q121 -16 227 69q70 51 83 85t13 81t-41 56.5t-87 -4t-95 -19.5q-49 -18 -83 20.5t-19 143.5q8 43 28 63q59 20 117 29q16 2 52 35t82 99.5t32 115.5 t-72 37q-41 -4 -58 -9.5t-81 -33.5q-90 -27 -128 -27t-56 25q-51 90 -58.5 131t7.5 76q2 20 13 30.5t44 7.5q20 10 53 0q53 -10 72 0l37 13q41 2 56 17.5t87 10.5l33 13q29 4 47 -6q68 -25 104 -41q-2 -6 35 -17q37 -31 43 -73q33 -82 48.5 -141.5t-1 -98.5t-42 -66.5 t-44.5 -48.5q-29 -33 -84 -78q55 -16 74 -51q6 -2 22.5 -22.5t22.5 -36.5q29 -41 33 -82q12 -41 17 -119t-31 -158l-23 -67q-14 -51 -35.5 -78t-87 -60.5t-80.5 -35.5q-47 -34 -127 -54z" />
<glyph unicode="4" horiz-adv-x="942" d="M590 1098v14q-10 -14 -27 -35q-4 -12 -26 -45q-111 -160 -121 -188l-29 -51q-111 -156 -123 -187q-6 -8 -14 -15t-12.5 -12.5t1 -6.5t15.5 2.5t31 3.5l106 20q63 0 96 23q14 4 31 75q0 43 8 60l13 104q12 12 12 21v10q8 90 10 108zM461 326l4 63q6 39 0 39 q-35 0 -127 -41t-104.5 -45t-18.5 -6q-18 -10 -29 -10q-16 -10 -42.5 -7t-36 12t-18.5 14t-16 6t-9.5 -1t-16.5 10.5t-22.5 21.5t-26.5 17l-18 21q0 8 -15 20q-8 25 -9 40.5t34 113.5q20 20 26 47q8 4 13 16q10 0 28 33q27 51 29 53l25 29q0 8 17 32.5t26 29.5 q-8 0 15.5 35.5t29.5 43t18 31.5q8 10 13.5 21.5t23.5 29.5q8 8 39 64l57 74q12 31 45 63q4 10 46 55t65 56q16 12 16 18q2 2 25.5 2t35 -3t62.5 -48q6 4 29 4q61 0 102 -41l47 -33q10 -4 -4 -45q-47 -123 -84 -366q-12 -102 -12 -109q2 -2 35 -2l98 6q31 0 43 -4 t33.5 -18.5t32.5 -30.5q0 -8 14 -16q0 -12 8 -21l17 -8q0 -4 22 -37q47 -35 -4 -43q-37 16 -96 6q-12 0 -54 -12q-156 -20 -174 -33q-2 0 -10 -37q0 -39 -6 -47q-4 -55 -5 -177t1 -140q4 -4 4 -41q6 -12 6 -31q4 -8 -6 -27q-4 -12 -20 -8q-37 0 -54 4q-53 0 -65 15 q-8 0 -41 16q0 8 -16.5 19.5t-20.5 7.5l-16 4q-8 25 -9 61q10 160 17 166v31q4 10 4 37z" />
<glyph unicode="5" horiz-adv-x="901" d="M113 221l75 23q14 0 29 14q23 14 45 12l90 45l29 11q68 35 76 36q25 18 37 21q10 2 32 18q20 20 43 29q8 8 37 29q66 66 39 106q-10 14 -35 23q-61 4 -106 4t-137 -21l-127 -16q-18 -14 -58 29q-12 0 -61 37q-16 20 -29 30q-29 16 -39 41q-2 12 15.5 100.5t21.5 100.5 t6 29l21 55q57 127 57 156l-8 24q-25 37 -25 71t4.5 38t26.5 0q4 2 27 16q18 41 47 18q8 -12 23.5 -17t31.5 5t45 -8q10 2 43 0q10 -6 23 2q14 14 52 16t56.5 9.5t57.5 1.5q25 8 49 8q4 -4 26 4h2q55 4 93 -18q14 -4 22 -17q8 -18 39 -33q-4 -10 18.5 -41.5t28.5 -65.5 t-5 -44t-27.5 -17.5t-49.5 -1t-84 6.5q-76 -6 -201 -25q-47 -12 -116 -18q-2 -2 -9.5 -33t-11.5 -37q-16 -94 -30.5 -132t-14.5 -44q129 18 135 16h80q96 -4 137 -35l23 -16q41 -25 68 -53l116 -150q31 -49 37 -74q23 -29 17 -65q-8 0 -11.5 -5t-5.5 -9q-8 -10 -10 -19 l-55 -67l-31 -33q-2 -10 -103.5 -80t-148.5 -90q-145 -68 -205.5 -89.5t-152.5 -31.5q-16 -12 -65.5 -3t-102.5 73q-25 27 -28 34t9 23q-8 41 -18 57q4 8 16 19q18 8 53 14q23 -6 52 4z" />
<glyph unicode="6" horiz-adv-x="962" d="M645 532q0 16 4 29q-4 39 -29.5 64.5t-58.5 7.5q-59 -33 -117.5 -84t-91.5 -92q-12 -33 -15 -65t-5 -48q-4 -33 -4 -35v-43q-6 -98 2 -112.5t26.5 -15.5t28.5 7q51 47 109 123q31 27 129 199zM177.5 812q25.5 85 30.5 102.5t12 29.5t9 21q23 27 31 61q4 0 16.5 33 t14.5 37q12 12 22 43q8 14 57.5 70.5t57.5 58.5l23 16q59 20 66 25.5t11 7.5t54.5 2t50.5 -4q0 -12 35 -23q41 -31 47 -37q27 -29 2 -67q-23 -23 -31 -27q-74 -37 -186 -264l-6 -23q0 -6 -8.5 -23t-31 -70.5t-34.5 -78.5l4 -2q53 37 99 76t90 47t122 -44t154 -152 q29 -29 29 -109q6 -66 -23 -121q-12 -16 -11 -28.5t-66.5 -98.5t-137.5 -164q-106 -80 -188 -90q-33 -2 -43.5 -17t-10.5 -28q-10 -18 -67 -26q-12 4 -36 15t-38 15.5t-27.5 12.5t-25.5 8q-6 0 -47 12q-12 -2 -52.5 33t-52.5 57q-43 68 -36 221.5t40 245.5q6 12 7 32.5 t12 31.5q0 14 16 42.5t18.5 42t28 98.5z" />
<glyph unicode="7" horiz-adv-x="806" d="M146.5 375.5q15.5 58.5 26.5 78t11 36t17.5 52.5t19.5 40q4 4 8 26q8 8 19 56q2 0 24 32q4 29 9.5 35t6.5 11.5t14 41t15 37.5t7 10q16 33 20 46q10 41 26.5 73.5t16.5 53.5q8 33 3 40t-82 -3.5t-158 8.5q-29 4 -41 20q-18 33 -35 39q-31 12 -66 74q-18 41 -15 70.5 t34 66.5q27 0 34 -6q37 -4 107 -6q59 0 77.5 3t26.5 3h27q23 12 45.5 16t35.5 14.5t27.5 7.5t88.5 -10q16 8 32 5q12 2 109 -7q10 -2 27.5 -18t25.5 -45t6 -36t0 -11q6 -10 37 -19q20 -33 58 -57q2 -2 6 -8t9 -12.5t7 -12.5q31 -25 -25 -35q-39 -6 -122 -139 q-74 -137 -162 -317q-43 -78 -97.5 -255t-44.5 -317q-6 -27 -19 -48t-28 -11q-18 20 -50 11t-47 -7t-59 47t-30 227q2 41 17.5 99.5z" />
<glyph unicode="8" horiz-adv-x="929" d="M643 1153l-10 33q-43 25 -101 31q-10 4 -33.5 -9.5t-27.5 -29.5q-59 -115 -22 -185l8 -28q4 -4 22 -35q49 -74 74 -78q51 51 86 201q4 24 4 100zM508 170q4 4 6 10t12 10q14 2 24.5 30t7.5 46.5t1 30.5v10q-4 0 -11 11.5t-18 19.5q6 31 2 41q-10 39 -10 41q-6 2 -9 8 t-9 6t-17 29q2 10 -3 35.5t-13 25.5l-10 15l-21 18q-2 2 -14 -8q-35 -33 -78 -127q-8 -8 -2 -8q2 -6 -19.5 -69.5t-21.5 -78.5q-49 -78 -6 -123q14 -29 24.5 -36t15.5 -10t20.5 -5t21.5 -2q14 -4 57 -4v4l-2 4q6 2 37 33t31 37q4 2 4 6zM150 1087l4 37q4 66 73 127 q20 10 27 35q6 4 24.5 20.5t28.5 22.5q39 23 90 27q14 6 49 4t50 -8h47l47 -2l24 -11q141 -31 187 -108q45 -63 37 -193q-6 -10 -13 -22q-49 -150 -123 -232l-30 -36l24 -23q12 -6 16.5 -24.5t2.5 -28.5q25 -20 57.5 -75.5t40.5 -61.5q4 -16 18 -31q31 -70 38.5 -98.5 t11.5 -81t-6.5 -99.5t-18.5 -49q-6 -14 -7 -26.5t-34 -57.5q-41 -59 -72 -69q-6 -2 -16 -13q-6 0 -6 -10q-20 -16 -166 -70q-158 0 -166 2q-47 12 -65.5 9.5t-79.5 40.5q-29 14 -45 30q-18 8 -47 37q-23 10 -46.5 46t-23.5 61q-8 20 -16 30q-18 45 -17.5 91.5t11 59.5 t13.5 20.5t5 11.5q8 10 8 14l57 113q4 0 15.5 6t17.5 8q55 55 60 55q-6 12 17 31.5t28.5 20.5t9.5 6q16 8 33 8q8 -4 8 4t14 16q2 6 1 19.5t-5 13.5q-8 0 -8 47q-39 66 -51 64q-6 -2 -17.5 8t-13.5 16q8 16 0 21q-8 8 -8 16q0 2 -25 35q2 4 -20.5 28.5t-26.5 24.5l-4 12 q0 23 -4 29q-18 8 -10 16q0 14 -8.5 21.5t-8.5 24.5z" />
<glyph unicode="9" horiz-adv-x="946" d="M616 991l-2 27q0 43 -18 90t-33 49q-43 10 -49 -6q-76 -98 -100 -152l-31 -59q-10 -31 -32.5 -77t-33.5 -75q-12 -74 -10 -77q2 -14 0 -29q2 -31 33 -51q31 -31 63 -4q55 39 125 125q57 61 80 143q16 92 8 96zM508 391l49 184l-4 3l-21 -21q-37 -33 -59 -55 q-33 -53 -96 -80q-41 -12 -107 24q-100 51 -188 142q-31 29 -43 112q-14 61 0 101.5t14 48.5q-8 35 164 303q98 98 143 123q111 61 191 57h84q12 4 20 -4l27 -4q12 6 57 -23.5t62 -50.5q55 -72 63 -223q18 -154 -4 -260v-45q0 -4 -8 -21q2 -18 -10.5 -49.5t-10.5 -46.5 l-16 -119q-27 -102 -27 -106l-14 -43q-18 -37 -22 -68q-6 -4 -7 -26q-4 -8 -7 -26.5t-11 -31t-12 -34t-41 -86t-45 -70.5l-23 -21l-49 -22q-78 -16 -190 0q-18 10 -15 39q4 33 34 78t48.5 88t25.5 62.5t26.5 80.5t19.5 64z" />
<glyph unicode=":" horiz-adv-x="423" d="M322 844l14 -123q0 -47 -29 -92q10 -10 10 -23q0 -16 -26 -39l-21 -20q-18 -25 -77 -23h-3q-25 8 -34 13q-23 12 -35 69q-14 33 -15 37l-18 37q-4 55 -20 72q0 43 41 79q39 35 120 35q37 12 56 13q37 -10 37 -35zM285 -70q-14 0 -97 21q-39 0 -62.5 11t-23.5 20 q-35 35 -34 77q16 49 20 70l18 35q0 14 12.5 41.5t14.5 34t4 11.5t6 9q12 14 21 16q23 6 26 11l27 2q37 0 53 -25l21 -22q27 -20 26 -29l-6 -49q25 -16 25 -63.5t-14 -139.5q0 -25 -37 -31z" />
<glyph unicode=";" horiz-adv-x="438" d="M201 524h-2q-27 10 -52 27l-32 92l-19 37q-2 14 -20 72q0 31 30 73q4 16 99 35q74 18 88 19q41 -8 41 -60q12 -74 10 -117q-8 -43 -29 -73q16 -16 11 -37q-25 -16 -27 -25l-39 -37q-20 -12 -59 -6zM322 201q31 -4 33.5 -36t2.5 -86t-30 -147q-6 -29 -23 -45q0 -6 -20 -53 q-12 -59 -92 -102q-16 -12 -29 -15q-47 -10 -78 13q-12 6 -6 14q0 14 23.5 48t29.5 47.5t17 51.5v78q0 72 -33 99.5t-29 83.5q-2 2 0 19t14.5 41t30.5 36l31 -2q43 4 76 -8l32 -9q3 1 50 -28z" />
<glyph unicode="&#x3c;" horiz-adv-x="1056" d="M711 956q4 2 39.5 4.5t48.5 -18.5q16 12 71.5 -31t42.5 -61q-18 0 -96 -49t-129 -86q-20 -10 -282 -164q-39 -16 -9 -29q6 -4 74 -56t68 -54q100 -59 110 -71.5t30.5 -26t25.5 -19.5q133 -117 135 -150q-2 -10 -42 -28.5t-87 -24.5q-66 -2 -101 21q-20 2 -40.5 19.5 t-24.5 31.5q-37 0 -60 41q-16 8 -43 41q-6 2 -20 15t-25 18q-18 37 -53 51l-27 35q-37 23 -36 32q-12 29 -60 45q-10 23 -55 45q-14 2 -17.5 10.5t-3.5 49.5q-4 8 23 59q47 33 98 62q47 37 119 90t72 59q10 4 50 26.5t50 33.5q47 4 55 30q37 23 62.5 27t27.5 6q5 14 9 16z " />
<glyph unicode="=" horiz-adv-x="784" d="M750 172q-29 -12 -80.5 -14t-79.5 -8h-2q-63 -12 -146 -13q-109 0 -307 21q-53 16 -80.5 33.5t-23.5 35t5 31.5t3 23q6 20 45 28q70 10 94 10h31q37 0 55.5 6.5t26.5 6.5l117 18q20 16 59 8q18 8 43 10.5t29 0.5t29.5 5t70.5 11q31 0 80 -35l26 -33q8 -25 7 -30 q4 -6 5 -35t-3 -45q-4 0 -4 -35zM33 723q29 12 79 14t78 8h3q66 12 147 13q106 0 305 -21q55 -16 83 -33.5t24 -35t-5.5 -31.5t-3.5 -23q-6 -20 -47 -28q-70 -10 -94 -11h-31l-28 -2l-107 -18q-23 -8 -63 -10q-23 -14 -60 -8q-35 -16 -73 -11q-57 -12 -99 -16q-23 -6 -78 35 l-26 33q-8 25 -6 30q-4 6 -6 30t4 50q4 0 4 35z" />
<glyph unicode="&#x3e;" horiz-adv-x="1056" d="M238 942q12 20 48 18t40 -4t8 -16q2 -2 22 -6q31 -4 68 -27q8 -27 55 -30q10 -10 50 -33t51 -27q0 -6 30 -31q113 -82 160 -118l98 -62q27 -51 23 -59q0 -47 -5 -52.5t-16 -7.5q-45 -23 -55 -45q-47 -16 -59 -45q0 -10 -37 -32l-27 -35q-35 -14 -53 -51 q-10 -4 -24.5 -17.5t-20.5 -15.5q-27 -33 -43 -41q-23 -41 -59 -41q-4 -14 -25 -31.5t-41 -19.5q-35 -23 -100 -21q-47 6 -87 24.5t-42 28.5q2 33 135 150q4 6 24.5 19.5t24.5 19.5q8 12 117 78q0 2 67.5 54t73.5 56q31 12 -8 29q-262 154 -283 164q-119 86 -170 110.5 t-55 24.5q-12 18 43.5 61t71.5 31z" />
<glyph unicode="?" horiz-adv-x="899" d="M250 164q2 29 10 33t15.5 1t74.5 -10q18 -23 31 -26q49 -49 65 -49q16 -2 15.5 -30t-19.5 -50q-29 -63 -75 -99q-23 -8 -35.5 -8t-66.5 8.5t-62 32.5v47q0 39 9 45.5t9 32.5l6 43q15 11 23 29zM565 1124q10 35 11.5 40t5.5 14q16 33 16 45v28q0 14 -2 16.5t-18 2.5 q-31 -6 -83.5 -29.5t-74 -43t-56 -76t-37.5 -75t-10.5 -28.5t-14.5 -48t-7 -49.5t10 -11.5q23 -4 -14 -16q-6 -4 -22.5 -4t-20.5 4q-39 0 -45 10q-23 0 -49.5 17.5t-34.5 40.5q-29 84 18 157q27 78 58 101q35 74 42 81t13 9q8 20 8 25t18.5 16.5t28.5 19.5q20 16 21 25 q14 0 26 6q29 6 37 20q12 0 51 12.5t105 6.5q10 -4 38.5 -19.5t33 -18.5t10.5 -5q16 -6 28 -23q18 -4 35 -14q20 -18 51 -29l35 -20q25 -4 41 -6q8 0 21 -29q4 -106 -95 -287q-6 -14 -21 -44t-17 -42q-20 -45 -110.5 -233.5t-105.5 -214.5q-2 0 -10 -11.5t-12 -13.5l-10 -22 q0 -10 -21.5 -15.5t-34.5 -3.5h-65q-49 10 -57.5 18.5t-8.5 51.5q0 135 56 223q20 51 37.5 81t21.5 46t33 45q12 33 24 49q10 4 30 39t20 46t18 24q0 8 12 26q0 29 12.5 42.5t12.5 31.5q0 12 18 12z" />
<glyph unicode="@" horiz-adv-x="1320" d="M772 604q-12 27 -61 -22q-35 -18 -94.5 -138t-65.5 -131q-53 -106 -4 -104q47 4 106 84q29 35 35 39q18 53 31 61q20 106 72 162q8 22 -19 49zM893 609q6 -7 18.5 -7t35 -9t22.5 -15q-8 -18 -25 -33q-2 -6 -31 -58q-74 -127 -68.5 -162.5t47.5 -42t73 49.5q0 2 69 121 q57 170 47 247q-8 80 -43 140q-4 6 -67 65l-41 21q-43 37 -103.5 34.5t-105.5 -20.5q-156 -84 -200 -124t-95 -112.5t-77.5 -125t-55.5 -136.5t-41 -115.5t-12 -81.5t-4.5 -72.5t-2.5 -35.5q0 -88 43 -196q12 -31 25.5 -41.5t36 -16.5t44 -19.5t122.5 3.5q12 6 26.5 9 t26.5 4t39 17.5t59.5 40t51.5 31.5q61 66 135 6q27 -33 22 -90q-6 -127 -127 -172q-29 -10 -40 -16t-21 -10q-41 -16 -53 -21q-213 -10 -233.5 10.5t-30 26.5t-15.5 14q-14 18 -31 23q-16 16 -34.5 20t-63.5 43q-6 0 -17.5 13.5t-11.5 23.5q-6 -2 -30 21q-53 49 -78 164.5 t-29 181.5q0 96 13.5 158.5t41 149.5t62.5 153l61 118l58 68q33 25 39 43q6 4 22 17.5t23 15.5q74 74 211 147q43 27 85 36t122.5 6t97.5 -7q66 -14 280 -194q68 -88 80 -175.5t-12 -285.5q-4 -4 -21.5 -53.5t-29 -63.5t-37.5 -61q-61 -106 -82 -115q-37 -18 -68 -45 q-14 4 -41.5 -7.5t-78 2t-95.5 48.5t-35 67q-43 -59 -107.5 -109t-115.5 -32q-27 0 -49 6q-51 0 -80 66q-18 55 -4 155q96 213 119 244q25 31 41 64q55 109 147 127q55 12 115 -17q45 -27 72 -90q4 -27 10 -34z" />
<glyph unicode="A" horiz-adv-x="956" d="M389 553q4 4 48 9t104 36q2 0 -2 49q-6 86 -11 123q-4 49 -8 70q0 39 -31 161l-90 -305q-29 -127 -22 -155zM113 494l12 90q0 27 8 53q0 35 35 104q0 4 18 54q0 4 39 120l25 60q0 8 10 31.5t15.5 47t13.5 46.5q29 55 51 94q43 82 160 74l65 -6q61 -16 94 -35 q47 -18 63.5 -40t14.5 -71q2 -25 12.5 -213t10.5 -190l10 -88q0 -12 45 -295l45 -144q41 -115 44 -120t18 -43q23 -68 -39 -91q-55 -8 -82 11q-10 0 -47 18q-4 10 -23.5 19.5t-25.5 15.5q-23 6 -41 63q-6 4 -23 33q-14 29 -8 47q-14 18 -15 76q-18 31 -18 96.5t-20 102.5 q-104 -47 -224 -52q-23 0 -22 -8q0 -18 -12 -65l-35 -226q20 -152 -37 -159q-16 0 -54 -8.5t-63 14.5q-47 27 -66.5 54.5t-17.5 62.5q2 29 10 123q4 4 3 46t6 64l32 127q6 4 17 62q-2 4 -2 20z" />
<glyph unicode="B" horiz-adv-x="987" d="M594 848l33 70q10 29 9 45t-1 26t-2 25.5t-13.5 31t-22.5 20.5t-42 17l-45 2q-61 12 -104 -10q0 -45 -23 -188l-12 -142l-11 -73q14 0 74 22l29 25q8 2 51 45q10 4 23 20l20 25q6 -2 23 20zM356 301l4 -49q8 -18 0 -53t-2 -54q0 -35 2 -41q18 0 56.5 16.5t48.5 18.5 t27 17q51 27 106 61l47 43q59 72 82 105l12 36q27 57 -51 109q-16 25 -67 33h-3q-72 20 -83 16l-91 -20q-25 -12 -44 -12.5t-42 18.5l2 -58q-14 -39 -8 -75q8 -37 4 -111zM446 -63h-18q-20 -4 -80 6q-104 16 -168 65q-18 16 -41.5 44t-23.5 38t1 26.5t-3 33.5v16q-6 12 2 44 t4 52q-4 27 -6 57q-6 8 6 46q16 276 16 303l10 61q-10 61 5 107v45q-2 29 16 166q-8 25 -55 63q-10 10 -20.5 31.5t7.5 68.5q12 16 72 54q4 12 111 47l38 16q29 10 115 8q47 -6 76 -18q104 -51 192 -117q27 -12 37 -33q37 -25 69 -79t36 -68q10 -66 -21 -158 q-14 -47 -135 -196q20 -6 70 -35q6 -8 43 -29q4 -6 11 -14t11 -15l17 -10l20 -31l31 -26q20 -20 33 -45q31 -29 32 -47l5 -39q-2 -23 -62 -148q-23 -45 -57 -69l-31 -37q-12 -16 -46 -41t-56 -47q-10 -4 -32 -18.5t-64 -35t-56 -24.5q-41 -12 -111 -18z" />
<glyph unicode="C" horiz-adv-x="907" d="M383 1253q29 12 119 9.5t129 -17.5l51 -16q63 -43 72 -43q84 -66 96 -172q12 -45 4 -82q0 -12 -8 -53l-21 -48l-24 -34q-12 -2 -15 -2q-76 -12 -116.5 -3t-71.5 44q-6 12 -6 22q2 10 6 19l10 32q27 66 -4 111q0 6 -20.5 22.5t-31.5 24.5t-40 2q-49 -20 -84 -125 q-41 -53 -57 -139q-25 -154 -25 -174l-2 -45v-19q-4 -4 4 -178q2 -10 8 -29q6 -23 19 -73l26 -45q10 -6 27 -37q10 0 16 -15q14 -14 13 -16q10 -2 30 -12q55 -29 97 12q14 14 35.5 40t33 41t35.5 30q68 51 117 -4q10 -16 3 -79t-58 -130q-4 -12 -27 -40t-47 -44 q-4 -14 -156 -21q-8 0 -33 4q-23 -6 -60.5 6.5t-41.5 12.5l-27 6q-16 0 -32.5 10t-54.5 36t-58 42q-61 49 -88 113q-8 14 -10 39.5t-9 37.5q-16 16 -15 53.5t-5 90.5q0 25 2 28q-10 10 -8 36t2 71q6 12 5 72.5t3 91.5q-8 18 -2 53l2 61q2 37 19 78q2 18 8 44t53 104 q0 16 31 41q0 8 16 24.5t37 40.5q29 35 63.5 51t65.5 39z" />
<glyph unicode="D" horiz-adv-x="1093" d="M797 586q12 25 16 90t8 90q0 240 -131 313q-53 31 -102 17q-23 0 -70 -29q-2 -29 -2 -96l-10 -76l-19 -188q0 -4 -4 -60q-31 -322 -30 -481q37 8 63 35q72 59 80 63l29 27q10 2 53 49v2l39 51l41 84q16 23 39 109zM205 276q-4 8 -4 30t6 50.5t6 67.5t12 100q-8 12 2 92 q10 18 8 49t-2 50q0 88 4.5 100t2.5 49q12 12 20 97q-70 -2 -104.5 37.5t-57.5 113.5q2 12 5 23.5t5.5 19.5t8.5 17.5t9 14.5t13.5 14t14.5 12.5t18 12.5t18.5 12t21.5 14.5t24 15.5q6 10 32.5 15t79.5 28q8 8 96 27.5t172 -15.5q47 0 68 -8q20 -18 55 -27l105 -55 q23 -23 92 -107q76 -135 96 -274q2 -39 2 -137q-18 -186 -67 -271q-4 -25 -23 -61q0 -4 -27.5 -50t-62.5 -90t-45 -59q-84 -78 -94 -86q-47 -35 -53 -37q-156 -78 -165.5 -84t-50.5 -14q-59 -6 -73 6q-33 14 -60 43q-8 2 -32 33q-33 25 -37 29q-27 39 -39 147q-2 8 0 55z " />
<glyph unicode="E" horiz-adv-x="821" d="M330 477v-82q0 -127 14 -141q-2 -2 10 -49q0 -16 17 -51q0 -10 57 -50q25 0 121 41l145 56q27 8 50.5 -7.5t28.5 -53.5t-2 -54t-34.5 -41t-36 -35t-31 -21.5t-50 -23.5t-37.5 -18q-80 -37 -123 -29q-27 0 -54.5 10.5t-30.5 9.5t-16.5 2t-26 6t-63.5 13q0 8 -28 16l-56 45 q-14 8 -30 52l-19 30q-8 6 -22 48q-8 10 -11 36q-10 23 -10 64q-8 10 -18 78q-14 88 -2 157q0 39 14 76q2 16 4 33q10 53 14 82q-8 29 27 137q0 16 13.5 48t15.5 67l16 39q0 16 31 120q16 39 16 46l51 108l25 33q14 14 43 24q12 10 66 -2q33 -12 45 -24q14 -6 34 -6l158 10 q59 -4 79.5 -13.5t40 -32t14.5 -45t-17 -34.5q-27 -23 -98 -53q-125 -68 -136 -72l-49 -22q-31 -20 -39 -43q-63 -229 -68 -255t-6 -31t-1 -7l41 4q90 29 106 18q8 0 23 6q76 27 133 23q10 6 22 -8.5t19 -34.5q12 -51 -31 -80q-86 -57 -205 -92q-39 -31 -108 -39z" />
<glyph unicode="F" horiz-adv-x="962" d="M500 1024l-15 -244q10 6 82 9.5t95 -1.5l75 -34q29 -18 68 -64q25 -53 -60 -82q-80 -12 -102 -12l-162 -8v-94q12 -252 13 -293q10 -61 10 -74v-45q0 -39 -10 -49q-25 -31 -31 -33q-84 -33 -178 41l-33 43q0 8 -12 61q2 6 -17 68q0 12 5 30.5t5 41t-10 47.5q0 27 -4 47 v20q4 23 5 48.5t6.5 51t0.5 48.5v6q-29 14 -42 12t-28.5 13.5t-17.5 30t43 57.5q4 8 50 28v41l10 115q-6 55 0 84t2 47l12 45q-102 -18 -147 -8q-39 18 -41 59q-2 2 10 60q-6 29 49 71q45 20 86 29q78 27 139 35q121 20 195 35l96 34q33 18 46.5 16.5t39.5 8.5q4 10 47 18 q88 16 103 -18q18 -4 49 -29q6 -2 47 -80q6 -16 -6 -33.5t-39 -19.5l-55 -20q-25 -2 -70 -23q-84 -23 -94 -22.5t-21 -1.5q-31 -6 -65.5 -16.5t-59.5 -10.5q-57 -12 -63 -29q-2 -4 -2 -12l-4 -25v-20z" />
<glyph unicode="G" horiz-adv-x="1064" d="M342 10l-39 -2q-4 4 -45 6q-4 8 -31 19q-12 0 -51 39q-35 29 -37 32q-2 8 -14 21q-8 12 -19 57q-33 100 -34.5 131t4.5 86q-8 10 2 52q0 23 6 102v12l8 92q-2 41 12.5 84t20.5 80q6 2 12 53q31 96 37 107l33 57q6 6 18 27l62 80q12 14 53 35q23 23 53 34q78 33 133 39 q25 -18 68 13q123 -10 165 -10.5t83 -14.5q61 -12 63 -47q4 -51 -14.5 -77.5t-46.5 -22.5q-84 12 -137.5 8t-100.5 -31q-4 -2 -18 -8q-33 -14 -53 -31q-76 -63 -142 -239l-6 -35q2 2 1 -1t-4 -12.5t-4 -15.5t-7 -20q-20 -55 -35.5 -154.5t-15.5 -165t22 -104.5l33 -37 q8 -16 49 -39q18 -23 55 -45q33 -14 111 31q8 6 16 14l49 33q45 47 56 63l24 21l8 63q0 2 5 12q8 31 8 54v28l-4 64q2 29 -9 39q-31 0 -114 -58q-6 -4 -27.5 -3t-34.5 7q-35 20 -34.5 51t6.5 49.5t7 25t8 13.5t19.5 15t30 25.5t72.5 44t124.5 26.5t112.5 -40t74 -148 q4 -25 4 -108t-39 -308q-10 -98 -23 -132t-17.5 -69.5t-7.5 -50t-4 -19.5t-2 -9t-7 -23.5t-30.5 -40t-45.5 -22.5q-68 12 -90 43q-8 12 -22.5 44.5t-15.5 56.5t0 32t7 50t9 64l-56 -67q0 -8 -37 -29q-16 -16 -94 -12h-18q-2 -16 -97 2q-12 -2 -61 14z" />
<glyph unicode="H" horiz-adv-x="1132" d="M135 350q4 6 0 29q-8 74 -2 102q-8 111 -5 129.5t11 20.5q-8 12 -15 90t-3 104q-4 16 -2 40t6 32q-4 4 -6 31v92l4 53v45l12 64q-6 10 10 37q-20 43 43 106q2 4 48 27q37 2 50 0t40.5 -4t42.5 -7q37 -12 37 -65v-35q4 -74 4 -111v-45q0 -27 -4 -30q2 -8 0 -39v-35 q-6 -63 -5 -74l-14 -108q16 -6 117 -6h102q90 0 113.5 1t31 13t11.5 32.5t6 47t4 33.5q12 10 6 88q0 6 8 30q0 29 9 66q0 39 13 68.5t19 50.5q10 35 50 59q51 37 98 47h37q55 -10 37 -104q0 -31 -17 -80q-18 -96 -18 -125t-17 -105q4 -39 1 -51t-3 -30q-4 -45 -4 -62 q-4 -61 -4 -98t-6 -80q0 -43 -14 -88l-6 -131q0 -14 14 -211q12 -12 8 -48t-14.5 -50.5t-21.5 -16.5t-34 -2q-47 -27 -75 -20q-25 0 -52 16q-43 23 -55 55q0 14 -5 35t-1 44.5t3 50t-1 61.5l2 24q-4 8 4 26.5t2 29.5v55l10 104q-20 14 -2 68l5 16q-25 -6 -46 -6 q-57 -14 -127 -14l-184 6v-23q-4 -33 -2 -98v-39q2 -53 2 -151q8 -106 8 -154l-2 -14q0 -16 -4 -29q0 -39 -19.5 -53t-62.5 -18.5t-78 22.5q-49 25 -51 41t-12 43q-10 16 -14 39q0 66 -2 74q-6 8 -7 28q0 27 -12 84z" />
<glyph unicode="I" d="M761.5 1090.5q-16.5 -9.5 -33.5 -9.5t-91 -4q-47 -10 -94 -26h-2q0 -37 -21 -109q0 -25 -10 -80q0 -16 -6 -32.5t-6 -51.5q-14 -84 -12.5 -92t-0.5 -22.5t-8 -43t-6 -67.5t-10 -70v-22q4 -74 -5.5 -104.5t-9.5 -52t-10 -66.5t-6 -107h12q51 4 54.5 3t27.5 5l33 -2h21 q6 0 26.5 -15.5t28.5 -29.5q14 -14 9 -27.5t-46 -44.5l-39 -12q-6 -6 -28.5 -14t-39.5 -8q-47 -10 -55 -35q-8 -16 -98 -12h-70l-39 -13q-51 -20 -90 -10t-52 15.5t-31.5 20.5t-15.5 34.5t13 56.5q35 29 49 37q98 31 125 41q0 68 -4 80q6 2 15 88q2 8 -11 39v12q6 57 -2 104 q0 2 8 72q10 12 0 66q8 39 15 61l2 29q0 12 12 73v21l4 16q37 152 49 222l-20 -5l-68 -10q-78 -20 -137 35q-51 70 -2 119q31 27 94 37q55 18 72 26q20 0 96 45q76 10 88 11l96 12q18 2 49 -3t37 -14q27 -6 66 -24l49 -45q29 -41 39 -62q6 -26 -10.5 -35.5z" />
<glyph unicode="J" horiz-adv-x="843" d="M451 924q10 31 -2 131q0 33 -19 96q-139 -23 -147 -23q-72 -10 -99.5 -10t-36.5 2q-16 4 -16 36t16.5 57.5t30.5 31.5q31 18 90 39q0 4 101 33q63 29 161 41q8 2 13 2l35 6h59l47 -14q27 -8 84 -60l4 -12q16 -12 16 -16t3 -13q0 -51 -29 -61q-8 -2 -45 2q-70 8 -88 -4 q0 -20 6 -35q6 -12 24 -109q0 -14 17.5 -86.5t21.5 -162.5q23 -49 23 -273q2 -12 2 -35q-6 -12 -6 -61q-4 -16 -4 -41q-4 -14 -6 -35.5t-5 -34.5q-6 -35 -17 -46t-17 -60q0 -4 -15.5 -28.5t-27.5 -33.5l-17 -18q0 -12 -41 -53l-14 -17q-12 -8 -53 -53q-2 -8 -48 -22.5 t-100 0.5q-29 4 -61 36q-8 -2 -10 0q-16 16 -66 37q-4 -4 -49 37q-10 2 -76 78q-2 10 -20 47q0 2 -9.5 34t-13.5 91v14q0 12 25 74q41 47 102 2q6 -33 22.5 -58.5t22.5 -47.5q14 -51 74 -119q23 -23 61 -25q8 2 64 49q8 8 16 29q20 29 21.5 35t9.5 29q0 2 16 45q18 33 8 98 q-2 2 -2 14q-6 49 -8 60v18q-2 2 -2 6l4 41q-8 12 -18 66q-20 88 -4 143q0 2 -4 17.5t-2 29.5z" />
<glyph unicode="K" horiz-adv-x="1015" d="M381 1268q96 -12 105.5 -15.5t11.5 -8.5t5 -13t1 -23q-6 -35 -27.5 -94t-15.5 -108q-27 -102 -35 -228v-26q51 94 57 102q25 29 86 125l64 65q2 2 11 18.5t11 24.5q123 135 187 144q41 8 82 2q49 -10 49 -48t-49 -85l-113 -152q-8 -23 -29 -43q-8 -10 -34 -39 q-20 -25 -89 -123l-47 -49q-12 -12 -28 -43q-41 -61 -39 -78.5t16 -42.5q31 -31 76 -104q35 -33 74 -98l49 -39q14 -8 33 -33q78 -78 99 -97.5t42 -29.5q6 -6 40 -34.5t38 -43t-19 -39.5q-10 0 -106 -18h-56q-8 4 -28 6q-63 2 -92 16l-68 56l-45 32q-6 18 -33 58l-14 28 q-31 31 -39 46q-49 76 -76 104l-22 39q-8 8 -27 33l-10 8q0 -35 -8.5 -57.5t-13.5 -37t-1 -73.5q-4 -16 -6 -53q-6 -31 0 -41q-2 -4 -14 -76q-10 -23 -4 -64q-4 -70 -72 -81q-33 -2 -65 -3q-23 4 -76 48q-33 18 -39 53t4 65q0 18 4 72q-6 31 6 61q18 35 18.5 71t-6.5 73 q-14 47 0 92l5 49q0 66 12 100q14 154 31 197l8 31q0 33 26 88q6 -2 7 16q8 66 19 84.5t7 79.5q0 33 19 68q23 47 29.5 52t9 7t12.5 7t12 7v-2q12 13 80 15z" />
<glyph unicode="L" horiz-adv-x="741" d="M334 422q-2 -8 -2 -32.5t-4 -43t0 -45.5q8 -37 34 -90q0 -6 31 -33q8 -2 17.5 -4t15.5 -5t28.5 2t30 10t29.5 24q23 29 49 39q39 37 74 63q33 6 43 4t22 -16q29 -33 17 -84q-16 -57 -62 -109q-8 -14 -30 -26q-4 -4 -13 -19l-39 -39q-12 0 -16 -12t-53 -31q-61 0 -109 13 q-102 23 -145 55l-39 25q-4 8 -39 22l-27 33l-30 33l-21 37q-6 8 -8 31.5t-6 39.5q2 6 2 45q4 18 4 45q4 6 0 43l2 19v28q0 33 8 70t17 78q0 27 6 47q-6 18 2 90v12q0 20 2 33v14l4 125q0 6 10 54q0 25 19 80q12 20 12 34q0 10 6 41q10 12 14 56q2 0 11 45q0 25 22 55 q4 12 37 29h2q8 4 62 10q25 0 63 -17q10 0 57 -30q25 -29 -14 -131q0 -18 -16 -56q0 -18 -6 -43q0 -18 -25.5 -146t-48.5 -472z" />
<glyph unicode="M" horiz-adv-x="1382" d="M610 930q2 -35 17 -162q23 -225 26 -274l21 -97l16 -96q45 90 43 105q0 14 35 106q49 88 63 156q2 12 23 59q-6 6 10 39q16 35 25.5 74t10.5 41t3 4q6 6 17 37q6 29 6 45v63q0 6 10 43l-2 47q0 49 47 127l41 35q0 18 31.5 22.5t56.5 -4t33 -8.5q8 -8 59 -20 q25 -8 32 -30.5t7 -61.5l-14 -160q0 -14 -13 -199l3 -65q-2 -4 -3 -70v-106v-39l7 -78q-8 0 24 -182q0 -29 21.5 -124.5t11.5 -158.5q0 -33 -59 -59q-45 8 -56 26q-18 10 -22 17l-17 20q-33 27 -53 64q-14 14 -20 40q-20 29 -24.5 72t-16 60.5t-17.5 33.5q-23 23 -29 81.5 t-12 101.5q0 25 2 37q-6 16 -7 24t-3 19l-8 -39q-6 -10 -27 -80l-43 -133l-37 -129q-10 -6 -24 -50q-18 -47 -21.5 -51t-7.5 -12q-16 -33 -37 -53q-55 -51 -113.5 -29.5t-84.5 82.5q-14 35 -23 45q-2 16 -22 57q-14 39 -23 99q-10 18 -14 63q-10 18 -14.5 53t-12.5 68 q-10 35 -14 84q-4 37 -31 135q-6 6 -16 41q-4 -33 -4 -36t-17 -101q4 -4 -2 -62q-12 -39 -14 -81q-16 -111 -15 -166q6 -18 1 -44t-8 -51.5t-9 -46.5v-14q-6 -63 -2 -72q0 -23 -17.5 -55.5t-54.5 -24.5q-66 16 -75 25q-23 37 -23 66v98l4 37q-2 6 2 47q-2 2 -2 33.5t-6 48.5 v20q-4 70 -1 81t-1 50q8 0 10 32t6 69l15 6q-4 2 -2 57q2 14 10 73.5t7 81t22 68.5q43 129 46 164t11 62q8 68 39 112q14 45 53 54l25 18h2q39 29 139 8q86 -39 94 -96q-8 -29 6 -199v-18z" />
<glyph unicode="N" horiz-adv-x="1097" d="M741 459q-4 10 -1 34.5t8 65.5q0 63 2 78l-2 41q0 33 2 55v60q4 18 1 61t3 109.5t10 80.5v41q0 6 2 43v15q2 31 -2 37l18 75l9 43q4 8 30 35q6 6 47 6t61.5 -2t27 -11t12.5 -38q12 -27 6 -67q2 -12 2 -19v-20q6 -41 -2 -84q0 -16 2 -33v-18q0 -41 -6 -72v-51 q2 -27 -6 -52q0 -8 -2 -49q-4 -14 -9 -35q6 -16 0 -43q-6 -6 4 -49q-8 -27 3 -96v-41q6 -66 -3 -129v-12q0 -41 -4 -60q4 -35 0 -88v-12l-4 -49q-23 -145 -131 -166q-133 -25 -211 72l-12 30q-23 4 -59 95q-57 137 -64 151q-29 80 -29 86l-4 39q-2 4 -8 16.5t-10 24.5 q0 14 -14 61q0 4 -11 52l-24 182q0 6 -2 20l-9 -45q-14 -137 -20 -165l-10 -207v-82l-6 -101q0 -76 6 -141q-2 -59 -22.5 -78.5t-61.5 -21.5q-29 8 -78 30q-14 8 -19.5 34t-23.5 44.5t-21 40.5l-24 156q0 33 3 68.5t0 74.5t10.5 90.5t11 87t4 92t6.5 82t6 39.5q0 33 4 52 q-2 6 12 61q0 14 6.5 43t12.5 78t22.5 79.5t50.5 69.5q18 10 33 54q14 20 53 39q14 10 38 10t44 -15q80 -31 99 -108l8 -51q0 -12 18 -56q0 -20 8 -59q0 -29 15 -59q20 -104 31 -146q10 -14 16 -39q4 -18 16 -55q4 -35 19 -80q84 -274 104 -309q4 8 4 51z" />
<glyph unicode="O" horiz-adv-x="999" d="M332 465l6 -184q33 -117 96 -164q10 -10 47 -23l51 -12q10 0 23 8q14 4 20 10q14 18 28.5 32.5t12.5 14.5q8 8 7 27q6 6 16 27q23 115 45 147q8 90 8 115q0 86 -45 211q-25 29 -24 182q-12 31 -14.5 56.5t-13.5 55t-17.5 40t-7.5 19.5t-9 24q-33 49 -100 -54l-35 -61 q0 -4 -20 -76q-33 -115 -32 -128t-24 -85q-2 -6 -1 -28.5t-8 -62.5t-9 -91zM98 614l15 152q0 12 9 36.5t11 31.5q0 4 4 14q0 55 31 96q47 109 71.5 162t53.5 88q2 10 43 33q84 45 157.5 45t141.5 -23q23 -4 60.5 -30.5t43.5 -28.5q35 -20 73 -87t41 -97.5t24.5 -97 t21.5 -98.5t11.5 -95.5t9.5 -102.5q-12 -289 -74 -417q-12 -90 -47 -115l-4 -29q-2 -25 -23.5 -55.5t-54.5 -46.5q-6 -6 -82 -19q-109 -20 -143 -20q-45 -14 -114 5t-79 20.5t-44 23t-44 33.5q-33 25 -39 39l-29 57q-27 27 -37 77t-20 64q-10 23 -18 47q2 14 2 52v20 q-8 31 4 60q2 14 3 35.5t5 62.5v26q18 62 16 82z" />
<glyph unicode="P" horiz-adv-x="954" d="M631 1104q-53 31 -207 31l12 -127q16 -111 29 -414q18 4 24 10q16 12 35 12q27 6 51 37q61 51 95 86l67 78q6 2 20.5 46t18.5 73q0 59 -12 68q0 4 -25 51q-8 6 -49 30zM207 1339l115 17l147 10l78 -10q8 -8 39 -10q59 2 159 -68q25 -8 41 -29l78 -94q4 -4 12.5 -21.5 t22.5 -39.5q-4 0 6 -17q27 -45 25 -53q10 -8 20.5 -53t5.5 -62q2 -2 -4 -47q-14 -98 -51 -145l-27 -49l-45 -66l-26 -24q-74 -82 -180 -127q-4 -2 -13 -5l-49 -16l-80 -20q0 -59 15 -275q8 -74 12 -82q0 -68 -8 -91t-26.5 -34.5t-63.5 -13.5q-12 -4 -43 7t-50 34l-12 65 q4 4 -12 39q-14 16 -23 58l-14 194l-2 66q-119 -8 -143 65q-20 39 -9 52l11 26q25 39 94 39h43q-4 4 -4 29l-8 86v37l-2 26q2 18 -3 41v13l-4 51v39l-2 20q0 145 -16 184q-68 -39 -90.5 -42t-75.5 30q-23 18 -25 41q-37 51 -24 84q4 16 33 51q2 8 49 37q37 37 129 53z" />
<glyph unicode="Q" horiz-adv-x="993" d="M416 735q-31 -188 -54.5 -268t-29.5 -164q0 -133 47 -190q8 -14 41 -29q18 0 41 4l-33 39q-37 41 33 98q18 14 66 9t98 -62q0 -4 4 -4l37 72q8 4 17 54t19 85q0 16 5 41v20q4 39 -11 62q-10 96 -8 184l-4 49q-10 10 -14 119l-23 92q0 10 -24 119q-8 14 -42 2t-61 -39 q-23 -49 -29 -64.5t-24 -51t-25 -87.5q-12 -51 -26 -90zM879 981q37 -264 24 -313q-6 -8 -6 -41l-2 -23v-63q-4 -4 -4 -21l-4 -45l-4 -14l4 -6l-2 -9q0 -4 -4 -16t-9 -70l-26 -114q0 -4 -13.5 -42t-19.5 -48q0 -16 -37 -58l-49 -65q20 -23 119 -111q6 -8 41 -24 q90 -43 121.5 -49.5t40 -18.5t6.5 -21.5t-13 -27.5q2 -18 -21.5 -42t-45.5 -24q-66 6 -113 22.5t-53 24.5q-88 43 -234 175q-92 -35 -151 -19q-8 -2 -51 8q-6 0 -117 29l-43 18q-16 4 -45 27q-16 18 -43 44t-35 46q-16 45 -11 108.5t5 77t-2 41t2 41.5q4 12 0 72q2 4 2 43 q16 236 20 250q25 84 33 123q0 35 27 106q10 41 70 154q10 4 26 37q10 10 25 41l32 37q2 4 29 16q33 16 58.5 22.5t109.5 6.5q31 -4 62 8h65q45 -4 121 -31q33 -23 51.5 -43t24.5 -55q0 -29 34 -125q5 -12 5 -39z" />
<glyph unicode="R" horiz-adv-x="1009" d="M408 977q0 -96 -27 -256q12 10 37 35q29 29 114 84l31 22l62 31l67 45q-4 4 10 20q39 68 46 119q0 27 -8.5 40t-51.5 18q-4 4 -39 10q-84 0 -111.5 -10.5t-41.5 -10.5l-31 -8l-35 -2l-8 -55q0 -2 -8 -41q0 -14 -6 -41zM756 72q-31 10 -86 59q-10 14 -54 49 q-41 25 -102 96q0 2 -14 33q-25 23 -47 90q-2 2 -6.5 8.5l-13.5 19.5t-19.5 46t-40.5 72h-8q0 -12 -7 -35v-41l-12 -119l-31 -198q8 -16 0 -56q0 -16 -10 -53t-30.5 -49t-79.5 -4q-20 8 -58 57q-14 6 -41 66q4 37 2 46t-2 23.5t2 18.5q-4 -4 0 41v14q0 8 13 66q0 43 1 60 t13 42v55l2 56q12 37 12 86q4 25 5 48t8 52q0 45 6 68.5t7 32.5t3 30l14 88l6 129l-24 16q-66 27 -92 54q-10 6 -7 31.5t27 41.5q29 0 84 35q6 0 37 21l37 12q6 6 51 23q10 0 32.5 11t47.5 13q20 2 82.5 11.5t105.5 -3.5q27 0 58 -10q49 0 110 -33q14 0 41 -18l39 -19 l51 -41q43 -35 78 -88q25 -25 19 -63q-29 -178 -248 -354l-60 -27l-100 -64q51 -72 133 -167q6 -14 47 -58l70 -86l24 -37l56 -61q6 -14 35 -35l34 -33q47 -37 39 -84t-57 -49l-49 4l-98 27z" />
<glyph unicode="S" horiz-adv-x="884" d="M532 -55q-14 -14 -88 -15q-51 -10 -120 17l-43 14l-64 31q-8 0 -10 -1t-10 5q-12 10 -29 16q-41 29 -57 51q-66 104 -66 175q0 8 21 30q41 49 102 49q25 -2 39 -16l67 -88q16 -16 37 -33l27 -28l41 -35q8 -4 16 -4q8 -4 45 -11q41 10 70 23q18 18 33 29l28 32q4 4 15 33 q0 27 1 36t-7 50q-2 6 -29 33q-12 25 -35 53q-12 12 -119 66l-39 22l-36 33q-27 8 -76 55q-20 14 -31 23q-12 4 -68 69q0 4 -34 78l-19 80l8 53q-12 53 -8 80q8 12 21 49q-6 31 55 121q0 12 90 99l70 36l32 15q18 2 50 6t95.5 0t80.5 -16q14 -6 82 -56q90 -80 98 -143 q35 -104 4 -223q0 -8 -57 -33l-51 2q-66 8 -125 67q-16 10 -25 58q-2 49 -20 59q-2 2 -17 37q-35 45 -46 45t-25 -6q-74 -59 -78 -133q-14 -59 37 -146q23 -33 28 -32q12 -20 47 -51l29 -31l86 -64l35 -35l39 -24q33 -14 63 -39q41 -31 101 -115q12 -18 32 -110v-80l-10 -47 q-10 -10 -22 -41q0 -2 -23 -56q-6 -10 -49 -43q-61 -49 -137 -73q-17 -4 -52 -2z" />
<glyph unicode="T" horiz-adv-x="976" d="M672 1108q-4 -37 -4 -76q0 -74 -8.5 -133t-10.5 -80.5t-6 -42.5v-14q0 -37 -16 -74l-6 -92l-9 -195v-102q0 -78 -8 -84l2 -53v-23l-2 -24q0 -8 -4 -9q4 -25 -19.5 -52t-58.5 -36l-37 -6q-8 0 -22 -1t-24.5 3t-20.5 11q-20 12 -29 47q-6 10 -24 125q0 25 -5 61l7 49v39 q0 37 8 51q-8 12 10 54q-14 18 2 81q-8 27 0 35q4 12 4 58l2 20q0 59 13 109q-4 6 0 32.5t6 63.5v14q2 31 2 66l2 18q0 12 5 49t9 78h-4q-217 -59 -266 -59l-35 -2q-31 0 -64 10q-16 8 -24 43q0 68 29.5 98.5t111.5 57.5q20 2 254 86l88 20q25 8 78 8t89 13.5t79 20.5t90 15 q23 8 82 -4q23 0 72 -47l12 -28q0 -12 6 -19q8 -55 -24 -71q-12 -6 -43 -17q-41 0 -205 -41q-8 0 -82 -12l-2 -27v-12z" />
<glyph unicode="U" horiz-adv-x="1040" d="M133 174q-8 8 -15 39t-6 57.5t-6 69.5q2 8 2.5 46t-4 76t-3.5 61.5t-1 51.5q2 14 9 50q-2 2 -2.5 52t8.5 81q0 57 10 125v35q14 88 18 124q2 45 13 74q-8 27 18 115q8 20 55 39l-2 -2q12 8 51 6t52.5 -8t48.5 -17q47 -12 24 -227q0 -20 -12 -102q0 -41 -6 -84v-39l-4 -52 q0 -18 -1 -34.5t-2 -50t-6 -52t-5 -24.5q-6 -6 -9 -35q-2 -35 -12 -84q-10 -18 8 -215q4 -61 29 -80.5t68 10.5q12 12 14 17l8 30q8 0 23 41l22 41l6 25q0 16 17.5 46t21.5 40l31 102l12 51q0 12 17 45q0 10 10 54q0 39 -2 55q2 0 3 12.5t10 40t9 68.5q0 6 19 41 q0 53 39 141q-2 -2 0 4q2 8 3 13.5t3 11.5t2 12q-6 12 2 30.5t14 39t15 41.5l49 32q10 0 27.5 3.5t80.5 -0.5q25 -8 39 -46q23 -35 6 -102q0 -14 -16 -100q0 -14 -12.5 -67.5t-17.5 -95.5t-11 -56q-4 -29 -2 -48l-12 -88q0 -33 -6.5 -98t-13.5 -101t20 -143l24 -133 q0 -31 11 -52l10 -21v-11q57 -113 -39 -131q-47 -12 -57.5 -17t-44 4t-62.5 38q-8 12 -23 74q-6 12 -14 71q-6 6 -14 47q4 8 -8 27q-14 -29 -21 -37q-14 -23 -17 -32t-16 -42l-37 -65q-43 -80 -106 -72q-2 2 -41 4q-8 8 -57 15q-8 2 -20.5 3t-33.5 3q-4 6 -30 22 q-61 23 -84 62q-18 4 -27 28q-4 12 -27 58z" />
<glyph unicode="V" horiz-adv-x="970" d="M354 938l19 -98v-47q18 -55 26 -113q33 -188 37 -217t9.5 -53.5t0.5 -28.5q2 -16 3.5 -27.5t4.5 -18.5t6 -9t7 2q12 8 35 84q25 51 33 94q4 25 18 78q14 43 27 82q14 35 20 74.5t7 45t7 19.5q20 59 20.5 91t8.5 69q0 51 29 137q0 4 12 50t31 85q33 86 119 117 q35 10 76.5 10t57 -10.5t17.5 -44.5q-4 -12 -6 -39l-64 -197l-26 -67l-25 -50q0 -4 -10 -24l-20 -68q-4 -31 -11 -41l-35 -114q-8 -8 -14 -50q-16 -55 -29 -77q-14 -41 -14 -57.5t-10 -46t-13 -33t-9.5 -28t-6.5 -48.5q-8 -4 -8 -37q-12 -27 -16 -76q-10 -18 -13 -53 q-20 -78 -53 -122t-94 -54q-61 -14 -86 0q-8 -2 -27 4q-10 0 -14 4q-14 0 -45 18q-23 8 -40 27.5t-38 46.5q-4 10 -25 41q-6 53 -16 63q-4 10 -4 15l-12 49q2 -2 4 -8q-4 59 -2 98q-8 20 0 61q0 33 -6 58q-23 57 -24 79.5t-7 71.5q0 53 -4 93l-35 196q-12 66 -10 77t1 14 t-2 13.5t-3 26.5q-14 33 -17 53q-74 180 29 201q12 4 54 4t54.5 -3t30.5 -15q47 -29 68 -230q16 -106 19 -119.5t3 -27.5z" />
<glyph unicode="W" horiz-adv-x="1351" d="M905 1231q8 -49 -4 -125q0 -23 -4 -45q-14 -61 -14 -82q0 -29 -13 -123q-4 -70 -4 -215t16.5 -249.5t32 -107.5t29.5 23q-2 10 12 53q18 109 41 193t25 109q2 14 12 77q18 66 23 138v16q8 111 8 156t-2 75l2 76q2 27 18 45q2 0 15.5 6t27 11.5t44 -2t41 -14.5t16.5 -17 t10 -17.5t8 -23.5q6 -35 12.5 -135.5t4.5 -131t-2 -75.5l-3 -29q0 -27 -10 -146.5t-18 -148.5q-4 -37 -4 -45l-6 -35q0 -6 -2.5 -12t-12.5 -48t-12 -46l-10 -45q-41 -94 -52 -107q0 -10 -40 -55l-33 -43l-17 -12q-80 -80 -178 -13l-51 37q-12 18 -33 37q-2 6 -18.5 23.5 t-28.5 37t-12 26.5t-19 46q-12 16 -22 45q-4 4 -16 45q-8 14 -13 54l-24 -95q0 -16 -15 -49l-12 -41q-82 -197 -94 -215q-37 -45 -61.5 -58t-73.5 -7q-39 2 -127 28l-33 35q-20 20 -25 49q-20 47 -27 65.5t-16 70.5v51q-4 6 -6 84q-4 33 -4 39l2 14q-12 12 -16 113l-2 14 q0 6 -2 20.5t-9 69.5l-6 107q4 20 0 53v39q0 117 17 166l8 41q0 8 4 22q6 27 14.5 54.5t12.5 61.5t14 49t32.5 37.5t39.5 29.5q37 6 47 6q23 8 75 -4q16 0 50 -17q20 -14 22 -41q4 -29 -6 -97.5t-16 -74.5q10 -10 2 -51q0 -51 -5.5 -105.5t-5.5 -68.5v-25q-2 -18 -2 -47 q-6 -33 -6 -102q-4 -47 -2 -62l-4 -41v-28q0 -25 2 -35q-4 -47 -1 -123t11 -76l68 115q8 18 31 96l73 139q23 66 27 74l14 35q10 4 15.5 26.5t14.5 55.5t11 95.5t19 94.5q0 43 22 150q4 33 4 49q20 55 43 76.5t85.5 8.5t76.5 -52z" />
<glyph unicode="X" horiz-adv-x="1038" d="M324 160q-4 -8 -4.5 -14.5t-4.5 -13.5t-6 -11q-61 -82 -96 -99.5t-80 -1.5q-23 8 -63 70q-41 80 16 166q12 35 28.5 62.5t32.5 68.5l25 43q16 49 25.5 64.5t28 38t30.5 40.5q39 72 113 152q-43 92 -56 131l-24 51q-18 14 -31 47q-86 145 -90 157.5t-25 45.5 q-43 70 -43 115t23.5 67.5t66.5 18.5q6 0 24.5 1t26 0t23 -6t25.5 -18q29 -29 53 -84l27 -41l41 -77l24 -58q53 -78 86 -149q8 14 34 50t28 40q4 8 36 55l44 39q2 2 16 31l39 53q8 4 26 20q4 16 70 103q35 25 67.5 28t60.5 -3.5t73 -38.5q31 -39 0 -119q-41 -72 -66 -97 l-59 -104l-78 -121q-35 -45 -172 -200q14 -27 94 -168l39 -78q18 -25 31 -49l61 -148q20 -31 27 -47q4 -12 27 -57q20 -76 -62 -103q-33 -12 -48 -4t-19.5 9t-7.5 2t-5 2.5t-4 1.5q-39 10 -61 40l-15 17l-18 31q-29 29 -37 49l-14 28q-18 14 -56 121q-2 2 -71 170 q-2 -4 -23 -45l-55 -106q-6 -18 -37 -60q0 -16 -61 -108z" />
<glyph unicode="Y" horiz-adv-x="935" d="M541 639q0 29 2 47q10 100 15 127t5 33v88q6 8 12 100q0 98 9 146q0 31 20 57q27 45 64 63h2q31 8 62.5 -2t35.5 -11t11 -4t10.5 -4t8.5 -4t8 -6t7 -6t6 -8q20 -41 29 -270q6 -37 6 -118t-2 -109v-21q-4 -37 -4 -55v-14q0 -39 -6 -60q0 -47 -11 -88q0 -16 -9 -52t-9 -58 q2 -10 -18 -86q4 -8 -15 -64q0 -23 -14 -52.5t-24.5 -57t-12.5 -31.5q-12 -63 -65 -137l-33 -33q4 -4 -10 -19q-12 -14 -123 -73q-2 -2 -42 -12.5t-91.5 -10.5t-98.5 16q-29 6 -51 21q-10 10 -29 20q-10 0 -59 37q-8 6 -53 76q-14 33 -15.5 36l-6.5 13t-7 47q-4 82 55 82 q61 0 115 -61q16 -16 20.5 -21.5t19.5 -19.5t24.5 -18.5t24.5 -10.5t29.5 -6t38 9t31.5 24q0 20 24 53t26 37q6 29 12 41q12 35 20 92q4 4 -8 51q0 8 -33.5 19.5t-58.5 13.5q-41 -8 -104 41q-27 20 -33 31.5t-11.5 15.5t-9.5 14q-43 72 -43 93l-8 20q0 20 -16 37q0 4 -6 74 q-14 53 -15 96v33l2 43q-4 16 2 65v78l2 31v43q2 2 2 20l3 21q0 20 2 33q0 86 90 100q70 6 94 -14q47 -41 41 -170q0 -37 -4 -62q12 -39 6 -67q4 -14 4 -29v-31q0 -8 7 -75.5t16 -92.5q0 -27 8 -51q0 -16 22 -61q18 -92 70 -86q20 4 33 69q6 6 2 35z" />
<glyph unicode="Z" horiz-adv-x="1015" d="M393 735q2 0 45 70q6 0 23 26q18 18 18 37l33 45q0 8 25 37q27 51 71 113q25 37 34 50t14.5 21.5t11.5 14.5h-17l-41 -4q-8 0 -24 -4q-160 -43 -195 -41t-57 -10q-35 0 -86 -11q-86 0 -119 39l-20 27l-29 55q-6 23 2 72q8 20 35.5 33.5t66.5 13.5q63 0 155.5 6t203.5 10 q121 0 350 37q20 2 51 -16.5t47 -40.5q12 -31 29 -53q25 -59 -37 -132l-49 -43q-2 0 -27 -40q-166 -231 -180 -246q-4 -8 -21.5 -36t-25.5 -42l-70 -84q0 -10 -18 -43l-12 -8l-62 -84l-57 -84l-37 -47l-25 -41q0 -12 -23.5 -47t-38.5 -62.5t-30 -50.5l51 8l95 25q29 0 73 18 q20 0 35 2q4 4 39 6q6 4 55.5 12.5t61.5 8.5q27 0 94 10q57 4 74 -12q47 -47 16 -123q0 -4 -16 -12q-119 -39 -142 -45q-53 -10 -88 -27q-8 0 -24 -8q-35 -16 -92 -31q-121 -35 -142.5 -42t-84 -24.5t-103.5 -21.5t-103 39q-16 10 -20 18l-25 37q-51 72 -6 142q0 4 11 20 l51 121l8 39q0 8 22 35q8 18 20.5 36.5t12.5 20.5q27 41 51 61l27 41l27 33q0 16 55 76q4 10 35 51z" />
<glyph unicode="[" horiz-adv-x="579" d="M197 1096q0 12 12 98v23l2 63q0 31 6 41v2q-6 6 -6 68q6 10 6 45q29 14 63.5 14t66.5 7t104 7l182 -10l24 -4q41 0 70 -21.5t28 -35t-2 -25.5t-3 -16q-6 -14 -35 -19l-23 -6q-23 0 -47 -8q-23 0 -39 -8t-57 -8l-31 -5q-33 -10 -94 -8q-4 -4 -16 -8l-7 -37l-18 -172 l-16 -278l-11 -56q0 -27 2 -30v-37l-6 -74q2 -4 2 -30.5t-4 -35.5l-4 -155q0 -59 3 -76.5t3 -30.5v-47l4 -78v-30q4 -37 4 -60l11 -106q12 -78 8 -105q23 2 72 2l182 -10l24 -4q41 0 70 -21.5t28 -35t-2 -25.5t-3 -16q-6 -14 -35 -19l-23 -6q-23 0 -47 -8q-23 0 -39 -8 t-57 -8l-31 -4q-33 -10 -94 -9q-12 -12 -32.5 -10t-26.5 -2q-18 -12 -72 -12q-14 0 -55 28l-21 29q-6 6 -6 68q6 10 6 28.5t2 18.5h-10q-14 16 -23 45q-16 8 -12 39l-14 57q0 25 -4 45l2 17q-6 6 -6 18l-5 37v16q0 16 -1 22.5t6 20.5q-6 8 0 80q8 254 8 320l2 49v59 q2 49 2 125t4 82v47z" />
<glyph unicode="\" horiz-adv-x="571" d="M631 -211l10 -41q0 -61 -34 -98t-62 -37q-47 0 -77 64.5t-36 129.5l-6 64q0 2 -9 31.5t-9 46.5q-49 207 -51.5 228.5t-12.5 54t-17.5 50t-7.5 19.5q-14 8 -69 191q0 14 -35 90q-72 209 -79 226t-13 40q-2 4 -103 260q-43 76 -43 111l25 51q14 18 44 18t67 -26l47 -33 q4 -4 13 -22.5t11 -20.5q45 -150 64 -191q29 -61 80 -174q115 -303 179 -517t91 -290q37 -166 37 -184z" />
<glyph unicode="]" horiz-adv-x="616" d="M463 37q0 -12 -12 -98v-23l-2 -63q0 -33 -7 -41h-2q8 -8 9 -70q-6 -8 -7 -45q-29 -14 -63.5 -14t-66 -7.5t-103.5 -7.5l-182 10l-25 5q-41 0 -69.5 21.5t-27.5 34.5t2 25.5t3 18.5q6 12 35 16l22 6q23 0 47 9q23 0 39.5 8t57.5 8l30 4q33 10 95 8q2 4 14 8l8 37l18 172 l17 279l10 55q0 27 -2 31v37l6 74q-2 4 -2 30.5t4 34.5l4 154q0 61 -6 92v63l-4 78v31q-4 37 -4 59l-10 107l-8 55q-6 25 0 49q-23 -2 -72 -2l-182 10l-25 4q-41 0 -69.5 21.5t-27.5 35t2 26t3 18.5q6 12 35 16l22 6q23 0 47 9q23 0 39.5 8t57.5 8l30 4q33 10 95 8 q12 12 32.5 10t26.5 3q18 12 72 12q14 0 55 -29l20 -29q6 -6 7 -67q-6 -8 -7 -45l-2 -2h11q14 -16 22 -45q16 -8 12 -39l15 -58q0 -25 4 -45l-2 -16q6 -6 6 -18l4 -37v-17q0 -16 1 -22t-5 -21q6 -8 0 -80q-8 -254 -8 -319l-2 -49v-60q-2 -49 -2 -124.5t-4 -81.5v-48z" />
<glyph unicode="^" horiz-adv-x="987" d="M834 901q0 -14 -13 -27q4 -4 -7 -38.5t-11 -40.5q-14 -16 -68 -56q-14 -18 -14 -26q-14 -10 -24.5 -5t-18.5 35q-14 29 -14 31q-25 35 -31 39q-66 109 -55 127q-12 10 -21 14q-18 14 -31 39q6 2 -17.5 49.5t-33.5 55.5q-12 53 -18 55t-20.5 -15.5t-30.5 -62.5 q-6 -4 -35 -49q-4 -18 -20.5 -43t-24 -39t-17.5 -29q4 -25 -30 -45q-10 -31 -27 -47l-33 -10h-35l-47 2q0 8 2 35l19 55q31 25 30 39q0 35 31 51q18 43 19 47q-8 10 24 35q2 2 5 14.5t9.5 23.5t29 41t28.5 42q39 33 39 39q2 25 49 73t82 75.5t65 13.5l21 -27q0 -2 4 -8 q10 -10 -2 -23q2 -4 8 -8q12 -8 21 -16q20 -43 34 -55q4 -6 4 -14.5t-4 -18.5q0 -18 31 -29q16 -27 2 -35q0 -2 16.5 -22.5t22.5 -42.5q29 -23 35 -45.5t10 -26.5t10 -18.5t4 -16.5q20 -18 25 -24q10 -25 18 -29q-11 -19 5 -39z" />
<glyph unicode="_" horiz-adv-x="1310" d="M94 -113q39 16 85 16.5t73 4.5h2q66 12 147 12l656 -12l35 -4q53 0 91 -29t37 -44t-3.5 -33.5t-4.5 -26.5q-6 -18 -45 -27l-32 -6q-37 0 -62 -8l-358 -19q-72 -14 -183.5 -20t-156.5 -4q-25 -10 -51.5 -9.5t-32.5 -5.5q-20 -12 -96 -12q-18 0 -72 35l-29 39q-4 4 -2 33 q-8 14 -8 63q10 14 10 57z" />
<glyph unicode="`" horiz-adv-x="641" d="M219 1346l33 2q96 -33 160 -115q33 -47 32 -53q59 -72 70 -105q12 -51 -13.5 -76.5t-51.5 -25.5q-80 12 -121 96q-23 20 -66 66q-39 41 -65 61q-39 29 -41 35q-43 14 -27 35q43 57 90 80z" />
<glyph unicode="a" horiz-adv-x="882" d="M487 588q-2 45 -20 68.5t-68 27.5q-14 -10 -37.5 -68.5t-29.5 -123.5q-20 -98 -21 -197q2 -100 33 -148q4 -8 8 -6q10 0 33 41q108 197 102 406zM551 197l-31 -80q0 -4 -59 -88q-18 -39 -68.5 -43t-97.5 10q-63 23 -96 53.5t-65 103t-34 119.5q-10 68 -10 86v50 q0 74 6 86q2 8 10 43q10 86 50 163q76 150 155 154h11q4 -2 12 -2h26q72 -6 89 -12q31 -8 53 -9l53 -10q25 2 64.5 -10t43 -18.5t11.5 -45t11 -56t5 -36.5q16 -150 53 -278q2 -6 4.5 -18.5t14.5 -48.5t18 -60.5t23 -65.5q12 -31 37 -71q45 -63 -47 -99q-12 -4 -43 -4 q-6 0 -39 21q-20 0 -39 22l-17 4q-14 14 -24 15q-4 4 -74 166q-6 -23 -6 -41z" />
<glyph unicode="b" horiz-adv-x="884" d="M555 643l-6 2q4 -2 6 -2zM297 119v-19q47 -63 49 -63q10 0 47 12q2 0 21.5 19.5t27.5 25.5q25 14 33 19q0 16 14.5 33.5t25.5 35t15 25.5q12 16 9 16q4 8 12 35l20 47l23 103q4 14 -10 90v18q-4 6 -4 12v2l-2 21q0 10 -7 35q-4 18 -24 59h-23q-37 -18 -55 -39 q-23 -29 -57.5 -102.5t-46.5 -132.5l-13 -49q-27 -55 -35 -127l-10 -29zM764 707q41 -88 41 -148q0 -119 -21 -180q0 -23 -4 -35q-18 -135 -47 -201q-10 -14 -22 -45q-12 -35 -62 -80q0 -6 -30.5 -37.5t-96.5 -52.5q-76 -25 -98 -24q-117 -18 -170 35l-2 -2q-41 -72 -98 -43 q-35 18 -40 24t-8 27q-14 37 -10 86l10 67q-6 35 -2 62v14q4 41 6.5 156.5t7.5 141.5t5 48q25 281 28 300.5t3 131.5v113q0 33 -1 49t7 23q-16 47 -6 106v25q-4 39 16 73q14 18 57 35t72 19h10q27 0 47 -15q25 -10 25 -49q4 -12 0 -26q2 -14 -19.5 -290t-21.5 -301.5 t-1 -32.5t-1 -9q10 4 12 14t8 14q35 25 35 35q0 2 10.5 10.5t12.5 8.5q4 6 14 8l37 18q2 12 59.5 11.5t69.5 -9.5q20 -10 27.5 -13t14.5 -4t56 -17q23 0 23 -7q8 -4 12 -4q35 -20 35 -30z" />
<glyph unicode="c" horiz-adv-x="737" d="M145 684q0 27 27 45v4q0 14 32 51t36 45q45 27 59 31q16 -4 23 -4h4q59 14 136 -4t107 -66q16 -31 33 -81q25 -72 25 -105q12 -53 2 -98l-2 -21q0 -8 -10.5 -16t-23.5 -7t-23.5 -10.5t-42 -11.5t-33.5 19q-6 2 -19.5 14t-13.5 18l-10 15q0 4 -9 12q-18 37 -14 57 q10 53 6 58q0 31 -20 61q-2 2 -7.5 3t-13.5 3q-4 14 -8 15q-14 -4 -31 -23q-29 -80 -35 -106l-12 -125v-95q4 -74 17 -90q0 -8 8 -28q2 -27 43 -94l10 -13q10 -29 34.5 -28.5t69.5 57.5q-2 6 27 49q29 39 90 31q27 -4 27 -31q2 -18 -12 -92q-20 -20 -21 -41q-14 -37 -14 -41 q-6 0 -13 -6l-10 -21q-8 0 -10 -8q-23 -27 -31 -26q-6 -6 -33 -7q-39 -16 -57 -16l-35 -2l-22 8l-19 2q-25 10 -38 9t-19 2.5t-16 11.5q-25 20 -32 20t-24 12q-16 4 -26 15l-8 20q4 14 -5 17q-27 0 -30 10l-13 16q0 16 -16 43l-25 74q-4 4 0 14v37l-24 160v29q18 68 18 69 q-2 45 21 80q-1 39 26 80z" />
<glyph unicode="d" horiz-adv-x="892" d="M508 520l-4 31q-6 8 -7 21.5t-8 41.5q0 37 -18 66q-6 16 -49 10q-29 -29 -68 -162q0 -2 -6 -16q-8 -18 -16 -60t-10 -49q-4 -12 -5 -22q-4 -8 -4 -27l-8 -39q-8 -12 -4 -30v-29q2 -6 -2 -35v-28l4 -70q0 -25 41 -80q16 -4 21 2q41 41 45 84l6 27q10 10 16 61l10 35 q0 18 8.5 38.5t10.5 31.5q0 16 26 81q-2 6 -2 13v14q23 88 23 90zM768 1182q0 -72 -8 -88l-15 -133v-70q-2 -35 -2 -104.5t3.5 -115.5t-5.5 -77q4 -4 4 -14l3 -17l-3 -47v-86q2 -23 3 -78q4 -47 4 -75.5t6 -57.5v-26l8 -84v-70q4 -14 4 -27.5t9 -45.5t7 -58 q-57 -68 -145 -33q-18 2 -37.5 20.5t-23.5 36.5l-2 41q-10 2 -13 35q-8 12 -6 21q6 10 -10 34l-23 -38q-10 -16 -22 -21l-8 -24q-29 -31 -43 -52l-25 -24q-49 -10 -135 8q-20 0 -33 4h-14q-4 -4 -45 18q-35 14 -37 27l12 -2q-29 12 -20 39q-25 10 -31 45l-19 70q-4 27 3 57 q-4 8 10 55l-6 19l-4 37q-6 8 2 36l-13 21q0 82 6 100l2 27q-10 16 7 70l28 94q0 4 6 37q10 51 25 65l37 62q10 10 22 30q20 37 86 37q68 10 218 -16v71l-7 86q0 61 -3 112.5t1 82.5q2 2 20.5 84t61.5 123q14 8 52 10t46.5 -4t22.5 -10q57 -16 57 -105z" />
<glyph unicode="e" d="M506 655q8 31 -2 78q-14 12 -39 12q-31 0 -55 -57q-33 -49 -50 -108h-2q-23 -86 -22 -93q33 -8 53.5 -7t46.5 22q47 44 70 153zM500 360l-76 -6q-63 0 -100 13l6 -39q6 -170 94 -224q25 -10 41 -10t43 17q8 8 14 22q2 18 21 17q84 106 127 83q43 -29 43 -45q0 -8 -11 -18 v-12q0 -20 -25.5 -73.5t-53.5 -90.5q-14 -31 -37 -43q-66 -41 -140 -33q-16 2 -22 8q-16 4 -25 2l-16 2q-18 0 -31 9q-20 12 -28 12q-53 20 -64.5 30.5t-20 14.5t-38.5 43q-27 23 -31 29q-12 18 -21.5 26t-11.5 37q-8 10 -8 27l-8 16q0 14 -12 23q-12 12 -13 30v17 q-8 4 -4 24v54l-2 18v14q-2 8 4 35l-2 19q2 2 6 32q8 43 19 54v18q2 6 2 16.5t5 22.5t32 92l32 72q14 31 45 67q2 10 17 37l26 25q12 18 37 26q29 14 43 15l58 8q10 -2 14 -2h27q45 -4 73 -19q61 -18 90 -47q63 -72 63.5 -137t-19.5 -113q-51 -117 -74 -147q-37 -68 -88 -68 z" />
<glyph unicode="f" horiz-adv-x="669" d="M125 711l-21 2h-24q-57 0 -68 14q-23 39 -4 78q12 31 41 36t49 11q10 0 50 6t47 12v17q0 12 18 61q0 10 8 31q6 20 15 57l28 99q0 8 15 30q-4 6 3 22.5t7 26.5l12 33l18 27q0 16 13 41q12 12 16 22q104 70 119 72h57q47 0 66 2q68 -4 110 -25l21 -6q84 -70 76 -139 q0 -14 -21.5 -34.5t-48.5 -24.5q-55 0 -106.5 22.5t-79 22.5t-45.5 -33q-20 -47 -45 -190q-27 -127 -23 -132h18q20 -4 43 -4l72 -10q37 0 95.5 -21.5t49 -63.5t-56.5 -46q-133 6 -215 -20q-16 -6 -16 -101l-8 -184q0 -31 -4 -33q-10 -8 2 -29q-2 -4 -3.5 -31.5t1.5 -37.5 q-4 -8 -2 -74.5t4 -85.5q-4 0 0 -29v-30q0 -86 -2 -103q-8 -76 -95 -90q-43 -6 -71.5 9.5t-38.5 33.5q-14 27 -33 88v23l-4 35q0 14 4 34q-4 20 -4 27v53q2 33 -2 76v47q0 14 4 80q-2 29 -2 57q6 125 2 164q4 12 4 29v29q4 12 4 22t-4 25q-29 4 -45 0z" />
<glyph unicode="g" horiz-adv-x="821" d="M330 399l4 -80l14 -38l21 -41q6 -43 41 -52q25 -4 47 27q12 10 18 14q12 10 12 46t7 59q-2 10 3 72.5t10 96.5t3 46q-14 18 -27 76q-41 41 -55 45q-45 16 -55 4q-14 -14 -31 -135q-12 -20 -11 -52t-1 -49v-39zM711 455q8 -102 8 -160l2 -27l-4 -125q0 -29 -2 -53v-33 l-8 -53v-20q0 -76 -70 -215q-25 -51 -76 -105q-86 -92 -211 -96q-104 0 -153 43l-21 10q-25 12 -55 78q0 6 -10 27q0 29 12 45q8 16 55 28q20 4 76 -41q41 -45 96 -47q57 -8 88 53.5t47 163.5q8 39 8.5 88.5t-4.5 65.5q-55 -29 -98 -25h-18q-16 -4 -49 1t-62 26l-39 27 q2 -2 -2 -2l-10 6l-29 22q-18 10 -18 39q-14 8 -21 21q-16 6 -16 28l-10 41q0 10 -11 51q-10 16 -5 33t5 27l7 69v15q-6 6 0 39q6 12 6 18q12 66 18 83t9.5 40t15.5 41l20 47q12 23 66 64q20 20 51 26l57 -4l60 -14q2 0 76 -31q0 39 38 66q16 16 72 2h19q23 2 49 -19 q12 -14 26 -65q15 -190 15 -299z" />
<glyph unicode="h" horiz-adv-x="872" d="M340 797l-23 -279l13 29q8 18 59 86q0 6 64 108l34 41l19 29q39 31 65 31q55 8 119 -33q14 -2 37 -31q35 -27 31 -76q0 -4 -2 -12q-39 -319 -41 -447t20 -214q16 -72 -53 -101q-18 -12 -57 -4q-35 0 -52.5 9.5t-35.5 41.5l-11 41q-8 16 -8 45l-8 60q2 4 2 53l2 53 q-6 29 2 113l4 88v51q2 6 -12 29q-53 -41 -119 -275l-53 -163q-37 -131 -80 -142l-23 -4q-29 0 -77 17q-39 43 -39 86q4 8 2 18q-6 27 4 74q-2 6 -2 16l2 31q-4 10 -8 58t0 73q-4 8 12 55q-16 25 -18 56q-8 84 -5.5 125.5t2.5 78.5q-4 37 -2 88l15 166l14 119q0 14 -9 44 t-5 71t9 52t15 60q0 41 9 62l12 37q2 14 53 47h23q80 -6 116 -27q16 -10 9 -71q-4 -86 -6.5 -106.5t-10.5 -178.5t-8 -178z" />
<glyph unicode="i" horiz-adv-x="464" d="M205 1284q137 0 192 -55q0 -35 -47 -142q-8 -35 -26 -55l-27 -26q-10 -6 -21 -7q-74 -18 -114 29q-8 12 -19.5 18.5t-17.5 36.5q-18 27 -19 41q-4 127 93 160h6zM188 801q20 10 97 -21q8 -8 24 -16l33 -27q8 -8 8 -26v-181q0 -41 -4 -73v-13q-6 -84 10 -378 q6 -57 -26 -70q-35 0 -45 10q-8 4 -15 4h-14l-12 -4q-6 0 -22.5 9.5t-21.5 19.5t-18 12q-23 8 -24 31q-29 55 -30 65.5t-7 22.5l-10 178q0 31 4 47v49q2 23 4 83.5t6 97.5q-4 53 -4 71.5t2 26.5q-23 23 2 61q27 20 51 21h12z" />
<glyph unicode="j" horiz-adv-x="481" d="M307.5 1327q20.5 0 78.5 -17.5t58 -37.5q0 -2 -8 -19q-12 -12 -14 -55t-5 -52t-8.5 -34t-13.5 -47q-4 -37 -65 -86q-27 -23 -35 -23q-18 0 -19 15q-27 8 -36 33q-14 20 -19 22l-51 10q-14 14 -31 68q0 35 18.5 90t55.5 98q6 18 40 26.5t54.5 8.5zM127 510q-4 4 -7 31.5 t-5 43t-4 38.5v67q0 33 34 66q57 29 87 28.5t75 -24.5l35 -17q10 -27 18 -165v-62q0 -512 -77 -752l-4 -30q-16 -51 -60 -123l-8 -17q-10 -23 -76 -69q-31 -29 -84 -25q-100 0 -135 27q-8 6 -18 14q-14 14 -52 29q-8 8 -16 30.5t-12 31t-13 40.5l13 54q18 47 50 47t38 -31 q0 -18 8 -35q31 -39 63 -43q39 4 72 70q14 14 14 23.5t15 33.5q23 23 31 88q0 2 -3 6q0 6 15 41q14 14 14 47l19 136l2 63l-23 258q0 23 -6 53v27z" />
<glyph unicode="k" horiz-adv-x="851" d="M131 760l-6 26q0 2 1 17.5t-3 38.5q0 51 -2 76q-6 8 -6 79q-6 72 2 138q0 20 22 108q23 45 23 51q10 20 41 49l41 21q31 12 106 -6l45 -10q0 -35 -8 -88q-2 -57 -16 -162q-29 -209 -29 -453l8 -33q59 45 107.5 92.5t62.5 55.5q2 2 47 39q53 43 60 53q39 51 94 78 q37 0 65 -19q33 -29 33 -49t-5 -31.5t-17.5 -28t-22.5 -36.5q-27 -47 -110 -131q-57 -61 -89 -88q-18 -20 -90 -68q2 -4 9.5 -15t15.5 -28q86 -94 147 -127q25 -25 52 -30q0 -2 22 -17l12 -4q45 -23 60 -22q66 -12 65.5 -44t-32.5 -49q0 -4 -62 -41q-8 2 -35 -12 q-76 -25 -174 21q-55 25 -92 77l-47 37q-2 6 -70 78l9 -63l10 -62q0 -66 8 -104.5t-15.5 -55t-84 -18.5t-90.5 29q-8 6 -15.5 52t-13.5 64q-41 125 -33 215l-2 62q2 8 2 47q20 113 0 291z" />
<glyph unicode="l" horiz-adv-x="491" d="M160 1096l14 121l2 63q0 27 10 41l21 29q55 43 71.5 49t48 -1t38.5 -14l22 -18q18 -10 19 -33q10 -12 6 -18q-12 -14 -41 -242l-17 -278l-10 -56q0 -27 2 -30v-37q-4 -41 -8 -51q0 -10 -4 -23q4 -4 4 -31.5t-6 -34.5q-4 -33 -4 -62.5t5 -61t3 -62.5l8 -78v-30 q4 -37 4 -60l10 -106l9 -56q6 -35 -5.5 -67.5t-33.5 -40.5q-63 -27 -140 35h-16q-14 16 -22 45q-16 8 -14.5 28.5t-8.5 37t-10 28.5q0 27 -4 47l2 16q-6 6 -6 19l-5 37v16q0 16 -1 22.5t6 20.5q-6 8 -3 59q12 158 13 218l2 49v59q2 49 3 125t7 82l-2 18q0 49 15.5 134.5 t15.5 91.5z" />
<glyph unicode="m" horiz-adv-x="1204" d="M195 846h4q27 8 86 -6q20 -6 24 -117q8 -84 8 -116t2 -38v-137l11 -2q0 2 4 25q10 57 22 88q8 8 9.5 20t11.5 27q12 57 61 149q16 39 31.5 58.5t47.5 13.5t52 -23q16 -2 39 -6l60 -12q8 -2 22.5 -13.5t12 -27.5t-4.5 -96v-33l-8 -80q0 -33 4 -39l8 -6l17 94q0 14 12 27 l25 59q0 6 12 27q4 14 19.5 41t39.5 51q0 16 37 23q29 31 94 2q12 0 23 -4q0 -4 15.5 -6.5t37.5 -26.5v-23q0 -20 2 -30q-2 -14 2 -37v-25q2 -16 11 -102v-23q6 -12 5 -25.5t-1 -27.5q6 -6 10 -33.5t-4 -54.5l4 -19v-57q10 -8 10 -24l6 -35q0 -37 11 -74v-22l10 -54v-12 l-2 -21q0 -23 -25 -32q-4 -2 -11 -6.5t-24 -4.5l-43 15l-20 14q-16 -4 -43 14q0 18 -14 33q-25 8 -19 33q2 2 -10 23q4 4 -6 45q0 18 -3 35.5t-4.5 36t-7.5 32.5q2 0 2 14.5t-4 26.5v47l-10 82l-31 -94q-31 -80 -30 -86l-66 -205q-6 -12 -23.5 -27.5t-29.5 -15.5 q-4 6 -21.5 6t-42.5 -10q-70 -8 -80 43l-4 47l2 47q-4 6 -4 29l-2 28v89l-4 104v100q-59 -162 -74 -211l-75 -243q-23 -59 -82 -64l-23 -4q-45 -10 -59 14l-21 35q-8 45 -16 51q-4 29 -20 60l-11 49q0 6 -4 18v37q-6 16 -10 66.5t-2 81.5q-8 25 -4 61v37q-10 47 -10 143v29 q10 61 10 83t10.5 33t65.5 44z" />
<glyph unicode="n" horiz-adv-x="909" d="M573 76l-12 35l-22 137q-10 39 -11 69l9 91q0 23 2 24q-25 0 -74 -59q-4 -6 -12 -21q-86 -137 -103 -329q-16 -35 -43 -35q-55 12 -61 12l-15 -2h-26q-47 4 -62 37q-8 10 -8 53v29l-6 112v168q0 29 -4 72q-4 47 -2 148.5t-2 108.5t-4 19.5t6 24.5t55 27q27 16 45 16 q29 -6 74 -25q31 -6 31 -59q4 -88 1 -127t1 -158q152 291 270 351q10 10 30.5 10t47.5 -20.5t37 -26.5t23.5 -20.5t21.5 -18.5q25 -41 10 -193q-2 -23 -4 -40t-2 -74.5t2 -79.5q6 -72 6 -84l10 -78q20 -47 21.5 -72.5t36.5 -81.5q14 -31 -13 -49q-41 -20 -44 -17t-23.5 -4 t-73.5 -3q-27 6 -53 32l-31 31q-16 25 -22 53q-11 11 -7 17z" />
<glyph unicode="o" horiz-adv-x="784" d="M467 604q-14 82 -80 76q-37 -2 -63 -49q-37 -72 -32 -185.5t16 -164t40 -86.5q16 -29 49 -27q57 0 84 96l17 49q10 10 4 21q20 51 22 121q-20 14 -24 26q-12 35 -13 47q-14 10 -16 39t-4 37zM92 412l8 104q14 141 86 242q70 84 197 86h12q119 0 172 -51q57 -45 85 -98.5 t36 -78t10 -71.5q4 -88 -34 -101q29 -195 -35 -309q-20 -47 -60 -102q-29 -37 -102 -41q-74 0 -128 8t-119.5 52t-92.5 145q-29 96 -35 215z" />
<glyph unicode="p" horiz-adv-x="892" d="M592 602q10 80 6 86q-10 -4 -25 -22l-67 -76q-106 -133 -107 -158q0 -4 -14 -33l2 -32l-4 -88v-23q0 -88 6 -127q2 6 35 27l35 47q53 66 67 94q45 137 45 156q0 29 17 82q0 18 4 43v24zM154 635l8 94q6 16 2 43l14 84q0 18 -2 40t2 30q8 16 43 28h-8q20 12 57 2t62 -18 q14 -18 37 -41l2 -66q0 -51 6 -106q-2 -23 0 -29l35 37q2 4 46 45t56 51q0 10 25 17q53 12 90 1t41 -11l75 -33q0 -8 21 -15l18 -10q10 0 27 -14q25 -4 18 -35q0 -8 7 -16v-49q0 -33 -19.5 -116t-25 -97.5t-12.5 -37t-15 -42.5q-10 -35 -41 -95.5t-61 -95.5 q-72 -100 -160 -160q-96 -37 -121 -43q-6 0 0 -73v-148l6 -90l2 -92q4 -68 -4 -76l-25 -20q-27 -10 -47 -2q-41 12 -49 18q-8 0 -26 17l-23 8q-29 -4 -35 14q-20 16 -20 29l-31 45q-12 31 -12 57q-12 45 -8 70l-5 78v108q0 55 -4 72q-4 12 4 217q6 41 7 51l30 252l6 70v16 q7 25 7 37z" />
<glyph unicode="q" horiz-adv-x="897" d="M502 668l-13 2q-23 10 -36 0l-56 -33q-86 -96 -104 -160q-4 -18 -17 -112q-4 -86 15 -129q0 -10 18 -19q27 6 62 55l22 41q41 57 44 64.5t16 19.5l8 29q0 2 8 10q14 35 39 94q0 18 16 52q14 16 11 67l-11 8q-14 1 -22 11zM305 819q20 -2 38.5 4t53.5 6q61 -4 91 -14 t30 -12l51 -31q16 -14 29 -4q33 25 64 16q27 0 45 -28q25 -20 35 -29.5t8 -29t-2 -195.5q4 -117 -1.5 -136.5t1.5 -109.5q6 -37 6 -53.5t-2 -30.5l2 -82q-8 -92 2 -182l2 -66l30 15q59 23 99 -93q-16 -33 -23 -43q-2 -2 -35 -67q0 -8 -12 -25q-37 -47 -89 -49t-89 12 q-10 0 -14 11l-31 53v4l-2 18q-14 4 -17 23q-2 6 -2 12v11q-18 51 -12 71q10 39 -5 70t-15 54.5t7 43t3 37.5v23l-6 59q-23 37 -2 90v37l2 29v12l-17 -31l-86 -123q-18 -18 -24 -22q-6 -2 -43 2t-49 12q-8 0 -43 10q-27 0 -47.5 11.5t-26.5 13.5q-10 4 -43 22q-27 0 -49 50 l-11 18q-14 12 -14 35q-8 8 -10 43q-6 6 -2 24q-4 33 -4 118t26 185q0 35 48 89l8 10q6 20 45 47q14 16 61 35z" />
<glyph unicode="r" horiz-adv-x="696" d="M106 604q0 18 -4 43v15q2 14 -2 30q0 20 4 37q0 41 11 53q0 10 28 47q8 8 31 27q33 10 45 12q8 8 55 -6q20 -2 64 -14q14 -4 37 -33q-4 -8 -13.5 -60.5t-7.5 -84.5q12 10 43 42.5t33 35.5q53 25 105 34q74 6 96 -10q18 -6 28 -18q18 -16 30.5 -56.5t-1.5 -50.5 q-12 -10 -82 -16q-4 0 -28 -17l-107 -84q-33 -16 -45 -28l-39 -72q-2 -4 -4 -53t0 -70.5t0 -138.5v-88q0 -72 -2 -83t-16 -40q-6 -10 -39 -10q-80 -59 -103 6l-26 16q-16 8 -21 21q-16 23 -16 26l-8 29l-13 25q-6 2 -10 78.5t-4 94t-4 38.5q14 14 13 49t-5 54t0 24.5 t-2 56.5q-6 8 -2 31z" />
<glyph unicode="s" horiz-adv-x="696" d="M160 795q55 68 151 71q158 6 235 -77.5t82 -165.5t-42 -88q-68 -2 -88 18q-18 -2 -47 27q-12 6 -33 47l-23 51q-16 37 -41 41q-31 -12 -30 -62q8 -96 92 -184l3 -5t30 -34q162 -178 167 -287q0 -70 -28 -92q-88 -104 -229.5 -108t-233.5 88q-25 25 -25 47q-12 39 -8 51 q-6 57 0 86q12 66 96 68q31 0 39 -37q27 -104 50.5 -137t76.5 -31q68 4 65 75.5t-69 133.5q-20 25 -39.5 38t-25.5 19q-2 6 -11 12q-41 33 -103 109t-67 141q-7 117 56 185z" />
<glyph unicode="t" horiz-adv-x="714" d="M233 723l3 18q-43 4 -60.5 7.5t-56.5 7.5t-62 12q-43 14 -49 74.5t39 75.5q41 10 57.5 10t61.5 4q23 12 61 14l31 8q0 -2 16 4l11 43q0 33 18 66q0 14 27 80q0 8 37 119q8 10 61 47q33 16 92 -23q33 -14 45 -39q-12 -12 -12 -57q-2 -14 -29 -152v-57q16 -2 54 -10t92 -19 q102 -20 129 -82q10 -45 -4.5 -63t-69.5 -27q-45 -2 -117.5 -2t-107.5 -10q-4 -37 -4 -57l-2 -31q0 -14 -19 -152q-12 -18 -20 -190v-149q0 -37 6 -70q2 -45 10 -64q0 -18 10 -77q-25 -59 -81 -59.5t-99 40.5l-22 33q-6 16 -9.5 22.5t-5.5 14.5q-14 41 -22 51 q-12 16 -12.5 24.5t-0.5 20.5q-4 35 -10 59q-10 10 -10 70q4 109 0 125q6 6 2 78l6 45q0 8 8 61q-4 8 -2 44t6 51q4 24 4 61z" />
<glyph unicode="u" horiz-adv-x="899" d="M750 567l2 -39q0 -6 12 -129v-24q0 -49 16 -148q0 -43 43 -149q10 -6 15 -29l-2 -20q4 -10 -11 -23q0 -14 -38.5 -14t-49 -4t-32.5 4q-8 -4 -50 16q-18 4 -28 37l-17 39q0 37 -20 66q0 10 -9.5 36.5t-13.5 28.5q-20 -82 -51 -127q0 -10 -12 -25l-21 -38q0 -4 -18 -23 q-12 -27 -55 -27q-39 0 -95 21q-14 2 -57 18q-12 -2 -37.5 7.5t-30.5 9.5q-6 6 -28 20l-35 37q-2 2 -7 19.5t-3 24.5t0 21.5t2 28.5q0 41 8 90q-2 6 -2 14.5t8 30.5q-2 10 -2 15l10 80q0 29 2 41v30q2 8 2 23l11 98q0 23 2 29v20q4 4 4 33l18 57l15 25q2 8 22 18 q33 20 94 21q25 -4 54 -21q6 2 28 -8q41 -18 4 -104q-8 -55 -8 -58q-8 -16 -8 -26q-12 -66 -12 -70q8 8 -7 -24l-8 -76q-14 -49 -12 -109l-8 -26q2 -10 -2 -64q4 -6 4 -14l2 -17q-2 -6 2 -11t23.5 -4t33.5 9q29 35 39 73t10 44q35 88 43 102q10 55 35 127q-4 10 0 41l27 109 q18 31 18 38t25 56q0 8 12 33q14 23 51 43h7q45 4 77 -12q4 -8 4 -29q4 -20 9 -74v-20l-9 -45q17 -52 5 -103z" />
<glyph unicode="v" horiz-adv-x="792" d="M373 221l26 154q0 12 3.5 19t3.5 20q2 16 10 53q0 16 8 27q4 33 51 129q8 29 27 49q0 12 12 28l25 43q0 4 14 31q12 6 16 21.5t25 44.5q6 18 47 34h33l45 -14l31 -20q10 -10 14 -29q4 4 4 0q-2 -18 -25 -92q-20 -68 -28 -95.5t-19 -56.5q0 -2 -16 -58t-29 -77l-39 -143 q-23 -53 -28 -94q-45 -201 -45 -209.5t-17 -51.5q-4 -33 -71 -32q-10 10 -27 18q-6 -8 -55 -2q-88 -10 -150 25q-14 25 -24 77q-27 45 -29 72l-21 37q0 27 -9 49.5t-11 44.5q-6 14 -6 33q-4 16 -4 35q-8 39 -6 81t-5 101q0 35 -2 43l2 53q0 39 2 47q-8 33 -8 58l-2 39 q0 25 -4 47t4 45q14 16 31 26q25 20 74 3l51 -23l18 -14q4 -4 -2 -21l11 -98q0 -47 12 -120t16 -121t15.5 -133t13.5 -105q0 -39 8 -43q19 30 29 65z" />
<glyph unicode="w" horiz-adv-x="1079" d="M334 582l-2 -86v-66l4 -78q0 -86 20 -188l11 -19q0 23 7 39.5t7 38.5l29 107q0 6 10 26q8 20 25.5 76.5t21.5 98.5t8 59q4 16 -2 45l10 84q0 29 9 41q86 12 112 14q0 -12 14 -33q0 -8 15 -36l8 -37q12 -29 31 -252q2 -72 39 -199q10 16 8 39q12 12 12 66l21 55l39 211 l8 90l16 63q4 27 17.5 38.5t44.5 8.5h51q14 -10 39 -10l24 -6q-2 -25 -4 -55q-2 -25 -16 -113q-25 -293 -37 -352q0 -14 -6 -23q-2 -29 -29 -139q0 -16 -43 -59q-14 -25 -43 -31q-10 -10 -39 -12q-29 -4 -59.5 7t-34.5 17q-20 18 -51 27l-31 12q-25 27 -29 31q-8 12 -14 59 q-4 2 -10 56q-25 -90 -25 -101q-10 -35 -13 -40t-4 -14t-5 -17q0 -12 -13.5 -26.5t-50.5 -23.5q-37 -10 -96 -2l-25 -2q-14 0 -30 4q-25 16 -35 41q-25 35 -43 76q-12 12 -33 82q-18 43 -18 49v19q-8 8 -17.5 49t-5.5 61q-6 8 -6 43q-4 20 -4 66q-6 76 -15 98q2 27 -16 74 q-16 92 -10 106q-6 16 10 52q0 10 51 57q27 8 43.5 -1t36.5 -11l72 -21q59 -16 49 -137l-8 -80v-8v-8z" />
<glyph unicode="x" horiz-adv-x="829" d="M578 252l8 -41l55 -100q0 -4 11.5 -24.5t16.5 -27t15 -22.5q6 -8 27 -33q41 -31 2 -74q-70 -72 -148 -4q-45 35 -78 90q-12 16 -43 66l-47 100l-14 23q0 2 -4 13t-6 22q-10 2 -17 16q-10 -14 -69.5 -99t-65.5 -94q-10 -12 -16 -24t-16.5 -30.5t-15.5 -26t-15.5 -20.5 t-18.5 -15t-20 -4q-23 -4 -58 30q-18 25 -18 76q4 23 11 39t12 39q41 115 58 134.5t25.5 45t18.5 45.5q27 45 65 121l-43 109q-16 29 -22 57.5t-18 56.5q-29 63 10 117q25 25 45 29t76.5 2t103.5 -49q0 -14 21 -50q23 -80 25.5 -86t2.5 -10l88 80q8 12 47 29l21 12 q12 10 90 18q68 -18 86 -36q0 -2 16 -41q-4 -47 -77 -76l-87 -66q-29 -18 -53 -45l-71 -69q18 -39 49 -121q15 -51 35 -82z" />
<glyph unicode="y" horiz-adv-x="841" d="M322 645q0 -33 -3.5 -57.5t-3.5 -30.5q0 -63 -5 -93t-5 -48v-92q0 -119 8.5 -142.5t28.5 -31.5q23 -6 35 3t23.5 28.5t18.5 45t21.5 55t17.5 43t17 33.5q29 111 33 256v66q4 82 31 137q14 33 84 53l30 2q41 0 54 -12q12 -59 2 -168v-141q4 -102 4 -141q-2 -14 2 -242 q-2 -2 0 -53q2 -33 -5.5 -143.5t-7.5 -133.5q-23 -125 -50 -172t-74 -82q-33 -33 -117 -45q-6 2 -33 2q-123 12 -160 49q-109 55 -126 81t-21 48.5t12 75.5q31 39 80 15q20 -10 74 -41l67 -33q14 -12 29 -2q20 12 25 12q35 29 67 90q0 20 21 62q0 41 24 120v23q0 31 4 52.5 t4 33.5q-16 -31 -26 -57.5t-25 -44.5q-2 -12 -43 -25l-76 -2q0 2 -12 2l-31 2q-109 0 -137 29q-14 18 -35 35q-18 23 -22 57q-6 6 -8 35v22l-4 25q2 4 -5 28q-4 25 -4 80v25q0 182 4 190q6 12 7 23q-4 10 2 22l4 29l20 64q0 8 13 51q12 12 14 28q8 39 9 53.5t17 39.5 q25 18 73 13t83 -42l-22 -90q2 -14 2 -25z" />
<glyph unicode="z" horiz-adv-x="835" d="M805 100l2 -26q0 -16 -16 -25q-29 -25 -211 -86q-47 -14 -248 -41q-76 -27 -124 -25.5t-63 7.5q-14 2 -45 55q0 14 -20 57q-10 10 -21 47q-18 68 -22 93v28q0 27 43 78q6 6 10 17.5t47 54.5l101 86q10 14 28 24q10 6 53 41l74 47q63 47 65.5 50.5t4.5 7.5q4 12 -19 12 h-49q-180 0 -196 8q-29 16 -52 76q-2 4 -15 19.5t-15 52.5q4 25 45 49l41 16q4 4 86 19q35 0 43 2h2q10 2 115.5 -12.5t123.5 -24.5q4 0 14.5 -2t20.5 -2q49 -6 74 -35q23 -31 50.5 -102.5t27.5 -98.5q-4 -14 -15 -24l-24 -19q-20 -20 -30.5 -21t-63 -40t-76.5 -62 q-6 0 -131 -92q-27 -14 -101 -92q-20 -18 -37.5 -45t-17.5 -47.5t10 -22.5q98 -8 140 11q25 14 59 14q76 6 120 17.5t69 11.5q76 8 85 6t18 -9.5t17 -9.5q23 -31 23 -43z" />
<glyph unicode="{" horiz-adv-x="579" d="M610 1329l-55 2q-33 0 -55 -18q-10 -31 -2 -185.5t-11 -214.5q0 -139 -10 -223q-2 -4 -13 -53t-16.5 -58.5t-19.5 -31.5q-27 -41 -43 -96q25 -14 50.5 -58.5t33.5 -75.5l8 -116q0 -59 -22 -113q-31 -180 28 -297q8 0 72 -31q16 0 70 -22q16 -16 40.5 -36.5t34 -33 t2 -19.5t-38 -15.5t-34.5 -6.5q-20 10 -127 11q-16 4 -66.5 22t-81.5 27l-61 37q-20 6 -57 55q-23 23 -43 57q-20 45 -22.5 87t-0.5 112q4 6 13.5 35.5t12.5 39t5 13.5q6 10 16 65q-4 2 10.5 39t14.5 43q4 23 9 46.5t1 39.5q-12 51 -35 64q-43 0 -74 -8q-23 -10 -77 22 q-14 2 -11 84q14 4 66 6q0 2 67 35q27 0 62 94v2l2 5q2 4 3 8t4 14t7 22.5t8 92.5q4 10 11 108q0 104 -13.5 175t-21.5 157t16 166q14 20 82 59q63 20 158 6l74 -28q0 -2 47 -27q18 0 39.5 -28.5t27.5 -57.5q-8 -8 -84 2z" />
<glyph unicode="|" horiz-adv-x="516" d="M203 1077l14 117l4 100v27q47 41 74 49q25 12 51 -14l23 -19q18 -10 18 -32q8 -10 6 -15q-10 -14 -41 -233l-6 -82q0 -16 -7 -99t-7 -188l-2 -43l-11 -55q0 -27 3 -31v-33q-4 -45 -7 -51v-84q4 -94 4 -153l3 -127v-95l4 -39v-30q4 -37 4 -58l10 -100l8 -55 q6 -31 -3 -62.5t-23.5 -43t-49 0t-43 24.5t-14.5 11q-14 16 -22 41q-16 8 -14.5 28.5t-8.5 36t-10 27.5q0 25 -4 45l2 17q-6 6 -6 18l-2 21v28q0 16 -1.5 22.5t3.5 20.5q0 2 4 426l2 49v56q2 49 2 121q12 160 12 210q0 78 31 246z" />
<glyph unicode="}" horiz-adv-x="616" d="M434 102l2 -71q14 -51 -2 -154q-14 -59 -14 -67q-31 -55 -31 -78q-4 -16 -65 -47q-35 -27 -132.5 -26t-119.5 5q-47 6 -47 37q-45 86 -37 86q55 18 55 -12q66 -47 83 -49t56 26q18 20 33 58l12 63q-10 10 9 59q-6 98 -12.5 150.5t-0.5 91.5q-29 41 -4 145q0 63 4 84 q-2 43 8.5 77t55.5 52q-86 82 -90 152q-20 57 -4 109q39 154 40 157q20 150 23 166q18 100 -8 187l-43 49q-119 0 -144 16q4 45 19 76q2 2 42 11t68 28q23 4 56 4q70 0 85 -7t34 -22q29 -25 28 -37q51 -78 55.5 -101.5t4.5 -31.5t12 -127q-20 -127 -22.5 -132t-2.5 -7l2 -6 q-8 -29 -10 -65t0 -42q-27 -61 -31 -125q-16 -55 -14 -76.5t10 -52.5q20 -61 35 -61q49 -18 62.5 -15t41 -0.5t31.5 -7.5q23 -41 -16 -67q-6 -4 -37 -8q-68 -12 -88 -41q-6 -8 -6 -25l-10 -68q2 -35 0 -55q-2 -61 -2 -65q10 -113 26 -140z" />
<glyph unicode="~" horiz-adv-x="1056" d="M610 612h103.5t99.5 8.5t78 24.5q6 2 43 33q14 0 24 -125q-2 -12 -2 -28.5t2 -18.5q-4 -16 -4 -31q-10 -6 -22 -43q-10 0 -35 -12q-16 -8 -84 -23q0 -6 -35 -8q-86 -4 -86 8h-9t-34 19q-10 -2 -47 10q-4 -4 -12 0q-29 23 -43.5 23t-38.5 28q-8 -4 -59 23q-4 -4 -20.5 6 t-18.5 8t-60 21q-23 12 -41 10q-31 10 -59.5 14t-77.5 -12q-41 -29 -53 -6q-4 4 -11.5 50t0 69.5t48.5 41.5q80 18 153 5q90 -29 146 -29q2 -4 65 -27q59 -20 70.5 -27.5t19.5 -11.5z" />
<glyph unicode="&#xa1;" horiz-adv-x="452" d="M311 825q-12 0 -32.5 -8t-36.5 -8q-98 18 -113.5 20t-26.5 7q-18 12 -18 43q29 147 98 174l60 10q25 0 61 -29q20 -2 43 -11t23 -15.5t21.5 -33t21.5 -54t-25 -50.5q0 -45 -76 -45zM116.5 84q30.5 285 30.5 386t-12 138q23 39 47 39q27 0 40.5 -4t17.5 -4h8l8 -2 q47 -74 53 -129q33 -90 36 -107.5t11 -33.5q6 -84 6 -91l-2 -16v-18l2 -54q-8 -51 -8 -104v-31q0 -45 -16 -126t-16 -128t-32 -118.5t-43 -99t-15.5 -40t-10.5 -24.5q-10 -16 -26 -17q-31 -12 -43 -12q-94 0 -95 49l21 156q8 106 38.5 391z" />
<glyph unicode="&#xa2;" horiz-adv-x="784" d="M406 711l2 2q-12 6 38 123q-4 -4 -2 0q0 14 27 77q0 10 8 23q-45 37 -106 -12l-15 -27q-4 -8 -32.5 -117.5t-38.5 -201.5q0 -84 8 -132.5t8 -52.5q27 96 27 103q23 66 28 73q12 16 12.5 44t35.5 98zM139 -71.5q0 12.5 21 73.5q0 31 65 162q2 0 4 41v2l-30 18l-29 29 q-8 2 -27.5 22.5t-29.5 45.5q-16 27 -17 43l-10 41q0 16 -12 53q0 37 -4 69q-6 55 10 72q2 0 -4 37v74q0 33 18 88q2 23 35 98q4 31 66 104l24 41q25 33 66 48q35 29 110 34q111 0 150 -4q33 80 78 158h2q16 57 65 63q61 -6 37 -73q-2 -8 -42 -93t-44 -94q4 -2 7 -6t18 -18 q14 -23 22 -72t3 -102.5t-28.5 -91t-82.5 -50.5q-43 0 -54 27l-6 10q-14 -49 -47 -125q-6 -47 -12 -57q-14 -25 -37 -117q-25 -59 -28 -63t-15 -42t-23 -67q8 -2 33 -2q59 0 115 76q0 6 51 41q76 8 80 -66q4 -20 -12 -45q-12 -29 -70 -121q-20 0 -29 -8q-37 -29 -106 -20 q-18 2 -64 10h-28q-6 2 -15 4q-4 -8 -75 -172q-53 -96 -68 -96q-8 0 -14 -1t-11 3q-6 6 -6 18.5z" />
<glyph unicode="&#xa3;" horiz-adv-x="741" d="M444 283q8 8 36 11t35 7t85 16q20 -10 34.5 -11t33.5 -25l16 -21l39 -37q0 -6 18 -33q29 -31 -12 -55q-4 -2 -24 -8q-88 -25 -105 -37q-66 -25 -98 -24l-29 -11q-53 -31 -104 -41q-27 -18 -72 -32l-61 -27l-37 -10q-29 -23 -39 -4q0 2 -2 5t-4 7l-86 80q-12 8 -13 18 q0 27 -8 42.5t6 47.5q82 31 88 33v19q-12 39 4 79q0 4 5 29q-2 12 2 23q4 0 1 15t-3 30q10 27 9 80t11 71q0 10 2 23q-4 -2 -45 -11q-59 -10 -129 31l-16 33q-4 23 -5 66q23 14 82 32q39 0 68 21h2q20 6 66 14q4 4 1 11.5t4 18.5t11 34q-4 14 -2 20t7 45t11 41 q4 33 10.5 52.5t6.5 24.5t10 25q4 23 7 26t1 7q-4 6 19 80q23 80 20 80v10q4 14 1 22.5t9.5 36t22.5 29.5q14 14 16 15q47 6 74 -9l27 -20q0 -10 12 -10q10 -2 35.5 -20.5t33.5 -28.5q4 -8 4.5 -32t-20.5 -114q-31 -127 -31 -149l-12 -41q0 -18 -20 -117l104 14l72 -4 q35 0 35 -16q4 -16 4 -29q0 -33 -50 -51l-45 -18q-12 0 -36 -13h-33q-10 0 -33 -16q-2 -2 -35 -2l-10 -4l-8 -80q-14 -53 -17 -76q-4 -23 -20 -215l-14 -6q25 0 28 4z" />
<glyph unicode="&#xa4;" horiz-adv-x="1171" d="M362 606q0 -59 -10 -86q0 -63 47 -115.5t133 -52.5t130 58q6 0 16 14t16 33q6 2 15 20q23 59 47 78q51 63 53 172v21q0 43 -39 103t-121 60q-78 0 -121 -32q-12 -10 -47 -50q-27 -23 -39 -45q-14 -27 -22 -31.5t-13.5 -9t-9.5 -10.5q-14 -16 -22 -47zM707 1022 q37 0 92 -45l53 82q63 106 98 106q14 0 34 -15t20 -35.5t-25 -70.5q-27 -53 -100 -153q51 -72 51 -133.5t-22.5 -146.5t-45.5 -115q4 -4 -28 -52l81 -110l25 -49l18 -27q25 -16 25 -50t-18.5 -50.5t-34.5 -16.5q-35 0 -96 103q-43 61 -53.5 76.5t-20.5 21.5l-12 -16 q-25 -23 -89.5 -54.5t-110.5 -31.5t-116 36q-25 6 -39 15q-27 -37 -66.5 -102.5t-64 -93t-42 -27.5t-36 14t-18.5 36.5t29.5 82t40.5 63.5l63 94q-68 72 -68 162q0 131 50.5 219t58.5 97q0 8 10 22l-84 115l-41 78q-23 31 -22.5 59.5t20 43.5t34.5 15t40 -31.5t62.5 -94 t70.5 -103.5l4 -6q72 45 105 61q59 27 168 27z" />
<glyph unicode="&#xa5;" horiz-adv-x="970" d="M281 463q-41 -10 -99.5 -10t-113.5 28l-37 17l-13 43q0 23 9 59q35 6 108 12q55 0 90 4h2l35 2v11q-8 6 -7 34.5t-7 47.5q-25 25 -41 98q-10 78 -14.5 86t-11.5 26.5t-18 47t-16 51.5q-16 49 -12 57q-4 4 -10 33q-66 111 -59.5 138.5t55.5 39.5q8 2 72 10h45q23 0 45 -20 q41 -37 49 -100q18 -72 26 -88q16 -41 17 -54l24 -61l4 -45q4 -8 11 -17q18 -25 22 -59l17 -39q25 -78 29.5 -87t9.5 -26q4 4 4 11l16 30q0 16 39 78q43 106 65 180q23 82 50 144q-4 6 22 49l23 45q37 57 123 72l30 8q86 0 102.5 -14.5t10.5 -55.5l-21 -45l-51 -94l-39 -59 q-14 -6 -28 -39l-23 -39l-51 -109q-4 -4 -13.5 -33.5t-33.5 -56.5l-19 -55q0 -2 -10 -20.5t-13 -21.5t-9 -18q-8 -18 -8.5 -21t-6.5 -22h19l84 -4q27 0 94 -14t67 -29q-4 -8 -4 -28q0 -27 -75 -35q-66 -10 -107 -10h-43q-6 0 -26.5 -4.5t-61.5 -4.5h-51q0 -8 -4 -32 q0 -29 -6 -35l-5 -66l222 -10q25 0 90 -12.5t71 -24.5q0 -4 -2 -9t-2 -26q0 -27 -75 -34q-66 -10 -107 -11h-43q-6 0 -26.5 -4t-61.5 -4h-49l4 -61q8 -27 4 -35q-2 -10 8 -62q20 -88 -33 -102q-55 -16 -155 25q-16 12 -23 30q-16 8 -12 33q0 6 -10 17.5t-10 20.5t-5 36 l-8 63v9q-23 0 -28 2q-41 -10 -99.5 -10.5t-113.5 28.5l-37 16l-13 43q0 23 9 60q35 6 108 12q55 0 90 4h2l92 6l7 101v8q-31 -4 -45 0z" />
<glyph unicode="&#xa6;" horiz-adv-x="516" d="M154 244q12 12 12 45v8l2 25q0 2 2 16l-4 10q59 25 82.5 30t40.5 -3l22 -6q18 0 19 -2v-7l10 -4l-2 -2q0 -2 -14 -28l-7 -41l-10 -29q0 -14 -2 -20q4 -2 3 -6.5t-1 -9.5t-2 -19.5t-2 -30.5t2 -61l-2 -19l-10 -22q6 -10 8 -13v-12q-4 -18 -6 -20v-13l6 -20q0 -33 18 -113 v-39l11 -20v-6q2 -6 3 -8.5t1 -14.5q8 -12 5 -17t11 -22l8 -20q6 -10 0 -25.5t-20 -19.5t-49 -4t-51 8h-7q-10 2 -26 14q-18 0 -15 14q0 4 -5 6.5t-10 5.5t-5 7t-2 6q0 2 -4 18q-10 0 -10 13v12q0 6 -1 8t3 8q-4 4 -11 95q-4 96 -8 118q2 25 -4 45q4 31 6 33t1 11.5t-1 21.5 v35q-4 16 0 25.5t4 15.5l9 18zM256 1303l-2 10q53 20 76.5 24t48.5 -14q41 -10 41 -12v-6q10 -4 6 -7l-6 -10l-19 -16l-20 -68q0 -14 -2 -20v-6q-2 -6 -6 -19q-14 -27 -15 -102l-6 -17l-14 -16q2 -10 4 -12v-13q-4 -18 -6 -20v-12l2 -21q0 -86 1 -106.5t-7 -30.5v-14l6 -17 v-12q4 -12 4 -25q6 -18 4 -20t8 -25q-2 -10 2 -21t-4 -23.5t-24.5 -14.5t-49 2t-49.5 14q-12 4 -30 23q-16 0 -13 14q4 6 -4 11.5t-8 9.5q0 8 -4 16v8q-8 2 -8 15v12q0 6 -1 8t3 8q-4 4 -1 23.5t6 77t9 69.5v88q16 35 16.5 41t0.5 15.5t1 18.5t1 17.5v12.5l24 55l10 29 q0 12 3.5 12t3.5 8q2 8 9 27t9 31z" />
<glyph unicode="&#xa7;" horiz-adv-x="753" d="M301 678q8 -98 90 -184q59 10 56 78.5t-68 129.5q-16 20 -47 37q-31 -12 -31 -61zM113 631q-8 135 90 219q-86 98 -90 166q-8 121 55 188q55 68 151 72q158 6 235 -78t82 -166t-42 -88q-53 -4 -88 19q-18 -2 -47 26q-12 6 -22.5 28.5t-30 64.5t-44.5 46q-31 -12 -30 -61 q8 -96 100 -195q49 -55 94 -110q94 -123 96.5 -199t-26.5 -98q-68 -78 -74 -86q98 -129 100.5 -205t-26.5 -98q-88 -104 -229.5 -108.5t-233.5 87.5q-25 25 -24 47q-12 39 -9 52q-6 57 0 86q12 66 97 67q31 0 39 -37q27 -104 50 -137t76 -31q68 4 65 76t-69 133 q-20 25 -39.5 38t-25.5 20q-2 6 -10 12q-43 33 -104.5 108.5t-65.5 141.5z" />
<glyph unicode="&#xa8;" horiz-adv-x="892" d="M680 1262q72 0 90 -78q0 -70 -43 -112t-81 -42t-94 35t-56 76q0 102 88 123q27 2 75 -7q1 5 21 5zM264 1044q-47 0 -94 29t-47 90q0 113 102 131q100 -35 113 -47l31 -69q-6 -43 -43 -88.5t-62 -45.5z" />
<glyph unicode="&#xa9;" horiz-adv-x="1171" d="M458 773.5q48 62.5 84 80.5t91 -4q115 -39 108 -113q-6 -27 -35.5 -31t-56.5 13l-39 24l-51 -10q-41 -45 -57 -94q-23 -70 0.5 -88.5t66.5 -3.5q20 -10 49 -4q82 18 93 -15q12 -16 -2.5 -35.5t-33 -28.5t-29.5 -14.5t-30.5 -12.5t-27.5 -11q-35 -2 -105 8q-88 0 -110 94 q-6 16 -3 63.5t15 55.5q25 64 73 126.5zM248 631q6 -49 -4 -74v-25l-6 -49v-2q-4 -12 10 -65q31 -115 127 -172q55 -33 149 -17q63 6 99 21.5t75 62.5q20 0 47 68q23 12 29 55q25 25 37 55.5t25 38.5q74 104 77 252q6 72 -18.5 126.5t-101 109.5t-250.5 18 q-78 -49 -117 -106q-20 -29 -33.5 -40t-21.5 -28q-12 -33 -32 -45t-28 -20q-23 -23 -39 -82q-4 -2 -10 -38t-14 -44zM123 307q-47 47 -48 171t48 257q0 16 10 34.5t14 23.5q18 18 23 26l18 37q16 49 43 76q2 6 10.5 15t10.5 18l33 32l20 29q8 0 29.5 20.5t52.5 32.5 q6 10 27 21q0 16 44 30.5t70 34.5q4 10 60 15l30 8q14 6 98.5 9t112 -12.5t86.5 -68.5q25 -16 35.5 -26.5t14.5 -13.5t11 -12t9 -12t10.5 -17.5t12.5 -18.5q82 -131 71 -240q0 -27 -8 -72t-18 -57q-10 -51 -33 -118.5t-39 -88.5q2 -6 -50 -87t-77 -107q-20 -31 -57 -66 t-148 -78q-127 -70 -291 25q-55 20 -128.5 77.5t-106.5 102.5z" />
<glyph unicode="&#xaa;" horiz-adv-x="890" d="M336 1124q-16 -55 -16.5 -134t10 -101.5t14.5 -27.5t8 -3q8 0 29 33q94 137 88 317q-4 29 -16.5 49.5t-57.5 24.5q-14 -8 -33 -53q-22 -39 -26 -105zM268 608q20 10 124 10t282 -14q25 0 42 -15.5t17 -25.5v-22q0 -29 -12 -35q-8 -2 -55 -17q-16 0 -80 -10 q-186 -27 -260 -18q-72 -2 -101.5 9t-36.5 40q-4 51 10.5 68.5t67.5 29.5h2zM258 764q-53 23 -90 92.5t-38 94t-9 73.5v39q0 49 4 57t4 10q0 6 8 35q8 68 53 142q20 43 54.5 71.5t74.5 30.5h9q2 -2 8 -2h41q94 -12 110.5 -15t22.5 -3l22 -5q16 2 56.5 -8t41.5 -13t5 -26 l16 -106q0 -2 13 -64q39 -143 47 -151l4 -49q0 -31 20 -43q25 -59 37 -72l12 -12q47 -53 -47 -78q-6 -2 -22.5 -2t-46.5 14q-23 0 -33 17l-33 16q-12 0 -67 127q-4 -12 -6.5 -31.5t-14.5 -43t-36.5 -50.5t-31.5 -37q-14 -31 -58 -33t-85 9.5t-45 15.5z" />
<glyph unicode="&#xab;" horiz-adv-x="1138" d="M1006 698l-68 -75q0 -4 -41 -45q-8 -6 -51 -41t-68 -50q12 -2 39 -18q14 -14 86 -76q47 -47 55 -71q23 -8 28 -19.5t11.5 -21t8.5 -15.5q20 -14 44.5 -45t24.5 -36t15 -40q0 -8 -23 -22q-18 -2 -25.5 -8t-21.5 -33q-16 0 -37 -29q0 -8 -16 -8q-47 0 -76 29 q-14 10 -53 65.5t-49.5 64.5t-45.5 58q-125 154 -172 164q-2 8 19 31q-2 25 16 28q0 18 45 47q2 2 8 13q27 43 50 61q84 61 90 64q6 12 54 47t50 45q74 39 82 39q25 12 53.5 8t28.5 -23q0 -25 -57 -81q-4 -5 -4 -7zM508 698l-68 -75q0 -4 -41 -45q-8 -6 -51 -41t-67 -50 q12 -2 38 -18q14 -14 87 -76q47 -47 55 -71q23 -8 28 -19.5t11 -21t8 -15.5q20 -14 45 -45t25 -36t14 -40q0 -8 -23 -22q-18 -2 -25 -8t-22 -33q-16 0 -37 -29q0 -8 -16 -8q-47 0 -76 29q-14 10 -53 65.5t-49 64.5t-45 58q-125 154 -172 164q-2 8 18 31q-2 25 17 28 q0 18 45 47q2 2 8 13q27 43 49 61q84 61 90 64q6 12 54 47t51 45q74 39 81 39q25 12 53.5 8t28.5 -23q0 -25 -57 -81q-4 -5 -4 -7z" />
<glyph unicode="&#xac;" horiz-adv-x="1310" d="M975 272q-16 23 -16.5 50.5t-9.5 59.5t-7 63.5t1 48t-7 27.5t-10 19.5t-17.5 13.5t-24 7t-33 3t-38.5 0t-51 -1h-57l-279 -4q-49 -14 -215 -14q-45 0 -60.5 32.5t-15.5 89t31 62.5q35 14 74 14t84 8.5t129 8.5l532 -12l35 -5q53 0 91 -28.5t38 -48.5q-10 -49 -10 -68.5 t9 -54.5t18.5 -58.5t9.5 -44.5q10 -16 9 -31.5t3 -19.5q14 -14 14 -57q0 -12 -35 -43l-39 -17q-4 -4 -32 -2q-10 -4 -64 -4q-18 6 -57 6z" />
<glyph unicode="&#xad;" horiz-adv-x="833" d="M74 543q39 16 85 16t93 8t129 8l246 -12l35 -4q53 0 91 -28.5t36.5 -44t-3.5 -34t-4 -26.5q-6 -18 -45 -27l-32 -6q-37 0 -62 -8q-31 0 -53.5 -9t-79.5 -9l-33 -7q-66 -20 -123 -18q-25 -10 -51.5 -9t-32.5 -5q-20 -12 -96 -13q-18 0 -72 35l-28 39q-4 4 -2 33 q-8 14 -9 63q11 15 11 58z" />
<glyph unicode="&#xae;" horiz-adv-x="876" d="M502 1085q-41 16 -52.5 13.5t-19.5 -8t-12 -14.5t-6 -16t-4 -22.5t-5 -21.5q61 18 77 21t24 21.5t-2 26.5zM371 958.5q0 -2.5 -18.5 -33t-22.5 -40.5q-27 -20 -40.5 -17.5t-41.5 41.5q2 2 4 13.5t5 23.5t3 15q12 10 19.5 34.5t25.5 53.5q20 20 28.5 35.5t33.5 39.5 q14 31 51 31q29 4 78 0q8 -6 29.5 -10t47 -25.5t31.5 -48.5q6 -8 -9 -17.5t-15 -11.5q-12 -23 -109 -61q-4 -2 -33 -16q88 -74 72 -93q-2 -4 -5 -4t-16 -4q-27 -6 -45 0q-16 43 -22 45q-8 33 -41 47q-10 5 -10 2.5zM670 1196q-31 45 -88.5 51t-89.5 6q-104 4 -230 -104 q-49 -45 -82 -129q-10 -27 -14 -33q-23 -47 4 -143q6 -20 27 -39q0 -4 20 -27q2 -14 12.5 -20t40.5 -15q94 -47 144 -22q27 0 35 10l59 43q4 4 17.5 19.5t25.5 26.5t31.5 34t33.5 31q25 47 37.5 53t30.5 49t23 68q8 94 -37 141zM416 1346q135 0 250 -29q6 0 46 -43t60 -76 q0 -14 14 -29q18 -70 11.5 -124t-25.5 -82q-10 -33 -37 -76q-29 -59 -82 -119q-49 -59 -63 -63q-10 -14 -111 -84q-66 -25 -98 -23q-61 27 -67.5 30t-24.5 9q-39 12 -66 31q-35 35 -41 34q-29 18 -39 39q-14 16 -34 29l-31 53q-4 0 -17 33q-2 4 -6 23.5t-8 33.5q0 33 4 64 q0 43 29 92q6 31 74 109q6 8 39 30q0 8 22.5 31t24.5 23l65 51q6 2 23 6q39 12 51 20q35 1 37 7z" />
<glyph unicode="&#xaf;" horiz-adv-x="909" d="M279 1239q70 8 139 8q66 0 172 -8t115 -10q80 -23 78.5 -34t-2.5 -26.5t-3 -19.5q-6 -12 -51 -21q-51 -10 -80 -10h-33q-4 0 -18 -4t-47 -4h-47q-16 -2 -64 -6q-23 -14 -49 -8q-12 -6 -62.5 -13.5t-88 -7.5t-78.5 29l-27 16l-10 43q0 33 6 60q27 8 73 10t74 6h3z" />
<glyph unicode="&#xb0;" horiz-adv-x="825" d="M516 1424.5q-35 21.5 -63.5 20.5t-61.5 -14.5t-41 -33.5q-53 -94 -10 -275q6 -27 41 -55q57 -29 79.5 -28t60.5 28t46 45l15 47q10 6 6 21q16 10 20 94q-18 14 -22 14l-8 8q0 6 -7 25q-10 10 -12 32.5t-4 26.5q-4 23 -39 44.5zM440 1565h11q37 0 79.5 -3t92 -34t79 -72 t42 -62.5t14.5 -62.5t-9.5 -50t-35.5 -17q8 -25 8 -66q10 -72 -12 -108q-4 -35 -29 -78t-53 -72q-37 -27 -101 -31q-78 0 -133 6.5t-108 32.5q-80 51 -105 121q-27 106 -27.5 144t3.5 75q4 0 4 21q16 127 86 188q61 68 194 68z" />
<glyph unicode="&#xb1;" horiz-adv-x="1056" d="M367 297l469 -12l30 -4q41 0 72 -26t31 -38t-1 -23.5t-2 -16.5t-5.5 -13t-10.5 -12q-14 -12 -98 -27q-31 0 -138.5 -10.5t-158.5 -12.5q-18 -4 -97 -11t-112 -5q-14 -8 -38.5 -8t-31.5 -4q-18 -12 -77 -13q-12 0 -58 33l-22 35q-2 2 -2 29q-6 14 -6 57q8 12 8 51 q27 12 67.5 14.5t61.5 4.5h2q49 12 117 12zM444 451q-16 27 -16 55.5t-4 46.5v2q-12 39 -12 96v29q-43 -4 -66 0q-14 -8 -38.5 -8t-31.5 -4q-18 -12 -77 -13q-12 0 -58 33l-22 35q-2 2 -2 29q-6 14 -6 57q8 12 8 51q27 12 67.5 14.5t61.5 4.5h2q49 12 98 12t72 -2 q2 78 8 166q0 33 28.5 57.5t42 24.5t27 -1t19.5 -2t15 -3.5t13 -8.5q16 -16 29 -80q0 -27 16 -157q143 -6 218 -6l30 -5q41 0 72 -25.5t31 -37.5t-1 -23.5t-2 -16.5t-5.5 -13t-10.5 -13q-14 -12 -98 -26l-211 -17q4 -57 4 -67q10 -18 9 -35.5t5 -21.5q12 -10 13 -64 q0 -14 -35 -45l-39 -18q-2 -2 -33 -2q-16 -6 -63 -7q-13 9 -58 9z" />
<glyph unicode="&#xb2;" horiz-adv-x="702" d="M285 1561l59 6l70 -13h6q6 0 14 -12l15 -10q2 0 32.5 -27.5t34.5 -37t17.5 -16.5t36 -46t16.5 -90t-36 -99.5t-118 -156.5q-31 -37 -137 -139q203 0 208 -3.5t44 -31.5q6 -6 21.5 -34t17.5 -36q4 -10 8 -17t4 -14q4 -16 -12 -16q-14 14 -124 14t-170.5 -1t-60.5 1l-16 2 q-6 0 -18.5 9.5t-15.5 5.5t-15 4q-33 20 -47 51q-25 39 -12.5 57.5t33 45t27.5 38t24.5 29.5t23.5 29q6 18 37 37q47 82 78 102q4 14 24 47q49 53 70 115q6 27 -6 42t-45 3q-92 -37 -162 -146q-14 -4 -23.5 1.5t-31.5 21.5q-27 14 -27 61t12 68q23 29 23 39q6 14 16 16 q8 12 4 19q6 6 25 34q16 20 31.5 25.5t27.5 15.5q5 1 17 7z" />
<glyph unicode="&#xb3;" horiz-adv-x="702" d="M324 1073q-51 -18 -74 53q-16 61 16 91q37 12 60.5 14t26.5 3t7 5q10 6 29 16q27 27 39 33q49 43 37 74q-4 16 -27 22q-45 16 -133 -22q-100 -27 -123 4q-53 94 -35 113q4 0 3 12q4 23 22 20h14q12 8 35 0q35 -4 47 0l25 9q27 0 37 8t20 8h19q10 -2 34.5 4t34.5 0l27 -8 q6 0 14 -4t11.5 -5t8.5 -2t11 -3q-2 -2 2 -4.5t20 -6.5q25 -20 29 -43q25 -57 36 -96t-36 -84q-4 -2 -16 -16q-18 -18 -68 -56q41 -6 51 -30q4 0 13 -11q12 -20 20 -69l17 -53q16 -63 -9 -109l-14 -39q-14 -51 -68 -74l-67 -26q-35 -23 -68 -30t-108 -3q-90 18 -115 54 t-25 85q-6 41 48 41q29 0 53 -18q31 -16 93 -8t111.5 43.5t55.5 52.5q10 12 8 43t-24 33q-12 4 -62 -9q-32 -12 -63 -12z" />
<glyph unicode="&#xb4;" horiz-adv-x="641" d="M389 1354l33 -2q47 -23 90 -80q16 -20 -27 -35q-2 -6 -22 -20q-45 -35 -86 -78t-64 -64q-41 -84 -120 -96q-27 0 -52.5 25.5t-13.5 76.5q10 33 70 105q0 6 32 53q64 82 160 115z" />
<glyph unicode="&#xb5;" horiz-adv-x="942" d="M113 590l8 86l16 74q0 31 20.5 63.5t28.5 38.5q8 16 58 27q10 -2 26.5 -3.5t30.5 -4.5t51 -31q20 -18 26.5 -39t8.5 -51.5t0 -39t-4 -18.5q-10 -55 -16 -119q-6 -14 -7 -38l-20 -183q0 -109 2 -127t8 -28q2 -8 18.5 -12.5t22.5 8.5q0 18 12 28q0 4 27 58q0 8 7 22 t10.5 25.5t5.5 15.5q8 6 20 45q0 23 25 47q0 6 20 49l4 19q37 78 35 108l10 101l21 82q29 66 82 79q25 10 66.5 -8t53 -35.5t11.5 -33.5v-37l-2 -23v-110q0 -123 4 -187q12 -184 71 -315q29 -66 -24 -100q-31 -20 -72 -21q-70 0 -96 53q-14 20 -26.5 55t-16.5 46 q-12 41 -16 45l-17 39q-33 -104 -112 -246q-16 -27 -58 -45q-41 10 -106 33v-242q0 -78 8 -92q-31 -53 -100 -43q-29 4 -37 12v-2q-29 16 -53.5 50t-24.5 65q8 53 -2 71q-4 66 -2 82.5t-4 34.5q0 49 -6 80q6 16 6 22q-14 109 -15 144q0 37 6 104v31q-6 133 -3 164t3 51 q-4 8 2.5 37t4.5 39z" />
<glyph unicode="&#xb6;" horiz-adv-x="1064" d="M694 592l-2 88q0 86 21 168q0 12 4 33q6 53 10 235q2 66 39 172q37 4 61 4q92 0 97 -71q-20 -197 -30.5 -397.5t-23.5 -266.5q8 -49 9 -160q0 -414 -105 -413q-61 0 -67 57q-12 80 -12.5 244t3.5 188l-8 51zM393 334l4 69q0 35 -16 158q-16 0 -82 31q-186 0 -197 178 q0 113 35 158q0 14 36 83.5t52.5 86t89.5 82.5q10 33 45 41q8 0 34 24.5t52 44.5l64 6q23 -23 80 -16q12 -2 21.5 -3t19.5 -5q20 -10 20 -29q0 -4 -6 -18q-18 -39 -18 -125l2 -45q0 -8 -7.5 -45t-7.5 -56.5t-20.5 -171t-20.5 -270.5t9.5 -175t9.5 -124q0 -203 -27 -205 q-12 0 -21 4t-36 4l-72 -2q-18 0 -24 10.5t-11 49.5v143q0 51 -4 78t-4 39z" />
<glyph unicode="&#xb7;" horiz-adv-x="409" d="M276 274q-20 0 -61 10.5t-84 20.5q-37 14 -37 21q-23 23 -22 36q-12 25 -4 58t12 53l18 35q0 14 23 61q4 27 10 33q33 20 51 29h2q39 6 78 -23l21 -22q2 -8 26 -25q2 -6 -6 -53q14 -10 25 -55q2 -43 -15 -144q4 -10 -6.5 -20.5t-30.5 -14.5z" />
<glyph unicode="&#xb8;" horiz-adv-x="657" d="M131 -316.5q-8 19.5 -8 54.5t23.5 69.5t54.5 34.5q41 0 41 -41q0 -20 -2 -32q8 -12 16 -39t17.5 -37t13.5 -10h10q33 0 72 30q10 18 10 69.5t-29 72.5l-22 45q-18 29 -78 96l143 18q4 -4 90 -135q43 -92 49.5 -134t-38.5 -105q-37 -57 -140 -64q-51 -6 -157 39 q-4 4 -21.5 17.5t-27 22.5t-17.5 28.5z" />
<glyph unicode="&#xb9;" horiz-adv-x="610" d="M451 956q-4 -49 -4.5 -102t-13.5 -66.5t-62 -9.5q-27 6 -35 23q0 6 -8 8q-35 8 -37 83t2 85q6 0 0 14q-4 47 0 65.5t5 117t-9 104.5t-23 -6q-16 -20 -26 -29q-25 -25 -69 -16.5t-54.5 16.5t-12.5 23.5t15 27.5q37 23 51 47l18 19q31 25 40.5 31t12.5 15t13 19.5t10 18.5 q12 8 25 16q10 18 37 45l18 23q10 6 18.5 9t17.5 8t36.5 3t28.5 -5t4.5 -8t9.5 -5t12 -8l25 -9l12 -18q-8 -4 -8 -14l-13 -97q-18 -61 -24 -313q-6 -25 -6 -56.5t-6 -58.5z" />
<glyph unicode="&#xba;" horiz-adv-x="808" d="M422 1280q-37 0 -57 -47q-53 -94 -11 -275q4 -20 29 -55q12 -29 55 -26q39 0 76 118q10 6 6 21q16 10 21 94q-18 14 -23 14l-8 9q0 6 -6 24q-10 10 -12 33q-9 92 -70 90zM248 627q20 10 123.5 10t281.5 -14q25 0 42.5 -15.5t17.5 -25.5v-23q0 -27 -13 -35q-8 -2 -55 -16 q-16 0 -80 -8q-186 -29 -260 -21q-72 -2 -101.5 9.5t-35.5 39.5q-4 51 10.5 68.5t67.5 30.5h2zM414 1401h10q106 0 153.5 -36t71.5 -73q43 -63 45 -114.5t-8 -57.5q-6 -12 -24 -20q6 -27 9 -85.5t-14 -88.5q-8 -63 -77 -150q-35 -39 -191 -28q-74 12 -110 36q-80 55 -95 121 q-20 117 -21 149.5t3 69.5q4 0 4 21q12 129 74 188q55 68 170 68z" />
<glyph unicode="&#xbb;" horiz-adv-x="1138" d="M700 623l-67 75q0 2 -4 6.5t-11 12.5q-47 53 -47 70.5t29 21.5t53 -8q8 0 82 -39q2 -10 29 -28.5t41 -31.5q33 -29 35 -32q6 -2 90 -64q23 -18 39 -44.5t18 -29.5q45 -29 45 -47q18 -4 17 -28q20 -23 18 -31q-47 -10 -172 -164q-35 -49 -45 -58t-33 -40 q-55 -80 -69.5 -92.5t-37 -19.5t-39 -7t-16.5 8q-20 29 -37 29q-14 27 -21 33t-26 8q-23 14 -22 22q14 35 14 40t24.5 36t45.5 45q2 6 8 15.5t10 20.5t29 20q10 33 69.5 84t71.5 63q27 16 39 18q-25 14 -67.5 49t-51.5 42q-41 41 -41 45zM203 623l-68 75q0 2 -4 6.5 t-10 12.5q-47 53 -47 70.5t28.5 21.5t53.5 -8q8 0 82 -39q2 -10 28.5 -28.5t40.5 -31.5q33 -27 35 -32q6 -2 90 -64q23 -18 39 -44.5t18 -29.5q45 -29 46 -47q18 -4 16 -28q20 -23 18 -31q-47 -10 -172 -164q-35 -49 -45 -58t-33 -40q-55 -80 -69 -92.5t-37 -19.5t-39 -7 t-16 8q-20 29 -37 29q-14 27 -21.5 33t-25.5 8q-23 14 -23 22q14 35 14.5 40t25 36t44.5 45q2 6 8.5 15.5t10.5 20.5t28 20q10 33 69.5 84t72.5 63q27 16 38 18q-25 14 -67.5 49t-50.5 42q-41 41 -41 45z" />
<glyph unicode="&#xbc;" horiz-adv-x="1644" d="M1253 481q4 27 6.5 44.5t20.5 74.5v8q-8 -8 -14 -17t-14.5 -19.5t-14.5 -18.5q-59 -76 -66.5 -89t-25.5 -40l-88 -117q-10 -8 -10 -10t9 0t21 2l21 2q10 0 51 10q43 0 63 13q8 2 21 43q0 10 6 44.5t6 51.5q8 4 8 16v2zM451 793q-4 -49 -4.5 -102.5t-13.5 -67t-62 -9.5 q-27 6 -35 23q0 6 -8 8q-35 8 -37 83t2 85q6 0 0 14q-4 47 0 65.5t5 117t-9 104.5t-23 -6q-16 -20 -26 -29q-25 -25 -69 -16.5t-54.5 16.5t-12.5 23.5t15 27.5q37 23 51 48l18 18q31 25 40.5 31t12.5 15t13 19.5t10 18.5q12 8 25 16q10 18 37 45l18 23q10 6 18.5 9t17.5 8 t36.5 3t28.5 -5t4.5 -8t9.5 -5t12 -8l25 -8l12 -19q-8 -4 -8 -14l-13 -96q-18 -61 -24 -314q-6 -25 -6 -56t-6 -58zM1098 1249h8q4 -2 14 -3t17 -3q63 -47 16 -115q-90 -113 -117.5 -166t-60.5 -106q-16 -27 -281 -461l-63 -125q-76 -147 -111 -258q-25 -39 -74 -6 q-2 2 -4 3t-4 5t-5 8.5t-11 10.5q-23 25 -33 94q0 37 8 55q23 49 64 156q18 25 47 82q10 29 41 74l129 235q41 66 72 121q12 12 41 57l40 82q86 109 104.5 139.5t39.5 47.5q2 6 16.5 23.5t45 35.5t61.5 14zM866 219l-4 17q-2 16 21 71l10 10q0 2 3 7.5t5 11.5q6 2 8 8 q4 0 15 16q18 27 22 35q6 2 11.5 11.5t17.5 23.5t16 16q-4 0 10 21q2 4 19.5 27.5t21.5 31.5l15 15l26 37l39 43q4 12 29 36q2 6 30.5 32t43.5 32q10 10 10 12q2 2 16.5 2t20.5 -2t45 -28q4 2 22 2q23 0 95 -43q6 0 -2 -27q-31 -72 -47.5 -168t-16.5 -107q2 -2 25 -2l63 5 q18 0 31 -7q23 0 41 -24q0 -6 8 -10q0 -8 6 -13l10 -4l15 -22q14 -6 14 -13.5t-16 -11.5q-29 10 -66 4t-45 -6q-86 -14 -102 -20l-9 -21q0 -23 -4 -29q-10 -145 -5 -165.5t5 -40.5q4 -6 4 -19q4 -4 -4 -14q-2 -8 -19 -7t-28 5q-35 0 -43 8q-10 0 -28 8q0 4 -10.5 11.5 t-14.5 7.5h-10q-4 12 -4 34q4 72 10 97v18q2 6 2 23l2 34q6 25 0 25q-27 0 -86 -24.5t-66.5 -26.5t-11.5 -4q-8 -4 -18 -4q-31 -14 -58 4q0 6 -12 8t-13 0t-10.5 6t-14.5 14.5t-17 8.5l-12 12q-1 6 -11 12z" />
<glyph unicode="&#xbd;" horiz-adv-x="1644" d="M451 793q-4 -49 -4.5 -102.5t-13.5 -67t-62 -9.5q-27 6 -35 23q0 6 -8 8q-35 8 -37 83t2 85q6 0 0 14q-4 47 0 65.5t5 117t-9 104.5t-23 -6q-16 -20 -26 -29q-25 -25 -69 -16.5t-54.5 16.5t-12.5 23.5t15 27.5q37 23 51 48l18 18q31 25 40.5 31t12.5 15t13 19.5t10 18.5 q12 8 25 16q10 18 37 45l18 23q10 6 18.5 9t17.5 8t36.5 3t28.5 -5t4.5 -8t9.5 -5t12 -8l25 -8l12 -19q-8 -4 -8 -14l-13 -96q-18 -61 -24 -314q-6 -25 -6 -56t-6 -58zM1165 741l60 7l69 -13h6q6 0 15 -12l14 -10q2 0 33 -28t35 -37t17 -16t36 -46t16.5 -90.5t-36 -99.5 t-117.5 -156q-31 -37 -137 -140q203 0 208 -3t43 -31q6 -6 21.5 -34t17.5 -36q4 -10 8.5 -17.5t4.5 -13.5q4 -16 -13 -16q-14 14 -123.5 14t-170 -1t-60.5 1l-16 2q-6 0 -18.5 9.5t-15.5 5t-15 4.5q-33 20 -48 51q-25 39 -12.5 57.5t33 45t28 37.5t25 29.5t23.5 28.5 q6 18 37 37q47 82 77 103q4 14 25 47q49 53 70 115q6 27 -6.5 42t-45.5 3q-92 -37 -161 -146q-14 -4 -23.5 1t-32.5 22q-27 14 -26.5 61t12.5 68q23 29 22 39q6 14 17 16q8 12 4 18q6 6 25 35q16 20 31.5 25.5t27.5 15.5q4 0 16 6zM1077 1249h8q4 -2 14.5 -3t16.5 -3 q63 -47 17 -115q-90 -113 -118 -166t-61 -106q-16 -27 -280 -461l-64 -125q-76 -147 -110 -258q-25 -39 -74 -6q-2 2 -4 3t-4 5t-5 8.5t-12 10.5q-23 25 -32 94q0 37 8 55q23 49 63 156q18 25 47 82q10 29 41 74l129 235q41 66 72 121q12 12 41 57l41 82q86 109 104.5 139.5 t38.5 47.5q2 6 16.5 23.5t45 35.5t61.5 14z" />
<glyph unicode="&#xbe;" horiz-adv-x="1644" d="M1253 481q4 27 6.5 44.5t20.5 74.5v8q-8 -8 -14 -17t-14.5 -19.5t-14.5 -18.5q-59 -76 -66.5 -89t-25.5 -40l-88 -117q-10 -8 -10 -10t9 0t21 2l21 2q10 0 51 10q43 0 63 13q8 2 21 43q0 10 6 44.5t6 51.5q8 4 8 16v2zM324 909q-51 -18 -74 54q-16 61 16 90 q37 12 60.5 14t26.5 3t7 5q10 6 29 17q27 27 39 32q49 43 37 74q-4 16 -27 23q-45 16 -133 -23q-100 -27 -123 4q-53 94 -35 113q4 0 3 12q4 23 22 21h14q12 8 35 0q35 -4 47 0l25 8q27 0 37 8t20 8h19q10 -2 34.5 4t34.5 0l27 -8q6 0 14 -4t11.5 -5t8.5 -2t11 -3 q-2 -2 2 -4t20 -7q25 -20 29 -43q25 -57 36 -96t-36 -84q-4 -2 -16 -16q-18 -18 -68 -55q41 -6 51 -31q4 0 13 -10q12 -20 20 -70l17 -53q16 -63 -9 -109l-14 -39q-14 -51 -68 -73l-67 -27q-35 -23 -68 -30t-108 -3q-90 18 -115 54t-25 85q-6 41 48 41q29 0 53 -18 q31 -16 93 -8t111.5 44t55.5 52q10 12 8 43t-24 33q-12 4 -62 -8q-32 -13 -63 -13zM1137 1249h8q6 -2 16 -3t15 -3q63 -47 16 -115q-90 -113 -117.5 -166t-62.5 -106q-14 -27 -279 -461l-63 -125q-76 -147 -111 -258q-25 -39 -74 -6q-2 2 -4 3t-4 5t-5 8.5t-9 10.5 q-25 25 -35 94q0 37 8 55q23 49 64 156q18 25 47 82q10 29 41 74l129 235q41 66 71 121q12 12 41 57l41 82q86 109 104.5 139.5t39.5 47.5q2 6 16 23.5t45 35.5t62 14zM866 219l-4 17q-2 16 21 71l10 10q0 2 3 7.5t5 11.5q6 2 8 8q4 0 15 16q18 27 22 35q6 2 11.5 11.5 t17.5 23.5t16 16q-4 0 10 21q2 4 19.5 27.5t21.5 31.5l15 15l26 37l39 43q4 12 29 36q2 6 30.5 32t43.5 32q10 10 10 12q2 2 16.5 2t20.5 -2t45 -28q4 2 22 2q23 0 95 -43q6 0 -2 -27q-31 -72 -47.5 -168t-16.5 -107q2 -2 25 -2l63 5q18 0 31 -7q23 0 41 -24q0 -6 8 -10 q0 -8 6 -13l10 -4l15 -22q14 -6 14 -13.5t-16 -11.5q-29 10 -66 4t-45 -6q-86 -14 -102 -20l-9 -21q0 -23 -4 -29q-10 -145 -5 -165.5t5 -40.5q4 -6 4 -19q4 -4 -4 -14q-2 -8 -19 -7t-28 5q-35 0 -43 8q-10 0 -28 8q0 4 -10.5 11.5t-14.5 7.5h-10q-4 12 -4 34q4 72 10 97v18 q2 6 2 23l2 34q6 25 0 25q-27 0 -86 -24.5t-66.5 -26.5t-11.5 -4q-8 -4 -18 -4q-31 -14 -58 4q0 6 -12 8t-13 0t-10.5 6t-14.5 14.5t-17 8.5l-12 12q-1 6 -11 12z" />
<glyph unicode="&#xbf;" horiz-adv-x="899" d="M616 741l-67 7q-18 23 -31 26q-49 49 -65 49q-16 2 -15.5 30t19.5 50q29 63 75 98q23 10 35.5 10.5t66.5 -9t62 -33.5v-47q0 -39 -9 -46.5t-9 -31.5l-6 -43q-14 -10 -23 -29q-2 -29 -10.5 -33t-22.5 2zM334 -188q-10 -35 -11 -40t-6 -14q-16 -33 -16 -45v-28 q0 -18 21 -19q31 6 83 29.5t73.5 43t56 76t37.5 75t10.5 28.5t14.5 48t7 49.5t-10 11.5q-23 4 14 16q6 2 23 2q57 0 65 -12q23 0 49.5 -17.5t34.5 -40.5q29 -84 -18 -157q-27 -78 -57 -101q-35 -74 -42.5 -81t-13.5 -9q-8 -20 -8 -25t-18.5 -16.5t-28.5 -19.5 q-20 -16 -21 -25q-14 0 -26 -6q-29 -6 -37 -20q-12 0 -45 -13q-47 -12 -111 -6q-10 4 -38.5 19.5t-32.5 18.5t-11 5q-16 6 -28 23q-18 4 -35 14q-20 18 -51 29l-35 20q-25 4 -41 6q-8 0 -21 29q-4 106 95 287q6 14 21.5 43.5t17.5 42.5q20 45 110 233.5t105 214.5 q2 0 10 11.5t12 13.5l10 22q0 10 21.5 15.5t34.5 3.5h65q49 -8 57.5 -17.5t8.5 -52.5q0 -135 -56 -223q-20 -51 -37.5 -81t-21.5 -46t-33 -45q-12 -33 -24 -49q-10 -4 -29.5 -39t-19.5 -46t-19 -24q0 -8 -12 -26q0 -29 -12.5 -42.5t-12.5 -31.5q0 -12 -18 -12z" />
<glyph unicode="&#xc0;" horiz-adv-x="956" d="M389 553q4 4 48 9t104 36q2 0 -2 49q-6 86 -11 123q-4 49 -8 70q0 39 -31 161l-90 -305q-29 -127 -22 -155zM262 1755l33 2q96 -33 160 -115q33 -47 32 -53q59 -72 70 -104q12 -51 -13.5 -77t-51.5 -26q-80 12 -121 97q-23 20 -64 65q-41 41 -67 62q-39 29 -41 34 q-43 14 -27 35q43 57 90 80zM113 494l12 90q0 27 8 53q0 35 35 104q0 4 18 54q0 4 39 120l25 60q0 8 10 31.5t15.5 47t13.5 46.5q29 55 51 94q43 82 160 74l65 -6q61 -16 94 -35q47 -18 63.5 -40t14.5 -71q2 -25 12.5 -213t10.5 -190l10 -88q0 -12 45 -295l45 -144 q41 -115 44 -120t18 -43q23 -68 -39 -91q-55 -8 -82 11q-10 0 -47 18q-4 10 -23.5 19.5t-25.5 15.5q-23 6 -41 63q-6 4 -23 33q-14 29 -8 47q-14 18 -15 76q-18 31 -18 96.5t-20 102.5q-104 -47 -224 -52q-23 0 -22 -8q0 -18 -12 -65l-35 -226q20 -152 -37 -159 q-16 0 -54 -8.5t-63 14.5q-47 27 -66.5 54.5t-17.5 62.5q2 29 10 123q4 4 3 46t6 64l32 127q6 4 17 62q-2 4 -2 20z" />
<glyph unicode="&#xc1;" horiz-adv-x="956" d="M739 1763l33 -2q47 -23 90 -80q16 -20 -26 -34q-2 -6 -23 -21q-45 -35 -86 -78t-63 -63q-41 -84 -121 -96q-27 0 -52.5 25.5t-13.5 76.5q10 33 70 104q0 6 33 54q63 81 159 114zM389 553q4 4 48 9t104 36q2 0 -2 49q-6 86 -11 123q-4 49 -8 70q0 39 -31 161l-90 -305 q-29 -127 -22 -155zM113 494l12 90q0 27 8 53q0 35 35 104q0 4 18 54q0 4 39 120l25 60q0 8 10 31.5t15.5 47t13.5 46.5q29 55 51 94q43 82 160 74l65 -6q61 -16 94 -35q47 -18 63.5 -40t14.5 -71q2 -25 12.5 -213t10.5 -190l10 -88q0 -12 45 -295l45 -144q41 -115 44 -120 t18 -43q23 -68 -39 -91q-55 -8 -82 11q-10 0 -47 18q-4 10 -23.5 19.5t-25.5 15.5q-23 6 -41 63q-6 4 -23 33q-14 29 -8 47q-14 18 -15 76q-18 31 -18 96.5t-20 102.5q-104 -47 -224 -52q-23 0 -22 -8q0 -18 -12 -65l-35 -226q20 -152 -37 -159q-16 0 -54 -8.5t-63 14.5 q-47 27 -66.5 54.5t-17.5 62.5q2 29 10 123q4 4 3 46t6 64l32 127q6 4 17 62q-2 4 -2 20z" />
<glyph unicode="&#xc2;" horiz-adv-x="956" d="M453 1724q51 0 67 -10q47 -33 98 -86q84 -88 109 -107.5t36 -43t9 -35.5t-10 -19.5t-25.5 -12.5t-32 -13t-63.5 6q-20 0 -45 43q-25 6 -49.5 35.5t-50.5 48.5q-12 18 -22.5 17t-20 -15t-20.5 -30.5l-16 -24t-11 -15.5q-10 -18 -15 -22q-33 -35 -94 -8q-18 4 -33.5 23.5 t2.5 53.5q0 10 70 96.5t78 94.5q10 16 39 24zM389 553q4 4 48 9t104 36q2 0 -2 49q-6 86 -11 123q-4 49 -8 70q0 39 -31 161l-90 -305q-29 -127 -22 -155zM113 494l12 90q0 27 8 53q0 35 35 104q0 4 18 54q0 4 39 120l25 60q0 8 10 31.5t15.5 47t13.5 46.5q29 55 51 94 q43 82 160 74l65 -6q61 -16 94 -35q47 -18 63.5 -40t14.5 -71q2 -25 12.5 -213t10.5 -190l10 -88q0 -12 45 -295l45 -144q41 -115 44 -120t18 -43q23 -68 -39 -91q-55 -8 -82 11q-10 0 -47 18q-4 10 -23.5 19.5t-25.5 15.5q-23 6 -41 63q-6 4 -23 33q-14 29 -8 47 q-14 18 -15 76q-18 31 -18 96.5t-20 102.5q-104 -47 -224 -52q-23 0 -22 -8q0 -18 -12 -65l-35 -226q20 -152 -37 -159q-16 0 -54 -8.5t-63 14.5q-47 27 -66.5 54.5t-17.5 62.5q2 29 10 123q4 4 3 46t6 64l32 127q6 4 17 62q-2 4 -2 20z" />
<glyph unicode="&#xc3;" horiz-adv-x="956" d="M369 1663l155 -10q23 -2 115 -17.5t102.5 -15.5t40 12.5t54.5 12.5q8 -10 8 -25q0 -51 -54.5 -102.5t-148.5 -51.5q-14 0 -55 9q-127 25 -312 24l-84 -20q-10 0 -10 44t32 86t157 54zM389 553q4 4 48 9t104 36q2 0 -2 49q-6 86 -11 123q-4 49 -8 70q0 39 -31 161 l-90 -305q-29 -127 -22 -155zM113 494l12 90q0 27 8 53q0 35 35 104q0 4 18 54q0 4 39 120l25 60q0 8 10 31.5t15.5 47t13.5 46.5q29 55 51 94q43 82 160 74l65 -6q61 -16 94 -35q47 -18 63.5 -40t14.5 -71q2 -25 12.5 -213t10.5 -190l10 -88q0 -12 45 -295l45 -144 q41 -115 44 -120t18 -43q23 -68 -39 -91q-55 -8 -82 11q-10 0 -47 18q-4 10 -23.5 19.5t-25.5 15.5q-23 6 -41 63q-6 4 -23 33q-14 29 -8 47q-14 18 -15 76q-18 31 -18 96.5t-20 102.5q-104 -47 -224 -52q-23 0 -22 -8q0 -18 -12 -65l-35 -226q20 -152 -37 -159 q-16 0 -54 -8.5t-63 14.5q-47 27 -66.5 54.5t-17.5 62.5q2 29 10 123q4 4 3 46t6 64l32 127q6 4 17 62q-2 4 -2 20z" />
<glyph unicode="&#xc4;" horiz-adv-x="956" d="M745 1671q72 0 91 -78q0 -70 -43 -111.5t-81 -41.5t-94.5 34.5t-56.5 75.5q0 102 88 123q27 2 76 -6q0 4 20 4zM330 1454q-47 0 -94.5 28.5t-47.5 90.5q0 113 103 131q100 -35 112 -47l31 -70q-6 -43 -42.5 -88t-61.5 -45zM389 553q4 4 48 9t104 36q2 0 -2 49 q-6 86 -11 123q-4 49 -8 70q0 39 -31 161l-90 -305q-29 -127 -22 -155zM113 494l12 90q0 27 8 53q0 35 35 104q0 4 18 54q0 4 39 120l25 60q0 8 10 31.5t15.5 47t13.5 46.5q29 55 51 94q43 82 160 74l65 -6q61 -16 94 -35q47 -18 63.5 -40t14.5 -71q2 -25 12.5 -213 t10.5 -190l10 -88q0 -12 45 -295l45 -144q41 -115 44 -120t18 -43q23 -68 -39 -91q-55 -8 -82 11q-10 0 -47 18q-4 10 -23.5 19.5t-25.5 15.5q-23 6 -41 63q-6 4 -23 33q-14 29 -8 47q-14 18 -15 76q-18 31 -18 96.5t-20 102.5q-104 -47 -224 -52q-23 0 -22 -8 q0 -18 -12 -65l-35 -226q20 -152 -37 -159q-16 0 -54 -8.5t-63 14.5q-47 27 -66.5 54.5t-17.5 62.5q2 29 10 123q4 4 3 46t6 64l32 127q6 4 17 62q-2 4 -2 20z" />
<glyph unicode="&#xc5;" horiz-adv-x="956" d="M561 1649q-78 0 -116.5 -39t-43.5 -82q37 -63 107 -68q45 0 65 43q43 43 43 64.5t-19.5 51.5t-35.5 30zM389 553q4 4 48 9t104 36q2 0 -2 49q-6 86 -11 123q-4 49 -8 70q0 39 -31 161l-90 -305q-29 -127 -22 -155zM498 1780q49 0 120 -45q4 -4 35 -25q57 -39 57.5 -58.5 t11.5 -54t11 -45.5q0 -55 -33 -116q-45 -90 -94 -90q-152 0 -196 24q-27 12 -52.5 42t-36 39t-20.5 41t-10 76t14 89q2 4 24.5 30.5t41.5 63.5q10 29 127 29zM113 494l12 90q0 27 8 53q0 35 35 104q0 4 18 54q0 4 39 120l25 60q0 8 10 31.5t15.5 47t13.5 46.5q29 55 51 94 q43 82 160 74l65 -6q61 -16 94 -35q47 -18 63.5 -40t14.5 -71q2 -25 12.5 -213t10.5 -190l10 -88q0 -12 45 -295l45 -144q41 -115 44 -120t18 -43q23 -68 -39 -91q-55 -8 -82 11q-10 0 -47 18q-4 10 -23.5 19.5t-25.5 15.5q-23 6 -41 63q-6 4 -23 33q-14 29 -8 47 q-14 18 -15 76q-18 31 -18 96.5t-20 102.5q-104 -47 -224 -52q-23 0 -22 -8q0 -18 -12 -65l-35 -226q20 -152 -37 -159q-16 0 -54 -8.5t-63 14.5q-47 27 -66.5 54.5t-17.5 62.5q2 29 10 123q4 4 3 46t6 64l32 127q6 4 17 62q-2 4 -2 20z" />
<glyph unicode="&#xc6;" horiz-adv-x="1327" d="M389 594q4 4 48 9t104 36q2 0 -2 49q-6 86 -11 123q-4 49 -8 70q0 39 -31 161l-90 -305q-29 -127 -22 -155zM113 535l12 90q0 27 8 53q0 35 35 104q0 4 18 54q0 4 39 120l25 60q0 2 10 29.5t15.5 50t13.5 45.5q29 55 51 94q43 82 160 74l65 -6q61 -16 94 -35 q47 -18 63.5 -40t14.5 -71v-6l43 86l25 33q39 39 94 24q37 -6 59 -24q14 -8 52 -8q8 4 49 4q49 10 101 6t71.5 -13.5t39 -32t14.5 -45t-17 -34.5q-27 -23 -99 -53q-113 -61 -129 -68q-12 -6 -55 -27q-31 -20 -39 -43q-31 -104 -37 -129q-2 -14 -16 -66t-17.5 -68.5 t-4.5 -21.5t-1 -7q20 10 45 10l25 6q2 0 31 12q49 6 57 4q10 -2 26.5 2t20.5 4q57 14 73.5 18.5t53.5 2.5q8 4 23.5 -5t18.5 -27.5t-5 -31.5q-25 -37 -180 -114l-117 -60q-33 -20 -72 -24l-30 12v-12q-6 -43 -2 -92v-43q4 -68 12 -76q-2 -2 10 -47q0 -33 45 -94l29 -9 q23 0 108 35l93 37q8 0 55 33t73.5 6t6.5 -74q-20 -49 -71.5 -104.5t-111.5 -89.5q-86 -37 -122 -29q-25 0 -80 20q0 -2 -4 -2l-107 23q0 8 -29 18l-36 23q0 8 -19 22q-14 6 -22.5 24.5t-8.5 25.5l-18 30q-8 4 -23 47q-8 10 -10 37q-10 23 -10 64q-12 18 -20.5 80.5 t-6.5 105.5v19q-84 -41 -215 -48q-23 0 -22 -8q0 -18 -12 -65l-35 -226q20 -152 -37 -159q-16 0 -54 -8.5t-63 14.5q-47 27 -66.5 54.5t-17.5 62.5q2 29 10 122q4 4 3 46.5t6 64.5l32 127q6 4 17 61q-2 4 -2 21z" />
<glyph unicode="&#xc7;" horiz-adv-x="907" d="M383 1253q29 12 119 9.5t129 -17.5l51 -16q63 -43 72 -43q84 -66 96 -172q12 -45 4 -82q0 -12 -8 -53l-21 -48l-24 -34q-12 -2 -15 -2q-76 -12 -116.5 -3t-71.5 44q-6 12 -6 22q2 10 4 19q12 33 12 32q27 66 -4 111q0 6 -20.5 22.5t-31.5 24.5t-40 2q-49 -20 -84 -125 q-41 -53 -57 -139q-25 -154 -25 -174l-2 -45v-19q-4 -4 4 -178q2 -10 8 -29q6 -23 19 -73l26 -45q10 -6 27 -37q10 0 16 -15q14 -14 13 -16q10 -2 30 -12q55 -29 97 12q14 14 35.5 40t33 41t35.5 30q68 51 117 -4q10 -16 3 -79t-58 -130q-4 -12 -27 -40t-47 -44 q-4 -10 -107 -17l60 -92q43 -92 49 -134t-39 -105q-37 -57 -139 -64q-51 -6 -158 39q-4 4 -21.5 17.5t-25.5 23.5q-27 25 -27 71t23.5 80.5t54.5 34.5q41 0 41 -41q0 -20 -2 -32q8 -12 16.5 -39t17.5 -37t11 -10h12q33 0 72 30q10 18 10 69.5t-28 72.5l-23 45q-12 18 -70 86 q-16 4 -18 4l-27 6q-16 0 -32.5 10t-54.5 36t-58 42q-61 49 -88 113q-8 14 -10 39.5t-9 37.5q-16 16 -15 53.5t-5 90.5q0 25 2 28q-10 10 -8 36t2 71q6 12 5 72.5t3 91.5q-8 18 -2 53l2 61q2 37 19 78q2 18 8 44t53 104q0 16 31 41q0 8 16 24.5t37 40.5q29 35 63.5 51 t65.5 39z" />
<glyph unicode="&#xc8;" horiz-adv-x="821" d="M246 1755l33 2q96 -33 159 -115q33 -47 33 -53q59 -72 70 -104q12 -51 -13.5 -77t-52.5 -26q-80 12 -121 97q-23 20 -63 65q-41 41 -68 62q-39 29 -41 34q-43 14 -26 35q43 57 90 80zM330 477v-82q0 -127 14 -141q-2 -2 10 -49q0 -16 17 -51q0 -10 57 -50q25 0 121 41 l145 56q27 8 50.5 -7.5t28.5 -53.5t-2 -54t-34.5 -41t-36 -35t-31 -21.5t-50 -23.5t-37.5 -18q-80 -37 -123 -29q-27 0 -54.5 10.5t-30.5 9.5t-16.5 2t-26 6t-63.5 13q0 8 -28 16l-56 45q-14 8 -30 52l-19 30q-8 6 -22 48q-8 10 -11 36q-10 23 -10 64q-8 10 -18 78 q-14 88 -2 157q0 39 14 76q2 16 4 33q10 53 14 82q-8 29 27 137q0 16 13.5 48t15.5 67l16 39q0 16 31 120q16 39 16 46l51 108l25 33q14 14 43 24q12 10 66 -2q33 -12 45 -24q14 -6 34 -6l158 10q59 -4 79.5 -13.5t40 -32t14.5 -45t-17 -34.5q-27 -23 -98 -53 q-125 -68 -136 -72l-49 -22q-31 -20 -39 -43q-63 -229 -68 -255t-6 -31t-1 -7l41 4q90 29 106 18q8 0 23 6q76 27 133 23q10 6 22 -8.5t19 -34.5q12 -51 -31 -80q-86 -57 -205 -92q-39 -31 -108 -39z" />
<glyph unicode="&#xc9;" horiz-adv-x="821" d="M723 1763l33 -2q47 -23 90 -80q16 -20 -27 -34q-2 -6 -22 -21q-45 -35 -86 -78t-64 -63q-41 -84 -121 -96q-27 0 -52 25.5t-13 76.5q10 33 69 104q0 6 33 54q64 81 160 114zM330 477v-82q0 -127 14 -141q-2 -2 10 -49q0 -16 17 -51q0 -10 57 -50q25 0 121 41l145 56 q27 8 50.5 -7.5t28.5 -53.5t-2 -54t-34.5 -41t-36 -35t-31 -21.5t-50 -23.5t-37.5 -18q-80 -37 -123 -29q-27 0 -54.5 10.5t-30.5 9.5t-16.5 2t-26 6t-63.5 13q0 8 -28 16l-56 45q-14 8 -30 52l-19 30q-8 6 -22 48q-8 10 -11 36q-10 23 -10 64q-8 10 -18 78q-14 88 -2 157 q0 39 14 76q2 16 4 33q10 53 14 82q-8 29 27 137q0 16 13.5 48t15.5 67l16 39q0 16 31 120q16 39 16 46l51 108l25 33q14 14 43 24q12 10 66 -2q33 -12 45 -24q14 -6 34 -6l158 10q59 -4 79.5 -13.5t40 -32t14.5 -45t-17 -34.5q-27 -23 -98 -53q-125 -68 -136 -72l-49 -22 q-31 -20 -39 -43q-63 -229 -68 -255t-6 -31t-1 -7l41 4q90 29 106 18q8 0 23 6q76 27 133 23q10 6 22 -8.5t19 -34.5q12 -51 -31 -80q-86 -57 -205 -92q-39 -31 -108 -39z" />
<glyph unicode="&#xca;" horiz-adv-x="821" d="M436 1724q51 0 66 -10q49 -33 100 -86q84 -88 108.5 -107.5t36 -43t9.5 -35.5t-10.5 -19.5t-26 -12.5t-31.5 -13t-63 6q-20 0 -45 43q-25 6 -49.5 35.5t-51.5 48.5q-12 18 -22.5 17t-19.5 -15t-20 -30.5t-16.5 -24t-11.5 -15.5q-10 -18 -14 -22q-33 -35 -94 -8 q-18 4 -34 23.5t3 53.5q0 10 69.5 96.5t77.5 94.5q10 16 39 24zM330 477v-82q0 -127 14 -141q-2 -2 10 -49q0 -16 17 -51q0 -10 57 -50q25 0 121 41l145 56q27 8 50.5 -7.5t28.5 -53.5t-2 -54t-34.5 -41t-36 -35t-31 -21.5t-50 -23.5t-37.5 -18q-80 -37 -123 -29 q-27 0 -54.5 10.5t-30.5 9.5t-16.5 2t-26 6t-63.5 13q0 8 -28 16l-56 45q-14 8 -30 52l-19 30q-8 6 -22 48q-8 10 -11 36q-10 23 -10 64q-8 10 -18 78q-14 88 -2 157q0 39 14 76q2 16 4 33q10 53 14 82q-8 29 27 137q0 16 13.5 48t15.5 67l16 39q0 16 31 120q16 39 16 46 l51 108l25 33q14 14 43 24q12 10 66 -2q33 -12 45 -24q14 -6 34 -6l158 10q59 -4 79.5 -13.5t40 -32t14.5 -45t-17 -34.5q-27 -23 -98 -53q-125 -68 -136 -72l-49 -22q-31 -20 -39 -43q-63 -229 -68 -255t-6 -31t-1 -7l41 4q90 29 106 18q8 0 23 6q76 27 133 23 q10 6 22 -8.5t19 -34.5q12 -51 -31 -80q-86 -57 -205 -92q-39 -31 -108 -39z" />
<glyph unicode="&#xcb;" horiz-adv-x="821" d="M729 1671q72 0 90 -78q0 -70 -43 -111.5t-81 -41.5t-94 34.5t-56 75.5q0 102 88 123q27 2 76 -6q0 4 20 4zM313 1454q-47 0 -94 28.5t-47 90.5q0 113 102 131q100 -35 113 -47l31 -70q-6 -43 -43 -88t-62 -45zM330 477v-82q0 -127 14 -141q-2 -2 10 -49q0 -16 17 -51 q0 -10 57 -50q25 0 121 41l145 56q27 8 50.5 -7.5t28.5 -53.5t-2 -54t-34.5 -41t-36 -35t-31 -21.5t-50 -23.5t-37.5 -18q-80 -37 -123 -29q-27 0 -54.5 10.5t-30.5 9.5t-16.5 2t-26 6t-63.5 13q0 8 -28 16l-56 45q-14 8 -30 52l-19 30q-8 6 -22 48q-8 10 -11 36 q-10 23 -10 64q-8 10 -18 78q-14 88 -2 157q0 39 14 76q2 16 4 33q10 53 14 82q-8 29 27 137q0 16 13.5 48t15.5 67l16 39q0 16 31 120q16 39 16 46l51 108l25 33q14 14 43 24q12 10 66 -2q33 -12 45 -24q14 -6 34 -6l158 10q59 -4 79.5 -13.5t40 -32t14.5 -45t-17 -34.5 q-27 -23 -98 -53q-125 -68 -136 -72l-49 -22q-31 -20 -39 -43q-63 -229 -68 -255t-6 -31t-1 -7l41 4q90 29 106 18q8 0 23 6q76 27 133 23q10 6 22 -8.5t19 -34.5q12 -51 -31 -80q-86 -57 -205 -92q-39 -31 -108 -39z" />
<glyph unicode="&#xcc;" d="M186 1755l33 2q96 -33 160 -115q33 -47 33 -53q59 -72 69 -104q12 -51 -13.5 -77t-51.5 -26q-80 12 -121 97q-23 20 -66 65q-39 41 -65 62q-39 29 -41 34q-43 14 -27 35q43 57 90 80zM761.5 1090.5q-16.5 -9.5 -33.5 -9.5t-91 -4q-47 -10 -94 -26h-2q0 -37 -21 -109 q0 -25 -10 -80q0 -16 -6 -32.5t-6 -51.5q-14 -84 -12.5 -92t-0.5 -22.5t-8 -43t-6 -67.5t-10 -70v-22q4 -74 -5.5 -104.5t-9.5 -52t-10 -66.5t-6 -107h12q51 4 54.5 3t27.5 5l33 -2h21q6 0 26.5 -15.5t28.5 -29.5q14 -14 9 -27.5t-46 -44.5l-39 -12q-6 -6 -28.5 -14 t-39.5 -8q-47 -10 -55 -35q-8 -16 -98 -12h-70l-39 -13q-51 -20 -90 -10t-52 15.5t-31.5 20.5t-15.5 34.5t13 56.5q35 29 49 37q98 31 125 41q0 68 -4 80q6 2 15 88q2 8 -11 39v12q6 57 -2 104q0 2 8 72q10 12 0 66q8 39 15 61l2 29q0 12 12 73v21l4 16q37 152 49 222 l-20 -5l-68 -10q-78 -20 -137 35q-51 70 -2 119q31 27 94 37q55 18 72 26q20 0 96 45q76 10 88 11l96 12q18 2 49 -3t37 -14q27 -6 66 -24l49 -45q29 -41 39 -62q6 -26 -10.5 -35.5z" />
<glyph unicode="&#xcd;" d="M664 1763l32 -2q47 -23 90 -80q16 -20 -26 -34q-2 -6 -23 -21q-45 -35 -86 -78t-63 -63q-41 -84 -121 -96q-27 0 -52.5 25.5t-13.5 76.5q10 33 70 104q0 6 33 54q64 81 160 114zM761.5 1090.5q-16.5 -9.5 -33.5 -9.5t-91 -4q-47 -10 -94 -26h-2q0 -37 -21 -109 q0 -25 -10 -80q0 -16 -6 -32.5t-6 -51.5q-14 -84 -12.5 -92t-0.5 -22.5t-8 -43t-6 -67.5t-10 -70v-22q4 -74 -5.5 -104.5t-9.5 -52t-10 -66.5t-6 -107h12q51 4 54.5 3t27.5 5l33 -2h21q6 0 26.5 -15.5t28.5 -29.5q14 -14 9 -27.5t-46 -44.5l-39 -12q-6 -6 -28.5 -14 t-39.5 -8q-47 -10 -55 -35q-8 -16 -98 -12h-70l-39 -13q-51 -20 -90 -10t-52 15.5t-31.5 20.5t-15.5 34.5t13 56.5q35 29 49 37q98 31 125 41q0 68 -4 80q6 2 15 88q2 8 -11 39v12q6 57 -2 104q0 2 8 72q10 12 0 66q8 39 15 61l2 29q0 12 12 73v21l4 16q37 152 49 222 l-20 -5l-68 -10q-78 -20 -137 35q-51 70 -2 119q31 27 94 37q55 18 72 26q20 0 96 45q76 10 88 11l96 12q18 2 49 -3t37 -14q27 -6 66 -24l49 -45q29 -41 39 -62q6 -26 -10.5 -35.5z" />
<glyph unicode="&#xce;" d="M377 1724q51 0 65 -10q49 -33 101 -86q84 -88 108.5 -107.5t35.5 -43t9 -35.5t-10 -19.5t-25.5 -12.5t-32 -13t-63.5 6q-20 0 -45 43q-25 6 -49.5 35.5t-50.5 48.5q-12 18 -22.5 17t-19.5 -15t-20.5 -30.5t-16.5 -24t-9 -15.5q-12 -18 -17 -22q-33 -35 -94 -8 q-18 4 -33.5 23.5t2.5 53.5q0 10 70 96.5t78 94.5q10 16 39 24zM761.5 1090.5q-16.5 -9.5 -33.5 -9.5t-91 -4q-47 -10 -94 -26h-2q0 -37 -21 -109q0 -25 -10 -80q0 -16 -6 -32.5t-6 -51.5q-14 -84 -12.5 -92t-0.5 -22.5t-8 -43t-6 -67.5t-10 -70v-22q4 -74 -5.5 -104.5 t-9.5 -52t-10 -66.5t-6 -107h12q51 4 54.5 3t27.5 5l33 -2h21q6 0 26.5 -15.5t28.5 -29.5q14 -14 9 -27.5t-46 -44.5l-39 -12q-6 -6 -28.5 -14t-39.5 -8q-47 -10 -55 -35q-8 -16 -98 -12h-70l-39 -13q-51 -20 -90 -10t-52 15.5t-31.5 20.5t-15.5 34.5t13 56.5q35 29 49 37 q98 31 125 41q0 68 -4 80q6 2 15 88q2 8 -11 39v12q6 57 -2 104q0 2 8 72q10 12 0 66q8 39 15 61l2 29q0 12 12 73v21l4 16q37 152 49 222l-20 -5l-68 -10q-78 -20 -137 35q-51 70 -2 119q31 27 94 37q55 18 72 26q20 0 96 45q76 10 88 11l96 12q18 2 49 -3t37 -14 q27 -6 66 -24l49 -45q29 -41 39 -62q6 -26 -10.5 -35.5z" />
<glyph unicode="&#xcf;" d="M670 1671q72 0 90 -78q0 -70 -43 -111.5t-81 -41.5t-94.5 34.5t-56.5 75.5q0 102 88 123q27 2 76 -6q1 4 21 4zM254 1454q-47 0 -94 28.5t-47 90.5q0 113 102 131q100 -35 113 -47l30 -70q-6 -43 -42.5 -88t-61.5 -45zM761.5 1090.5q-16.5 -9.5 -33.5 -9.5t-91 -4 q-47 -10 -94 -26h-2q0 -37 -21 -109q0 -25 -10 -80q0 -16 -6 -32.5t-6 -51.5q-14 -84 -12.5 -92t-0.5 -22.5t-8 -43t-6 -67.5t-10 -70v-22q4 -74 -5.5 -104.5t-9.5 -52t-10 -66.5t-6 -107h12q51 4 54.5 3t27.5 5l33 -2h21q6 0 26.5 -15.5t28.5 -29.5q14 -14 9 -27.5 t-46 -44.5l-39 -12q-6 -6 -28.5 -14t-39.5 -8q-47 -10 -55 -35q-8 -16 -98 -12h-70l-39 -13q-51 -20 -90 -10t-52 15.5t-31.5 20.5t-15.5 34.5t13 56.5q35 29 49 37q98 31 125 41q0 68 -4 80q6 2 15 88q2 8 -11 39v12q6 57 -2 104q0 2 8 72q10 12 0 66q8 39 15 61l2 29 q0 12 12 73v21l4 16q37 152 49 222l-20 -5l-68 -10q-78 -20 -137 35q-51 70 -2 119q31 27 94 37q55 18 72 26q20 0 96 45q76 10 88 11l96 12q18 2 49 -3t37 -14q27 -6 66 -24l49 -45q29 -41 39 -62q6 -26 -10.5 -35.5z" />
<glyph unicode="&#xd0;" horiz-adv-x="1093" d="M485 680q20 0 140 -8q90 -23 94 -35q0 -4 -1 -9t-2 -20.5t-3 -19.5q-6 -12 -51 -21q-51 -10 -80 -10h-33q-4 0 -18.5 -4t-47.5 -4h-10v-10q-27 -350 -20 -373q8 4 20 8q16 0 43 27q72 59 80 63l29 27q25 4 53 49v2l39 51l41 84q18 25 30.5 72t24.5 90v31l4 55q0 16 4 41 q0 240 -131 313q-53 31 -102 17q-18 0 -70 -29v-23q-2 -29 -2 -73l-10 -76zM213 678l20 2v41q0 82 4.5 94t2.5 49q6 6 6 72l-23 -16q-8 -6 -31.5 -36t-48 -53.5t-77 -9t-58.5 48.5q16 53 35.5 92t46.5 107q41 41 49 84l15 21l32 36q0 14 50 58q6 10 32.5 15t79.5 28 q8 8 34 15t36 7q115 25 198 -10q47 0 68 -8q20 -18 55 -27l105 -55q23 -23 92 -107q76 -135 96 -274q2 -39 2 -137q-18 -186 -67 -271q-4 -25 -23 -61q0 -4 -27.5 -50t-62.5 -90t-45 -59q-111 -102 -122 -108t-16 -9.5t-12 -5.5q-154 -78 -163 -84t-50 -14q-59 -6 -73 6 q-33 14 -60 43q-8 2 -32 33q-33 25 -37 29q-18 27 -26.5 67.5t-8.5 42.5q-6 53 -4 92q-4 8 -4 30t6 50.5t6 69.5t10 90q-14 -2 -51 -2t-78 29l-26 16l-11 43q0 33 6 60q27 8 73 10t75 6h2z" />
<glyph unicode="&#xd1;" horiz-adv-x="1097" d="M461 1663l155 -10q23 -2 115 -17.5t102.5 -15.5t40 12.5t54.5 12.5q8 -10 8 -25q0 -51 -54.5 -102.5t-148.5 -51.5q-14 0 -57 9q-125 25 -309 24l-84 -20q-10 0 -10.5 44t31.5 86t157 54zM741 459q-4 10 -1 34.5t8 65.5q0 63 2 78l-2 41q0 33 2 55v60q4 18 1 61t3 109.5 t10 80.5v41q0 6 2 43v15q2 31 -2 37l18 75l9 43q4 8 30 35q6 6 47 6t61.5 -2t27 -11t12.5 -38q12 -27 6 -67q2 -12 2 -19v-20q6 -41 -2 -84q0 -16 2 -33v-18q0 -41 -6 -72v-51q2 -27 -6 -52q0 -8 -2 -49q-4 -14 -9 -35q6 -16 0 -43q-6 -6 4 -49q-8 -27 3 -96v-41 q6 -66 -3 -129v-12q0 -41 -4 -60q4 -35 0 -88v-12l-4 -49q-23 -145 -131 -166q-133 -25 -211 72l-12 30q-23 4 -59 95q-57 137 -64 151q-29 80 -29 86l-4 39q-2 4 -8 16.5t-10 24.5q0 14 -14 61q0 4 -11 52l-24 182q0 6 -2 20l-9 -45q-14 -137 -20 -165l-10 -207v-82 l-6 -101q0 -76 6 -141q-2 -59 -22.5 -78.5t-61.5 -21.5q-29 8 -78 30q-14 8 -19.5 34t-23.5 44.5t-21 40.5l-24 156q0 33 3 68.5t0 74.5t10.5 90.5t11 87t4 92t6.5 82t6 39.5q0 33 4 52q-2 6 12 61q0 14 6.5 43t12.5 78t22.5 79.5t50.5 69.5q18 10 33 54q14 20 53 39 q14 10 38 10t44 -15q80 -31 99 -108l8 -51q0 -12 18 -56q0 -20 8 -59q0 -29 15 -59q20 -104 31 -146q10 -14 16 -39q4 -18 16 -55q4 -35 19 -80q84 -274 104 -309q4 8 4 51z" />
<glyph unicode="&#xd2;" horiz-adv-x="999" d="M250 1755l33 2q96 -33 159 -115q33 -47 33 -53q59 -72 70 -104q12 -51 -13.5 -77t-52.5 -26q-80 12 -121 97q-23 20 -63 65q-41 41 -68 62q-39 29 -41 34q-43 14 -26 35q43 57 90 80zM332 465l6 -184q33 -117 96 -164q10 -10 47 -23l51 -12q10 0 23 8q14 4 20 10 q14 18 28.5 32.5t12.5 14.5q8 8 7 27q6 6 16 27q23 115 45 147q8 90 8 115q0 86 -45 211q-25 29 -24 182q-12 31 -14.5 56.5t-13.5 55t-17.5 40t-7.5 19.5t-9 24q-33 49 -100 -54l-35 -61q0 -4 -20 -76q-33 -115 -32 -128t-24 -85q-2 -6 -1 -28.5t-8 -62.5t-9 -91zM98 614 l15 152q0 12 9 36.5t11 31.5q0 4 4 14q0 55 31 96q47 109 71.5 162t53.5 88q2 10 43 33q84 45 157.5 45t141.5 -23q23 -4 60.5 -30.5t43.5 -28.5q35 -20 73 -87t41 -97.5t24.5 -97t21.5 -98.5t11.5 -95.5t9.5 -102.5q-12 -289 -74 -417q-12 -90 -47 -115l-4 -29 q-2 -25 -23.5 -55.5t-54.5 -46.5q-6 -6 -82 -19q-109 -20 -143 -20q-45 -14 -114 5t-79 20.5t-44 23t-44 33.5q-33 25 -39 39l-29 57q-27 27 -37 77t-20 64q-10 23 -18 47q2 14 2 52v20q-8 31 4 60q2 14 3 35.5t5 62.5v26q18 62 16 82z" />
<glyph unicode="&#xd3;" horiz-adv-x="999" d="M727 1763l33 -2q47 -23 90 -80q16 -20 -27 -34q-2 -6 -22 -21q-45 -35 -86 -78t-64 -63q-41 -84 -121 -96q-27 0 -52 25.5t-13 76.5q10 33 70 104q0 6 32 54q64 81 160 114zM332 465l6 -184q33 -117 96 -164q10 -10 47 -23l51 -12q10 0 23 8q14 4 20 10q14 18 28.5 32.5 t12.5 14.5q8 8 7 27q6 6 16 27q23 115 45 147q8 90 8 115q0 86 -45 211q-25 29 -24 182q-12 31 -14.5 56.5t-13.5 55t-17.5 40t-7.5 19.5t-9 24q-33 49 -100 -54l-35 -61q0 -4 -20 -76q-33 -115 -32 -128t-24 -85q-2 -6 -1 -28.5t-8 -62.5t-9 -91zM98 614l15 152 q0 12 9 36.5t11 31.5q0 4 4 14q0 55 31 96q47 109 71.5 162t53.5 88q2 10 43 33q84 45 157.5 45t141.5 -23q23 -4 60.5 -30.5t43.5 -28.5q35 -20 73 -87t41 -97.5t24.5 -97t21.5 -98.5t11.5 -95.5t9.5 -102.5q-12 -289 -74 -417q-12 -90 -47 -115l-4 -29q-2 -25 -23.5 -55.5 t-54.5 -46.5q-6 -6 -82 -19q-109 -20 -143 -20q-45 -14 -114 5t-79 20.5t-44 23t-44 33.5q-33 25 -39 39l-29 57q-27 27 -37 77t-20 64q-10 23 -18 47q2 14 2 52v20q-8 31 4 60q2 14 3 35.5t5 62.5v26q18 62 16 82z" />
<glyph unicode="&#xd4;" horiz-adv-x="999" d="M440 1724q51 0 68 -10q47 -33 98 -86q84 -88 108.5 -107.5t36 -43t9.5 -35.5t-10.5 -19.5t-25.5 -12.5t-31.5 -13t-63.5 6q-20 0 -45 43q-25 6 -49.5 35.5t-51.5 48.5q-12 18 -22 17t-19.5 -15t-20.5 -30.5t-16.5 -24t-11.5 -15.5q-10 -18 -14 -22q-33 -35 -94 -8 q-18 4 -33.5 23.5t2.5 53.5q0 10 69.5 96.5t77.5 94.5q10 16 39 24zM332 465l6 -184q33 -117 96 -164q10 -10 47 -23l51 -12q10 0 23 8q14 4 20 10q14 18 28.5 32.5t12.5 14.5q8 8 7 27q6 6 16 27q23 115 45 147q8 90 8 115q0 86 -45 211q-25 29 -24 182q-12 31 -14.5 56.5 t-13.5 55t-17.5 40t-7.5 19.5t-9 24q-33 49 -100 -54l-35 -61q0 -4 -20 -76q-33 -115 -32 -128t-24 -85q-2 -6 -1 -28.5t-8 -62.5t-9 -91zM98 614l15 152q0 12 9 36.5t11 31.5q0 4 4 14q0 55 31 96q47 109 71.5 162t53.5 88q2 10 43 33q84 45 157.5 45t141.5 -23 q23 -4 60.5 -30.5t43.5 -28.5q35 -20 73 -87t41 -97.5t24.5 -97t21.5 -98.5t11.5 -95.5t9.5 -102.5q-12 -289 -74 -417q-12 -90 -47 -115l-4 -29q-2 -25 -23.5 -55.5t-54.5 -46.5q-6 -6 -82 -19q-109 -20 -143 -20q-45 -14 -114 5t-79 20.5t-44 23t-44 33.5q-33 25 -39 39 l-29 57q-27 27 -37 77t-20 64q-10 23 -18 47q2 14 2 52v20q-8 31 4 60q2 14 3 35.5t5 62.5v26q18 62 16 82z" />
<glyph unicode="&#xd5;" horiz-adv-x="999" d="M356 1663l156 -10q23 -2 115 -17.5t102 -15.5t40 12.5t54 12.5q8 -10 8 -25q0 -51 -54 -102.5t-148 -51.5q-14 0 -56 9q-127 25 -311 24l-84 -20q-10 0 -10 44t31.5 86t156.5 54zM332 465l6 -184q33 -117 96 -164q10 -10 47 -23l51 -12q10 0 23 8q14 4 20 10 q14 18 28.5 32.5t12.5 14.5q8 8 7 27q6 6 16 27q23 115 45 147q8 90 8 115q0 86 -45 211q-25 29 -24 182q-12 31 -14.5 56.5t-13.5 55t-17.5 40t-7.5 19.5t-9 24q-33 49 -100 -54l-35 -61q0 -4 -20 -76q-33 -115 -32 -128t-24 -85q-2 -6 -1 -28.5t-8 -62.5t-9 -91zM98 614 l15 152q0 12 9 36.5t11 31.5q0 4 4 14q0 55 31 96q47 109 71.5 162t53.5 88q2 10 43 33q84 45 157.5 45t141.5 -23q23 -4 60.5 -30.5t43.5 -28.5q35 -20 73 -87t41 -97.5t24.5 -97t21.5 -98.5t11.5 -95.5t9.5 -102.5q-12 -289 -74 -417q-12 -90 -47 -115l-4 -29 q-2 -25 -23.5 -55.5t-54.5 -46.5q-6 -6 -82 -19q-109 -20 -143 -20q-45 -14 -114 5t-79 20.5t-44 23t-44 33.5q-33 25 -39 39l-29 57q-27 27 -37 77t-20 64q-10 23 -18 47q2 14 2 52v20q-8 31 4 60q2 14 3 35.5t5 62.5v26q18 62 16 82z" />
<glyph unicode="&#xd6;" horiz-adv-x="999" d="M317 1454q-47 0 -94 28.5t-47 90.5q0 113 103 131q100 -35 112 -47l31 -70q-6 -43 -43 -88t-62 -45zM733 1671q72 0 90 -78q0 -70 -43 -111.5t-80.5 -41.5t-94 34.5t-56.5 75.5q0 102 88 123q27 2 76 -6q0 4 20 4zM332 465l6 -184q33 -117 96 -164q10 -10 47 -23l51 -12 q10 0 23 8q14 4 20 10q14 18 28.5 32.5t12.5 14.5q8 8 7 27q6 6 16 27q23 115 45 147q8 90 8 115q0 86 -45 211q-25 29 -24 182q-12 31 -14.5 56.5t-13.5 55t-17.5 40t-7.5 19.5t-9 24q-33 49 -100 -54l-35 -61q0 -4 -20 -76q-33 -115 -32 -128t-24 -85q-2 -6 -1 -28.5 t-8 -62.5t-9 -91zM98 614l15 152q0 12 9 36.5t11 31.5q0 4 4 14q0 55 31 96q47 109 71.5 162t53.5 88q2 10 43 33q84 45 157.5 45t141.5 -23q23 -4 60.5 -30.5t43.5 -28.5q35 -20 73 -87t41 -97.5t24.5 -97t21.5 -98.5t11.5 -95.5t9.5 -102.5q-12 -289 -74 -417 q-12 -90 -47 -115l-4 -29q-2 -25 -23.5 -55.5t-54.5 -46.5q-6 -6 -82 -19q-109 -20 -143 -20q-45 -14 -114 5t-79 20.5t-44 23t-44 33.5q-33 25 -39 39l-29 57q-27 27 -37 77t-20 64q-10 23 -18 47q2 14 2 52v20q-8 31 4 60q2 14 3 35.5t5 62.5v26q18 62 16 82z" />
<glyph unicode="&#xd7;" horiz-adv-x="1056" d="M735 197l-69 59q-45 27 -69 51.5t-34 33.5t-20.5 20.5t-20.5 21.5l-47 -47q-6 -23 -21.5 -37t-15.5 -20q-4 -23 -47 -66q-8 -10 -65 -16l-43 12q-4 0 -25 20q-14 6 -49 41q-6 18 -35 47q8 31 37 60l41 47q27 45 74 90l36 37l-110 119l-19 24q-31 29 -32.5 74t14.5 53 q25 25 33 28t20 7q20 4 58 -20l41 -29q16 -18 139 -119q119 109 160 150l24 18q29 31 74 33t53 -15q25 -25 28 -32.5t7 -20.5q4 -20 -21 -57l-28 -41q-18 -16 -137 -164q63 -53 88 -80q23 -6 37 -21.5t20 -15.5q23 -4 66 -47q10 -8 16 -65l-12 -43q0 -4 -21 -25 q-6 -14 -41 -49q-18 -6 -47 -35q-23 7 -37 19z" />
<glyph unicode="&#xd8;" horiz-adv-x="999" d="M395 948q-53 -129 -84 -354q2 -8 -4 -59l207 327q53 76 68 109l96 98q-8 12 -27 29l-20 4q-33 4 -117 -45q-4 0 -33.5 -24.5t-36.5 -33.5q-6 -2 -23.5 -18.5t-25.5 -32.5zM610 297q74 154 74 158q0 6 10.5 41.5t13.5 51t7 26t4 47.5q4 2 14 92v61q0 16 -1 46t-1 42 q-43 -59 -61 -94l-25 -72l-59 -32q-8 -16 -8 -31l-27 -33q-8 -23 -40 -77t-38 -54q0 -2 -10 -14q-29 -39 -51 -90q-35 -39 -68 -119q0 -6 18.5 -26.5t30.5 -39.5q2 0 17 -12q35 -27 57 -16q2 0 22 10q0 6 25 12q2 0 12 16q4 0 17 15q0 6 12 17t20 20q-2 4 21 39q4 0 14 16z M901 1116q6 -12 14 -33v-2q0 -4 3 -12q12 -37 22 -121q16 -80 4 -172q0 -31 -4 -47q2 -23 -6 -67q6 -16 -12 -52q0 -25 -19 -88q6 -12 -35 -116.5t-104 -217.5q-29 -57 -92 -129q-12 -18 -60 -57q-51 -55 -94 -70q-6 -2 -30.5 -1t-30.5 8q-27 0 -34 4t-9 4q-10 4 -23.5 7 t-28 9t-18.5 6t-7 2t-18.5 6.5t-80.5 36.5q-59 -133 -138 -118q-25 6 -45 46t-6 95l17 45q0 41 43 125q-4 12 -5 20q-10 57 -16 127q-4 8 -4 29q-6 37 -6 70q-4 16 -4 42.5t-2 28.5t-3 49.5t1 50.5t4 38l4 106v37l4 82q0 10 6 41q4 4 12 59q16 70 23.5 83t10.5 21.5 t9.5 16.5t20.5 37l37 55q0 4 13 16.5t22 14.5q4 12 16 14q14 4 43 23q23 8 22 12q37 25 86 25l31 -2l60 -23q74 29 88 29q4 6 26 12h45l64 -14q23 -4 41 -25l28 -22l5 10q4 2 18 13t20 13l62 19q37 16 64.5 8t31.5 -23l10 -49q-2 -6 -28 -55l-31 -31z" />
<glyph unicode="&#xd9;" horiz-adv-x="1040" d="M342 1755l33 2q96 -33 160 -115q33 -47 32 -53q59 -72 70 -104q12 -51 -13.5 -77t-52.5 -26q-80 12 -120 97q-23 20 -66 65q-39 41 -66 62q-39 29 -40 34q-43 14 -27 35q43 57 90 80zM133 174q-8 8 -15 39t-6 57.5t-6 69.5q2 8 2.5 46t-4 76t-3.5 61.5t-1 51.5q2 14 9 50 q-2 2 -2.5 52t8.5 81q0 57 10 125v35q14 88 18 124q2 45 13 74q-8 27 18 115q8 20 55 39l-2 -2q12 8 51 6t52.5 -8t48.5 -17q47 -12 24 -227q0 -20 -12 -102q0 -41 -6 -84v-39l-4 -52q0 -18 -1 -34.5t-2 -50t-6 -52t-5 -24.5q-6 -6 -9 -35q-2 -35 -12 -84q-10 -18 8 -215 q4 -61 29 -80.5t68 10.5q12 12 14 17l8 30q8 0 23 41l22 41l6 25q0 16 17.5 46t21.5 40l31 102l12 51q0 12 17 45q0 10 10 54q0 39 -2 55q2 0 3 12.5t10 40t9 68.5q0 6 19 41q0 53 39 141q-2 -2 0 4q2 8 3 13.5t3 11.5t2 12q-6 12 2 30.5t14 39t15 41.5l49 32q10 0 27.5 3.5 t80.5 -0.5q25 -8 39 -46q23 -35 6 -102q0 -14 -16 -100q0 -14 -12.5 -67.5t-17.5 -95.5t-11 -56q-4 -29 -2 -48l-12 -88q0 -33 -6.5 -98t-13.5 -101t20 -143l24 -133q0 -31 11 -52l10 -21v-11q57 -113 -39 -131q-47 -12 -57.5 -17t-44 4t-62.5 38q-8 12 -23 74q-6 12 -14 71 q-6 6 -14 47q4 8 -8 27q-14 -29 -21 -37q-14 -23 -17 -32t-16 -42l-37 -65q-43 -80 -106 -72q-2 2 -41 4q-8 8 -57 15q-8 2 -20.5 3t-33.5 3q-4 6 -30 22q-61 23 -84 62q-18 4 -27 28q-4 12 -27 58z" />
<glyph unicode="&#xda;" horiz-adv-x="1040" d="M819 1763l33 -2q47 -23 90 -80q16 -20 -27 -34q-2 -6 -22 -21q-45 -35 -86 -78t-64 -63q-41 -84 -120 -96q-27 0 -52.5 25.5t-13.5 76.5q10 33 70 104q0 6 32 54q64 81 160 114zM133 174q-8 8 -15 39t-6 57.5t-6 69.5q2 8 2.5 46t-4 76t-3.5 61.5t-1 51.5q2 14 9 50 q-2 2 -2.5 52t8.5 81q0 57 10 125v35q14 88 18 124q2 45 13 74q-8 27 18 115q8 20 55 39l-2 -2q12 8 51 6t52.5 -8t48.5 -17q47 -12 24 -227q0 -20 -12 -102q0 -41 -6 -84v-39l-4 -52q0 -18 -1 -34.5t-2 -50t-6 -52t-5 -24.5q-6 -6 -9 -35q-2 -35 -12 -84q-10 -18 8 -215 q4 -61 29 -80.5t68 10.5q12 12 14 17l8 30q8 0 23 41l22 41l6 25q0 16 17.5 46t21.5 40l31 102l12 51q0 12 17 45q0 10 10 54q0 39 -2 55q2 0 3 12.5t10 40t9 68.5q0 6 19 41q0 53 39 141q-2 -2 0 4q2 8 3 13.5t3 11.5t2 12q-6 12 2 30.5t14 39t15 41.5l49 32q10 0 27.5 3.5 t80.5 -0.5q25 -8 39 -46q23 -35 6 -102q0 -14 -16 -100q0 -14 -12.5 -67.5t-17.5 -95.5t-11 -56q-4 -29 -2 -48l-12 -88q0 -33 -6.5 -98t-13.5 -101t20 -143l24 -133q0 -31 11 -52l10 -21v-11q57 -113 -39 -131q-47 -12 -57.5 -17t-44 4t-62.5 38q-8 12 -23 74q-6 12 -14 71 q-6 6 -14 47q4 8 -8 27q-14 -29 -21 -37q-14 -23 -17 -32t-16 -42l-37 -65q-43 -80 -106 -72q-2 2 -41 4q-8 8 -57 15q-8 2 -20.5 3t-33.5 3q-4 6 -30 22q-61 23 -84 62q-18 4 -27 28q-4 12 -27 58z" />
<glyph unicode="&#xdb;" horiz-adv-x="1040" d="M532 1724q51 0 66 -10q49 -33 100 -86q84 -88 108.5 -107.5t36 -43t9.5 -35.5t-10 -19.5t-25.5 -12.5t-32 -13t-63.5 6q-20 0 -45 43q-25 6 -49.5 35.5t-51.5 48.5q-12 18 -22 17t-19.5 -15t-20.5 -30.5l-16 -24t-10 -15.5q-12 -18 -16 -22q-33 -35 -94 -8 q-18 4 -33.5 23.5t2.5 53.5q0 10 69.5 96.5t78.5 94.5q9 16 38 24zM133 174q-8 8 -15 39t-6 57.5t-6 69.5q2 8 2.5 46t-4 76t-3.5 61.5t-1 51.5q2 14 9 50q-2 2 -2.5 52t8.5 81q0 57 10 125v35q14 88 18 124q2 45 13 74q-8 27 18 115q8 20 55 39l-2 -2q12 8 51 6t52.5 -8 t48.5 -17q47 -12 24 -227q0 -20 -12 -102q0 -41 -6 -84v-39l-4 -52q0 -18 -1 -34.5t-2 -50t-6 -52t-5 -24.5q-6 -6 -9 -35q-2 -35 -12 -84q-10 -18 8 -215q4 -61 29 -80.5t68 10.5q12 12 14 17l8 30q8 0 23 41l22 41l6 25q0 16 17.5 46t21.5 40l31 102l12 51q0 12 17 45 q0 10 10 54q0 39 -2 55q2 0 3 12.5t10 40t9 68.5q0 6 19 41q0 53 39 141q-2 -2 0 4q2 8 3 13.5t3 11.5t2 12q-6 12 2 30.5t14 39t15 41.5l49 32q10 0 27.5 3.5t80.5 -0.5q25 -8 39 -46q23 -35 6 -102q0 -14 -16 -100q0 -14 -12.5 -67.5t-17.5 -95.5t-11 -56q-4 -29 -2 -48 l-12 -88q0 -33 -6.5 -98t-13.5 -101t20 -143l24 -133q0 -31 11 -52l10 -21v-11q57 -113 -39 -131q-47 -12 -57.5 -17t-44 4t-62.5 38q-8 12 -23 74q-6 12 -14 71q-6 6 -14 47q4 8 -8 27q-14 -29 -21 -37q-14 -23 -17 -32t-16 -42l-37 -65q-43 -80 -106 -72q-2 2 -41 4 q-8 8 -57 15q-8 2 -20.5 3t-33.5 3q-4 6 -30 22q-61 23 -84 62q-18 4 -27 28q-4 12 -27 58z" />
<glyph unicode="&#xdc;" horiz-adv-x="1040" d="M410 1454q-47 0 -94.5 28.5t-47.5 90.5q0 113 103 131q100 -35 112 -47l31 -70q-6 -43 -42.5 -88t-61.5 -45zM825 1671q72 0 90 -78q0 -70 -43 -111.5t-80.5 -41.5t-94 34.5t-56.5 75.5q0 102 88 123q27 2 76 -6q0 4 20 4zM133 174q-8 8 -15 39t-6 57.5t-6 69.5 q2 8 2.5 46t-4 76t-3.5 61.5t-1 51.5q2 14 9 50q-2 2 -2.5 52t8.5 81q0 57 10 125v35q14 88 18 124q2 45 13 74q-8 27 18 115q8 20 55 39l-2 -2q12 8 51 6t52.5 -8t48.5 -17q47 -12 24 -227q0 -20 -12 -102q0 -41 -6 -84v-39l-4 -52q0 -18 -1 -34.5t-2 -50t-6 -52t-5 -24.5 q-6 -6 -9 -35q-2 -35 -12 -84q-10 -18 8 -215q4 -61 29 -80.5t68 10.5q12 12 14 17l8 30q8 0 23 41l22 41l6 25q0 16 17.5 46t21.5 40l31 102l12 51q0 12 17 45q0 10 10 54q0 39 -2 55q2 0 3 12.5t10 40t9 68.5q0 6 19 41q0 53 39 141q-2 -2 0 4q2 8 3 13.5t3 11.5t2 12 q-6 12 2 30.5t14 39t15 41.5l49 32q10 0 27.5 3.5t80.5 -0.5q25 -8 39 -46q23 -35 6 -102q0 -14 -16 -100q0 -14 -12.5 -67.5t-17.5 -95.5t-11 -56q-4 -29 -2 -48l-12 -88q0 -33 -6.5 -98t-13.5 -101t20 -143l24 -133q0 -31 11 -52l10 -21v-11q57 -113 -39 -131 q-47 -12 -57.5 -17t-44 4t-62.5 38q-8 12 -23 74q-6 12 -14 71q-6 6 -14 47q4 8 -8 27q-14 -29 -21 -37q-14 -23 -17 -32t-16 -42l-37 -65q-43 -80 -106 -72q-2 2 -41 4q-8 8 -57 15q-8 2 -20.5 3t-33.5 3q-4 6 -30 22q-61 23 -84 62q-18 4 -27 28q-4 12 -27 58z" />
<glyph unicode="&#xdd;" horiz-adv-x="935" d="M692 1763l33 -2q47 -23 90 -80q16 -20 -27 -34q-2 -6 -22 -21q-45 -35 -86 -78t-64 -63q-41 -84 -120 -96q-27 0 -52.5 25.5t-13.5 76.5q10 33 70 104q0 6 32 54q64 81 160 114zM541 639q0 29 2 47q10 100 15 127t5 33v88q6 8 12 100q0 98 9 146q0 31 20 57q27 45 64 63 h2q31 8 62.5 -2t35.5 -11t11 -4t10.5 -4t8.5 -4t8 -6t7 -6t6 -8q20 -41 29 -270q6 -37 6 -118t-2 -109v-21q-4 -37 -4 -55v-14q0 -39 -6 -60q0 -47 -11 -88q0 -16 -9 -52t-9 -58q2 -10 -18 -86q4 -8 -15 -64q0 -23 -14 -52.5t-24.5 -57t-12.5 -31.5q-12 -63 -65 -137 l-33 -33q4 -4 -10 -19q-12 -14 -123 -73q-2 -2 -42 -12.5t-91.5 -10.5t-98.5 16q-29 6 -51 21q-10 10 -29 20q-10 0 -59 37q-8 6 -53 76q-14 33 -15.5 36l-6.5 13t-7 47q-4 82 55 82q61 0 115 -61q16 -16 20.5 -21.5t19.5 -19.5t24.5 -18.5t24.5 -10.5t29.5 -6t38 9t31.5 24 q0 20 24 53t26 37q6 29 12 41q12 35 20 92q4 4 -8 51q0 8 -33.5 19.5t-58.5 13.5q-41 -8 -104 41q-27 20 -33 31.5t-11.5 15.5t-9.5 14q-43 72 -43 93l-8 20q0 20 -16 37q0 4 -6 74q-14 53 -15 96v33l2 43q-4 16 2 65v78l2 31v43q2 2 2 20l3 21q0 20 2 33q0 86 90 100 q70 6 94 -14q47 -41 41 -170q0 -37 -4 -62q12 -39 6 -67q4 -14 4 -29v-31q0 -8 7 -75.5t16 -92.5q0 -27 8 -51q0 -16 22 -61q18 -92 70 -86q20 4 33 69q6 6 2 35z" />
<glyph unicode="&#xde;" horiz-adv-x="954" d="M377 805q2 -25 2 -39l2 -35l14 -319l-2 -37q4 -4 17 -4q39 0 71 18q6 12 47 33q0 4 21 14q18 23 31 29q2 4 8 9t10 7q8 6 32.5 57.5t24.5 79.5q4 0 9.5 23t5.5 45q4 20 0 47t-6 58q0 31 -13 67q-10 12 -14 35q-31 49 -84 68q-14 6 -41 4l-23 4q-47 0 -82.5 -8.5 t-39.5 -10.5q0 -4 -5 -32l9 -11l6 -47v-55zM139 791q-4 43 -4 55v2q-2 2 -2 12v14q0 18 -6 29q-66 29 -76 35q-27 25 -24 53q2 39 61 70q-2 0 14 14q0 4 17 10q-2 20 0 29q4 16 -13 94q-12 109 37 127q63 27 140 -35h16q14 -16 23 -45q16 -8 14 -28.5t8 -36.5t10 -31v-16h8 q12 0 33 -4q29 0 66 -6q92 0 149 -19q27 -12 77 -21.5t149 -72.5l22 -21q2 0 9 -6t14 -10q39 -68 45 -141q4 -14 2 -27v-29q12 -33 -2 -75l-11 -47q0 -6 -12 -54.5t-18 -63t-76 -93.5q-41 -41 -51 -56l-27 -41q-94 -131 -303 -118q-4 2 -31 2l2 -80l-2 -97v-30 q0 -25 -3 -40.5t-5 -29.5q0 -29 -4 -35q-16 -35 -59 -34q-80 0 -88 10q-6 0 -18.5 6t-35.5 16q-39 23 -43 133q-2 12 0 23q2 8 -2 96q-6 16 -6 29q16 135 16.5 157.5t4.5 32t4 107.5q0 111 -13 184l-2 31q0 29 -4 53v19z" />
<glyph unicode="&#xdf;" horiz-adv-x="1024" d="M82 635l16 67q-6 39 8 50q6 12 3 55q2 6 3 25.5t12 45t21 70.5q4 4 9.5 17.5t9.5 19.5q10 47 14 56.5t6 23.5q4 25 11 37q8 41 22 67q18 35 18.5 41.5t25 29t40.5 28.5t39 20q8 2 20 10q31 16 39 17q37 16 97 2q92 -8 184 -49q20 -16 80.5 -27.5t79 -37t20.5 -93.5 q18 -184 -121 -436q-18 -39 -20 -51.5t8 -38.5q4 -35 21 -60q14 -39 108 -104q31 -33 72 -62q61 -76 73.5 -98t12.5 -72q-4 -193 -166 -235q-51 -14 -91 -7t-77 9t-47 4q-61 -2 -85 4t-52 29q-78 47 -80 117q-8 68 12 67q6 6 50 8t69 -4q16 2 30.5 -13t38.5 -54 q35 -35 60.5 -35t37 21.5t11.5 33.5t2 66q4 2 1 14t-3 14q-14 0 -20 33q0 23 -33 46.5t-33 37.5q-8 8 -35 21q-8 10 -27.5 22t-21.5 19.5t-14 11.5q-25 10 -39.5 17t-38.5 32q-23 39 0 88q-10 25 8 39l23 20q10 2 31.5 23.5t21.5 31t24 62.5q16 57 17 66q-8 23 16 73 q29 29 35 93q29 133 -51 162.5t-125 -23.5q-18 -18 -25.5 -30.5t-9.5 -15.5t-5 -12.5t-4 -13.5t-4 -17.5t-5 -19.5q-45 -137 -63.5 -300t-35.5 -191v-15l-2 -61q-18 -111 19 -457q2 -14 61 -309q20 -27 35 -35q41 4 20 -47q-29 -12 -74.5 1t-62 12t-32 11.5t-32 9.5 t-50 12.5t-41.5 35.5l-15 72q0 35 -28 112q-33 188 -31 213t2 41q0 14 -12 117q16 16 2 131q0 68 12 160v129z" />
<glyph unicode="&#xe0;" horiz-adv-x="882" d="M487 588q-2 45 -20 68.5t-68 27.5q-14 -10 -37.5 -68.5t-29.5 -123.5q-20 -98 -21 -197q2 -100 33 -148q4 -8 8 -6q10 0 33 41q108 197 102 406zM217 1346l33 2q96 -33 160 -115q33 -47 32 -53q59 -72 70 -105q12 -51 -13.5 -76.5t-52.5 -25.5q-80 12 -120 96 q-23 20 -64 66q-41 41 -67 61q-39 29 -41 35q-43 14 -27 35q43 57 90 80zM551 197l-31 -80q0 -4 -59 -88q-18 -39 -68.5 -43t-97.5 10q-63 23 -96 53.5t-65 103t-34 119.5q-10 68 -10 86v50q0 74 6 86q2 8 10 43q10 86 50 163q76 150 155 154h11q4 -2 12 -2h26q72 -6 89 -12 q31 -8 53 -9l53 -10q25 2 64.5 -10t43 -18.5t11.5 -45t11 -56t5 -36.5q16 -150 53 -278q2 -6 4.5 -18.5t14.5 -48.5t18 -60.5t23 -65.5q12 -31 37 -71q45 -63 -47 -99q-12 -4 -43 -4q-6 0 -39 21q-20 0 -39 22l-17 4q-14 14 -24 15q-4 4 -74 166q-6 -23 -6 -41z" />
<glyph unicode="&#xe1;" horiz-adv-x="882" d="M639 1354l33 -2q47 -23 90 -80q16 -20 -27 -35q-2 -6 -22 -20q-45 -35 -86 -78t-64 -64q-41 -84 -121 -96q-27 0 -52 25.5t-13 76.5q10 33 69 105q0 6 33 53q64 82 160 115zM487 588q-2 45 -20 68.5t-68 27.5q-14 -10 -37.5 -68.5t-29.5 -123.5q-20 -98 -21 -197 q2 -100 33 -148q4 -8 8 -6q10 0 33 41q108 197 102 406zM551 197l-31 -80q0 -4 -59 -88q-18 -39 -68.5 -43t-97.5 10q-63 23 -96 53.5t-65 103t-34 119.5q-10 68 -10 86v50q0 74 6 86q2 8 10 43q10 86 50 163q76 150 155 154h11q4 -2 12 -2h26q72 -6 89 -12q31 -8 53 -9 l53 -10q25 2 64.5 -10t43 -18.5t11.5 -45t11 -56t5 -36.5q16 -150 53 -278q2 -6 4.5 -18.5t14.5 -48.5t18 -60.5t23 -65.5q12 -31 37 -71q45 -63 -47 -99q-12 -4 -43 -4q-6 0 -39 21q-20 0 -39 22l-17 4q-14 14 -24 15q-4 4 -74 166q-6 -23 -6 -41z" />
<glyph unicode="&#xe2;" horiz-adv-x="882" d="M487 588q-2 45 -20 68.5t-68 27.5q-14 -10 -37.5 -68.5t-29.5 -123.5q-20 -98 -21 -197q2 -100 33 -148q4 -8 8 -6q10 0 33 41q108 197 102 406zM416 1315q51 0 67 -10q47 -33 99 -86q84 -88 108.5 -107.5t35.5 -43.5t9 -36t-10 -19t-25.5 -12.5t-32 -13.5t-63.5 6 q-20 0 -45 43q-25 6 -49.5 36t-50.5 48q-12 18 -22.5 17.5t-19.5 -15t-20.5 -31t-16.5 -23.5t-11 -15q-10 -18 -15 -23q-33 -35 -94 -8q-18 4 -33.5 23.5t2.5 54.5q0 10 70 96t78 94q10 17 39 25zM551 197l-31 -80q0 -4 -59 -88q-18 -39 -68.5 -43t-97.5 10q-63 23 -96 53.5 t-65 103t-34 119.5q-10 68 -10 86v50q0 74 6 86q2 8 10 43q10 86 50 163q76 150 155 154h11q4 -2 12 -2h26q72 -6 89 -12q31 -8 53 -9l53 -10q25 2 64.5 -10t43 -18.5t11.5 -45t11 -56t5 -36.5q16 -150 53 -278q2 -6 4.5 -18.5t14.5 -48.5t18 -60.5t23 -65.5q12 -31 37 -71 q45 -63 -47 -99q-12 -4 -43 -4q-6 0 -39 21q-20 0 -39 22l-17 4q-14 14 -24 15q-4 4 -74 166q-6 -23 -6 -41z" />
<glyph unicode="&#xe3;" horiz-adv-x="882" d="M297 1253l156 -10q23 -2 114.5 -17.5t102 -15.5t40 12.5t54.5 12.5q8 -10 8 -25q0 -51 -54 -102t-149 -51q-14 0 -57 8q-125 25 -309 25l-84 -21q-10 0 -10 44t31.5 86t156.5 54zM487 588q-2 45 -20 68.5t-68 27.5q-14 -10 -37.5 -68.5t-29.5 -123.5q-20 -98 -21 -197 q2 -100 33 -148q4 -8 8 -6q10 0 33 41q108 197 102 406zM551 197l-31 -80q0 -4 -59 -88q-18 -39 -68.5 -43t-97.5 10q-63 23 -96 53.5t-65 103t-34 119.5q-10 68 -10 86v50q0 74 6 86q2 8 10 43q10 86 50 163q76 150 155 154h11q4 -2 12 -2h26q72 -6 89 -12q31 -8 53 -9 l53 -10q25 2 64.5 -10t43 -18.5t11.5 -45t11 -56t5 -36.5q16 -150 53 -278q2 -6 4.5 -18.5t14.5 -48.5t18 -60.5t23 -65.5q12 -31 37 -71q45 -63 -47 -99q-12 -4 -43 -4q-6 0 -39 21q-20 0 -39 22l-17 4q-14 14 -24 15q-4 4 -74 166q-6 -23 -6 -41z" />
<glyph unicode="&#xe4;" horiz-adv-x="882" d="M674 1262q72 0 90 -78q0 -70 -43 -112t-81 -42t-94.5 35t-56.5 76q0 102 89 123q27 2 75 -7q1 5 21 5zM258 1044q-47 0 -94 29t-47 90q0 113 102 131q100 -35 113 -47l30 -69q-6 -43 -42.5 -88.5t-61.5 -45.5zM487 588q-2 45 -20 68.5t-68 27.5q-14 -10 -37.5 -68.5 t-29.5 -123.5q-20 -98 -21 -197q2 -100 33 -148q4 -8 8 -6q10 0 33 41q108 197 102 406zM551 197l-31 -80q0 -4 -59 -88q-18 -39 -68.5 -43t-97.5 10q-63 23 -96 53.5t-65 103t-34 119.5q-10 68 -10 86v50q0 74 6 86q2 8 10 43q10 86 50 163q76 150 155 154h11q4 -2 12 -2 h26q72 -6 89 -12q31 -8 53 -9l53 -10q25 2 64.5 -10t43 -18.5t11.5 -45t11 -56t5 -36.5q16 -150 53 -278q2 -6 4.5 -18.5t14.5 -48.5t18 -60.5t23 -65.5q12 -31 37 -71q45 -63 -47 -99q-12 -4 -43 -4q-6 0 -39 21q-20 0 -39 22l-17 4q-14 14 -24 15q-4 4 -74 166 q-6 -23 -6 -41z" />
<glyph unicode="&#xe5;" horiz-adv-x="882" d="M489 1239q-78 0 -116.5 -39t-42.5 -82q37 -63 106 -67q45 0 66 43q43 43 43 64.5t-20 51t-36 29.5zM487 588q-2 45 -20 68.5t-68 27.5q-14 -10 -37.5 -68.5t-29.5 -123.5q-20 -98 -21 -197q2 -100 33 -148q4 -8 8 -6q10 0 33 41q108 197 102 406zM426 1370q49 0 121 -45 q4 -4 35 -25q57 -39 57 -58t11.5 -54t11.5 -45q0 -55 -33 -117q-45 -90 -94 -90q-152 0 -197 25q-27 12 -52.5 41.5t-35.5 39t-20.5 41t-10.5 75.5t14 89q2 4 25 31t41 63q10 29 127 29zM551 197l-31 -80q0 -4 -59 -88q-18 -39 -68.5 -43t-97.5 10q-63 23 -96 53.5t-65 103 t-34 119.5q-10 68 -10 86v50q0 74 6 86q2 8 10 43q10 86 50 163q76 150 155 154h11q4 -2 12 -2h26q72 -6 89 -12q31 -8 53 -9l53 -10q25 2 64.5 -10t43 -18.5t11.5 -45t11 -56t5 -36.5q16 -150 53 -278q2 -6 4.5 -18.5t14.5 -48.5t18 -60.5t23 -65.5q12 -31 37 -71 q45 -63 -47 -99q-12 -4 -43 -4q-6 0 -39 21q-20 0 -39 22l-17 4q-14 14 -24 15q-4 4 -74 166q-6 -23 -6 -41z" />
<glyph unicode="&#xe6;" horiz-adv-x="1169" d="M897 655q8 31 -2 78q-14 12 -39 12q-31 0 -55 -57q-33 -49 -49 -108h-2q-23 -86 -23 -93q33 -8 53.5 -7t46.5 22q47 44 70 153zM487 588q-2 45 -20 68.5t-68 27.5q-14 -10 -37.5 -68.5t-29.5 -123.5q-20 -98 -21 -197q2 -100 33 -148q4 -8 8 -6q10 0 33 41 q108 197 102 406zM891 360l-76 -6q-63 0 -100 13l6 -39q6 -170 94 -224q25 -10 41 -10t43 17q8 8 14 22q2 18 21 17q84 106 127 83q43 -29 43 -45q0 -8 -10 -18v-12q0 -20 -26 -73.5t-54 -90.5q-14 -31 -37 -43q-66 -41 -139 -33q-16 2 -23 8q-16 4 -24 2l-17 2q-18 0 -31 9 q-20 12 -28 12q-53 20 -64.5 30.5t-19.5 14.5t-39 43q-27 23 -31 29q-12 18 -20 26q-14 14 -15 39l-6 -16q0 -4 -59 -88q-18 -39 -68.5 -43t-97.5 10q-63 23 -96 53.5t-65 103t-34 119.5q-10 68 -10 86v50q0 74 6 86q2 8 10 43q10 86 50 163q76 150 155 154h11q4 -2 12 -2 h26q72 -6 89 -12q31 -8 53 -9l53 -10q25 2 48.5 -6t31.5 -8l6 12l27 25q12 18 37 26q29 14 43 15l57 8q10 -2 14 -2h27q45 -4 74 -19q61 -18 90 -47q63 -72 63 -137t-20 -113q-51 -117 -74 -147q-37 -68 -88 -68z" />
<glyph unicode="&#xe7;" horiz-adv-x="737" d="M119 604q0 31 15.5 69t25.5 48q4 6 45 65l35 43l26 17q14 10 56 10h4q59 14 136 -4t107 -66q47 -86 58 -186q12 -53 2 -98q0 -4 -15 -37q-6 -6 -41 -14q-14 -14 -45.5 -14.5t-33.5 18.5q-6 2 -19.5 14t-13.5 18l-19 27q-18 37 -14 57q10 53 6 58q0 31 -20 61q-2 2 -8 2 q-12 4 -21 19q-14 -4 -31 -23q-29 -78 -35 -113q-12 -90 -12 -118v-95q4 -74 17 -90q0 -8 8 -28q2 -33 53 -107q10 -29 33 -28q29 0 78 75l20 31q29 39 90 31q27 -4 27 -31q2 -18 -12 -92q-12 -12 -21 -41l-27 -47q-39 -55 -51 -55q-4 -4 -53 -15l55 -86q43 -92 49.5 -134 t-38.5 -105q-37 -57 -140 -64q-51 -6 -157 39q-4 4 -21.5 17.5t-28.5 23.5q-25 25 -24.5 71t24 80.5t54.5 34.5q41 0 41 -41q0 -20 -2 -32q8 -12 16 -39t17.5 -37t13.5 -10h10q33 0 72 30q10 18 10 69.5t-29 72.5l-22 45q-14 23 -44 51.5t-42 36.5q-39 25 -55.5 31t-26.5 16 l-13 37q-27 0 -43 26q0 14 -24 64l-10 31l-7 36v37l-24 160v29l18 69q-2 45 21 80z" />
<glyph unicode="&#xe8;" d="M506 655q8 31 -2 78q-14 12 -39 12q-31 0 -55 -57q-33 -49 -50 -108h-2q-23 -86 -22 -93q33 -8 53.5 -7t46.5 22q47 44 70 153zM248 1346l33 2q96 -33 159 -115q33 -47 33 -53q59 -72 70 -105q12 -51 -13.5 -76.5t-52.5 -25.5q-80 12 -121 96q-23 20 -65 66 q-39 41 -66 61q-39 29 -41 35q-43 14 -26 35q43 57 90 80zM500 360l-76 -6q-63 0 -100 13l6 -39q6 -170 94 -224q25 -10 41 -10t43 17q8 8 14 22q2 18 21 17q84 106 127 83q43 -29 43 -45q0 -8 -11 -18v-12q0 -20 -25.5 -73.5t-53.5 -90.5q-14 -31 -37 -43q-66 -41 -140 -33 q-16 2 -22 8q-16 4 -25 2l-16 2q-18 0 -31 9q-20 12 -28 12q-53 20 -64.5 30.5t-20 14.5t-38.5 43q-27 23 -31 29q-12 18 -21.5 26t-11.5 37q-8 10 -8 27l-8 16q0 14 -12 23q-12 12 -13 30v17q-8 4 -4 24v54l-2 18v14q-2 8 4 35l-2 19q2 2 6 32q8 43 19 54v18q2 6 2 16.5 t5 22.5t32 92l32 72q14 31 45 67q2 10 17 37l26 25q12 18 37 26q29 14 43 15l58 8q10 -2 14 -2h27q45 -4 73 -19q61 -18 90 -47q63 -72 63.5 -137t-19.5 -113q-51 -117 -74 -147q-37 -68 -88 -68z" />
<glyph unicode="&#xe9;" d="M506 655q8 31 -2 78q-14 12 -39 12q-31 0 -55 -57q-33 -49 -50 -108h-2q-23 -86 -22 -93q33 -8 53.5 -7t46.5 22q47 44 70 153zM670 1354l32 -2q47 -23 91 -80q16 -20 -27 -35q-2 -6 -23 -20q-45 -35 -86 -78t-63 -64q-41 -84 -121 -96q-27 0 -52.5 25.5t-12.5 76.5 q10 33 69 105q0 6 33 53q64 82 160 115zM500 360l-76 -6q-63 0 -100 13l6 -39q6 -170 94 -224q25 -10 41 -10t43 17q8 8 14 22q2 18 21 17q84 106 127 83q43 -29 43 -45q0 -8 -11 -18v-12q0 -20 -25.5 -73.5t-53.5 -90.5q-14 -31 -37 -43q-66 -41 -140 -33q-16 2 -22 8 q-16 4 -25 2l-16 2q-18 0 -31 9q-20 12 -28 12q-53 20 -64.5 30.5t-20 14.5t-38.5 43q-27 23 -31 29q-12 18 -21.5 26t-11.5 37q-8 10 -8 27l-8 16q0 14 -12 23q-12 12 -13 30v17q-8 4 -4 24v54l-2 18v14q-2 8 4 35l-2 19q2 2 6 32q8 43 19 54v18q2 6 2 16.5t5 22.5t32 92 l32 72q14 31 45 67q2 10 17 37l26 25q12 18 37 26q29 14 43 15l58 8q10 -2 14 -2h27q45 -4 73 -19q61 -18 90 -47q63 -72 63.5 -137t-19.5 -113q-51 -117 -74 -147q-37 -68 -88 -68z" />
<glyph unicode="&#xea;" d="M506 655q8 31 -2 78q-14 12 -39 12q-31 0 -55 -57q-33 -49 -50 -108h-2q-23 -86 -22 -93q33 -8 53.5 -7t46.5 22q47 44 70 153zM446 1315q51 0 66 -10q49 -33 100 -86q84 -88 108.5 -107.5t36 -43.5t9.5 -36t-10 -19t-25.5 -12.5t-32 -13.5t-63.5 6q-20 0 -45 43 q-25 6 -49.5 36t-51.5 48q-12 18 -22 17.5t-19.5 -15t-20.5 -31t-16 -23.5t-10 -15q-12 -18 -16 -23q-33 -35 -94 -8q-18 4 -33.5 23.5t2.5 54.5q0 10 69.5 96t78.5 94q9 17 38 25zM500 360l-76 -6q-63 0 -100 13l6 -39q6 -170 94 -224q25 -10 41 -10t43 17q8 8 14 22 q2 18 21 17q84 106 127 83q43 -29 43 -45q0 -8 -11 -18v-12q0 -20 -25.5 -73.5t-53.5 -90.5q-14 -31 -37 -43q-66 -41 -140 -33q-16 2 -22 8q-16 4 -25 2l-16 2q-18 0 -31 9q-20 12 -28 12q-53 20 -64.5 30.5t-20 14.5t-38.5 43q-27 23 -31 29q-12 18 -21.5 26t-11.5 37 q-8 10 -8 27l-8 16q0 14 -12 23q-12 12 -13 30v17q-8 4 -4 24v54l-2 18v14q-2 8 4 35l-2 19q2 2 6 32q8 43 19 54v18q2 6 2 16.5t5 22.5t32 92l32 72q14 31 45 67q2 10 17 37l26 25q12 18 37 26q29 14 43 15l58 8q10 -2 14 -2h27q45 -4 73 -19q61 -18 90 -47 q63 -72 63.5 -137t-19.5 -113q-51 -117 -74 -147q-37 -68 -88 -68z" />
<glyph unicode="&#xeb;" d="M506 655q8 31 -2 78q-14 12 -39 12q-31 0 -55 -57q-33 -49 -50 -108h-2q-23 -86 -22 -93q33 -8 53.5 -7t46.5 22q47 44 70 153zM289 1044q-47 0 -94.5 29t-47.5 90q0 113 103 131q100 -35 112 -47l31 -69q-6 -43 -42.5 -88.5t-61.5 -45.5zM705 1262q72 0 90 -78 q0 -70 -43 -112t-81 -42t-94.5 35t-56.5 76q0 102 88 123q27 2 76 -7q1 5 21 5zM500 360l-76 -6q-63 0 -100 13l6 -39q6 -170 94 -224q25 -10 41 -10t43 17q8 8 14 22q2 18 21 17q84 106 127 83q43 -29 43 -45q0 -8 -11 -18v-12q0 -20 -25.5 -73.5t-53.5 -90.5 q-14 -31 -37 -43q-66 -41 -140 -33q-16 2 -22 8q-16 4 -25 2l-16 2q-18 0 -31 9q-20 12 -28 12q-53 20 -64.5 30.5t-20 14.5t-38.5 43q-27 23 -31 29q-12 18 -21.5 26t-11.5 37q-8 10 -8 27l-8 16q0 14 -12 23q-12 12 -13 30v17q-8 4 -4 24v54l-2 18v14q-2 8 4 35l-2 19 q2 2 6 32q8 43 19 54v18q2 6 2 16.5t5 22.5t32 92l32 72q14 31 45 67q2 10 17 37l26 25q12 18 37 26q29 14 43 15l58 8q10 -2 14 -2h27q45 -4 73 -19q61 -18 90 -47q63 -72 63.5 -137t-19.5 -113q-51 -117 -74 -147q-37 -68 -88 -68z" />
<glyph unicode="&#xec;" horiz-adv-x="464" d="M8 1346l33 2q96 -33 160 -115q33 -47 32 -53q59 -72 70 -105q12 -51 -13.5 -76.5t-51.5 -25.5q-80 12 -121 96q-23 20 -64 66q-41 41 -67 61q-39 29 -41 35q-43 14 -27 35q43 57 90 80zM113 739q0 61 75 62h31q4 0 66 -21q8 -8 24 -16l41 -53v-181q0 -29 -2 -73 q-8 -94 8 -391q4 -37 -26 -70q-35 0 -45 10q-8 4 -37 2t-66 39q-23 8 -24 31l-17 31q-10 12 -16 37.5t-14 197.5q0 31 4 47v49q2 23 4 83.5t6 97.5q-4 53 -4 71t-8 47z" />
<glyph unicode="&#xed;" horiz-adv-x="464" d="M430 1354l33 -2q47 -23 90 -80q16 -20 -27 -35q-2 -6 -22 -20q-45 -35 -86 -78t-64 -64q-41 -84 -121 -96q-27 0 -52 25.5t-13 76.5q10 33 70 105q0 6 32 53q64 82 160 115zM113 739q0 61 75 62h31q4 0 66 -21q8 -8 24 -16l41 -53v-181q0 -29 -2 -73q-8 -94 8 -391 q4 -37 -26 -70q-35 0 -45 10q-8 4 -37 2t-66 39q-23 8 -24 31l-17 31q-10 12 -16 37.5t-14 197.5q0 31 4 47v49q2 23 4 83.5t6 97.5q-4 53 -4 71t-8 47z" />
<glyph unicode="&#xee;" horiz-adv-x="464" d="M207 1315q51 0 67 -10q47 -33 99 -86q84 -88 108.5 -107.5t35.5 -43.5t9 -36t-10 -19t-25.5 -12.5t-32 -13.5t-63.5 6q-20 0 -45 43q-25 6 -49.5 36t-50.5 48q-12 18 -22.5 17.5t-19.5 -15t-20.5 -31t-16.5 -23.5t-11 -15q-10 -18 -15 -23q-33 -35 -94 -8 q-18 4 -33.5 23.5t2.5 54.5q0 10 70 96t78 94q10 17 39 25zM113 739q0 61 75 62h31q4 0 66 -21q8 -8 24 -16l41 -53v-181q0 -29 -2 -73q-8 -94 8 -391q4 -37 -26 -70q-35 0 -45 10q-8 4 -37 2t-66 39q-23 8 -24 31l-17 31q-10 12 -16 37.5t-14 197.5q0 31 4 47v49 q2 23 4 83.5t6 97.5q-4 53 -4 71t-8 47z" />
<glyph unicode="&#xef;" horiz-adv-x="464" d="M70 1044q-47 0 -94.5 29t-47.5 90q0 113 103 131q100 -35 112 -47l31 -69q-6 -43 -42.5 -88.5t-61.5 -45.5zM444 1262q72 0 91 -78q0 -70 -43 -112t-81 -42t-94.5 35t-56.5 76q0 102 88 123q27 2 76 -7q0 5 20 5zM113 739q0 61 75 62h31q4 0 66 -21q8 -8 24 -16l41 -53 v-181q0 -29 -2 -73q-8 -94 8 -391q4 -37 -26 -70q-35 0 -45 10q-8 4 -37 2t-66 39q-23 8 -24 31l-17 31q-10 12 -16 37.5t-14 197.5q0 31 4 47v49q2 23 4 83.5t6 97.5q-4 53 -4 71t-8 47z" />
<glyph unicode="&#xf0;" horiz-adv-x="784" d="M518 328q18 113 13 189.5t-48 133.5q-8 8 -56 -7t-62 -30q-45 -59 -54.5 -80.5t-15.5 -33.5q-20 -41 -23 -47q-20 -80 -18 -134q-6 -23 18.5 -71.5t39 -62t50 -32t50.5 -20.5q18 2 42.5 19.5t24.5 25.5q37 87 39 150zM96 106q-14 47 -26 44q-10 16 -11 40q-27 215 0 265 q4 20 20.5 71.5t20.5 55.5q18 18 57.5 69t43.5 54l35 12q74 66 223 65q-12 111 -78 197q-33 -18 -81 -42t-67 -34q-47 -39 -106 -4q-18 -8 -65.5 1t-51.5 18q-12 23 15.5 46t73.5 44.5t57.5 28.5t24 13.5t19.5 8.5t25.5 12t30.5 16q29 14 2 50q-14 4 -18 26.5t-13.5 40 t-11.5 25.5q-31 37 -25.5 57.5t41.5 20.5q61 8 82 0.5t49.5 -30t42 -31.5t24.5 -16t15.5 -12.5t24.5 -19.5q4 2 20.5 9t28.5 16q18 20 72 43q102 45 174 21.5t76 -46.5q0 -16 -37 -33.5t-86 -46t-60 -28.5q0 -8 -24 -29q-27 -8 -31 -14q-8 0 -28.5 -7.5t-20.5 -11.5 q61 -78 102 -182q12 -31 45 -113q63 -174 45 -282q0 -90 -5 -112t-10 -64t-7 -55t-8 -40q-14 -63 -101 -170q-33 -78 -108 -90q-100 -12 -221 19q-10 4 -29 4q-14 -4 -41 18q-8 0 -29 10q-16 -2 -36.5 12.5t-20.5 31t-12 18.5q-4 2 -12.5 13t-8.5 17z" />
<glyph unicode="&#xf1;" horiz-adv-x="909" d="M311 1253l156 -10q23 -2 115 -17.5t102 -15.5t40 12.5t54 12.5q8 -10 8 -25q0 -51 -54 -102t-148 -51q-14 0 -56 8q-127 25 -311 25l-84 -21q-10 0 -10 44t31.5 86t156.5 54zM573 76l-12 35l-22 137q-10 39 -11 69l9 91q0 23 2 24q-25 0 -74 -59q-4 -6 -12 -21 q-86 -137 -103 -329q-16 -35 -43 -35q-55 12 -61 12l-15 -2h-26q-47 4 -62 37q-8 10 -8 53v29l-6 112v168q0 29 -4 72q-4 47 -2 148.5t-2 108.5t-4 19.5t6 24.5t55 27q27 16 45 16q29 -6 74 -25q31 -6 31 -59q4 -88 1 -127t1 -158q152 291 270 351q10 10 30.5 10t47.5 -20.5 t37 -26.5t23.5 -20.5t21.5 -18.5q25 -41 10 -193q-2 -23 -4 -40t-2 -74.5t2 -79.5q6 -72 6 -84l10 -78q20 -47 21.5 -72.5t36.5 -81.5q14 -31 -13 -49q-41 -20 -44 -17t-23.5 -4t-73.5 -3q-27 6 -53 32l-31 31q-16 25 -22 53q-11 11 -7 17z" />
<glyph unicode="&#xf2;" horiz-adv-x="784" d="M168 1346l33 2q96 -33 159 -115q33 -47 33 -53q59 -72 70 -105q12 -51 -13.5 -76.5t-52.5 -25.5q-80 12 -121 96q-23 20 -63 66q-41 41 -68 61q-39 29 -41 35q-43 14 -26 35q43 57 90 80zM467 604q-14 82 -80 76q-37 -2 -63 -49q-37 -72 -32 -185.5t16 -164t40 -86.5 q16 -29 49 -27q57 0 84 96l17 49q10 10 4 21q20 51 22 121q-20 14 -24 26q-12 35 -13 47q-14 10 -16 39t-4 37zM92 412l8 104q14 141 86 242q70 84 197 86h12q119 0 172 -51q57 -45 85 -98.5t36 -78t10 -71.5q4 -88 -34 -101q29 -195 -35 -309q-20 -47 -60 -102 q-29 -37 -102 -41q-74 0 -128 8t-119.5 52t-92.5 145q-29 96 -35 215z" />
<glyph unicode="&#xf3;" horiz-adv-x="784" d="M590 1354l33 -2q47 -23 90 -80q16 -20 -27 -35q-2 -6 -22 -20q-45 -35 -86 -78t-64 -64q-41 -84 -121 -96q-27 0 -52.5 25.5t-12.5 76.5q10 33 69 105q0 6 33 53q64 82 160 115zM467 604q-14 82 -80 76q-37 -2 -63 -49q-37 -72 -32 -185.5t16 -164t40 -86.5 q16 -29 49 -27q57 0 84 96l17 49q10 10 4 21q20 51 22 121q-20 14 -24 26q-12 35 -13 47q-14 10 -16 39t-4 37zM92 412l8 104q14 141 86 242q70 84 197 86h12q119 0 172 -51q57 -45 85 -98.5t36 -78t10 -71.5q4 -88 -34 -101q29 -195 -35 -309q-20 -47 -60 -102 q-29 -37 -102 -41q-74 0 -128 8t-119.5 52t-92.5 145q-29 96 -35 215z" />
<glyph unicode="&#xf4;" horiz-adv-x="784" d="M367 1315q51 0 67 -10q47 -33 98 -86q84 -88 109 -107.5t36 -43.5t9 -36t-10 -19t-25.5 -12.5t-32 -13.5t-63.5 6q-20 0 -45 43q-25 6 -49.5 36t-50.5 48q-12 18 -22.5 17.5t-20 -15t-20.5 -31t-16 -23.5t-12 -15q-10 -18 -14 -23q-33 -35 -94 -8q-18 4 -33.5 23.5 t2.5 54.5q0 10 69.5 96t78.5 94q10 17 39 25zM467 604q-14 82 -80 76q-37 -2 -63 -49q-37 -72 -32 -185.5t16 -164t40 -86.5q16 -29 49 -27q57 0 84 96l17 49q10 10 4 21q20 51 22 121q-20 14 -24 26q-12 35 -13 47q-14 10 -16 39t-4 37zM92 412l8 104q14 141 86 242 q70 84 197 86h12q119 0 172 -51q57 -45 85 -98.5t36 -78t10 -71.5q4 -88 -34 -101q29 -195 -35 -309q-20 -47 -60 -102q-29 -37 -102 -41q-74 0 -128 8t-119.5 52t-92.5 145q-29 96 -35 215z" />
<glyph unicode="&#xf5;" horiz-adv-x="784" d="M248 1253l155 -10q23 -2 115 -17.5t102.5 -15.5t40 12.5t54.5 12.5q8 -10 8 -25q0 -51 -54.5 -102t-148.5 -51q-14 0 -57 8q-125 25 -309 25l-84 -21q-10 0 -10.5 44t31.5 86t157 54zM467 604q-14 82 -80 76q-37 -2 -63 -49q-37 -72 -32 -185.5t16 -164t40 -86.5 q16 -29 49 -27q57 0 84 96l17 49q10 10 4 21q20 51 22 121q-20 14 -24 26q-12 35 -13 47q-14 10 -16 39t-4 37zM92 412l8 104q14 141 86 242q70 84 197 86h12q119 0 172 -51q57 -45 85 -98.5t36 -78t10 -71.5q4 -88 -34 -101q29 -195 -35 -309q-20 -47 -60 -102 q-29 -37 -102 -41q-74 0 -128 8t-119.5 52t-92.5 145q-29 96 -35 215z" />
<glyph unicode="&#xf6;" horiz-adv-x="784" d="M625 1262q72 0 90 -78q0 -70 -43 -112t-81 -42t-94.5 35t-56.5 76q0 102 88 123q27 2 76 -7q1 5 21 5zM209 1044q-47 0 -94 29t-47 90q0 113 102 131q100 -35 113 -47l30 -69q-6 -43 -42.5 -88.5t-61.5 -45.5zM467 604q-14 82 -80 76q-37 -2 -63 -49q-37 -72 -32 -185.5 t16 -164t40 -86.5q16 -29 49 -27q57 0 84 96l17 49q10 10 4 21q20 51 22 121q-20 14 -24 26q-12 35 -13 47q-14 10 -16 39t-4 37zM92 412l8 104q14 141 86 242q70 84 197 86h12q119 0 172 -51q57 -45 85 -98.5t36 -78t10 -71.5q4 -88 -34 -101q29 -195 -35 -309 q-20 -47 -60 -102q-29 -37 -102 -41q-74 0 -128 8t-119.5 52t-92.5 145q-29 96 -35 215z" />
<glyph unicode="&#xf7;" horiz-adv-x="1056" d="M483 291l45 -2q37 -10 80 -31q6 -8 6 -59.5t-5 -63.5t-34 -33h-2l-28 -2h-2l-15 2q-63 0 -108 23q-25 0 -41 12q-4 -2 -2 6q0 8 6 41q18 23 23.5 55.5t27.5 36.5q8 0 35 13zM543 1110l53 -8q2 4 31 0q51 -20 55 -58q8 -80 2 -100q-14 -47 -14 -63q0 -43 -74 -39 q-92 25 -96 37q-2 2 -31 14q-29 23 -27 69t58 119q0 20 28 25zM119 645q33 16 70.5 16.5t58.5 4.5h2q49 12 117 12l469 -12l30 -4q41 0 72 -29t31 -42t-1 -26.5t-2 -19.5t-5.5 -15.5t-10.5 -13.5q-16 -14 -98 -29q-29 0 -136.5 -11t-160.5 -13q-16 -6 -95 -13.5t-114 -5.5 q-20 -10 -41.5 -9t-28.5 -5q-16 -12 -77 -12q-12 0 -58 35l-22 39q-2 2 -2 32q-6 16 -6 64q8 12 8 57z" />
<glyph unicode="&#xf8;" horiz-adv-x="784" d="M465 614q-20 70 -67.5 67t-73.5 -50q-37 -72 -31 -199q0 -37 2 -55l100 127q0 24 70 110zM516 508q-115 -190 -192 -275q8 -18 24 -38q16 -29 49 -27q57 0 84 96l17 49q10 10 4 21q20 51 22 100t-8 74zM92 412l8 104q14 141 86 242q70 84 197 86h12q119 0 172 -51l29 -27 q16 16 36.5 39.5t29.5 32.5q37 41 83 47q49 -6 56 -25q10 -25 -12.5 -51.5t-126.5 -130.5q35 -61 34 -123q-25 -276 -34 -328q-18 -88 -93 -194q-29 -37 -102 -41q-74 0 -128 8t-94 34.5t-57 47.5l-41 -57q-20 -27 -59 -47.5t-63 -18.5q-23 31 -14 62.5t48 91.5q18 16 72 69 q-4 8 -4 15q-29 96 -35 215z" />
<glyph unicode="&#xf9;" horiz-adv-x="899" d="M299 1346l33 2q96 -33 160 -115q33 -47 32 -53q59 -72 70 -105q12 -51 -13.5 -76.5t-52.5 -25.5q-80 12 -120 96q-23 20 -64 66q-41 41 -68 61q-39 29 -40 35q-43 14 -27 35q43 57 90 80zM750 567l2 -39q0 -6 12 -129v-24q0 -49 16 -148q0 -43 43 -149q10 -6 15 -29 l-2 -20q4 -10 -11 -23q0 -14 -38.5 -14t-49 -4t-32.5 4q-8 -4 -50 16q-18 4 -28 37l-17 39q0 37 -20 66q0 10 -9.5 36.5t-13.5 28.5q-20 -82 -51 -127q0 -10 -12 -25l-21 -38q0 -4 -18 -23q-12 -27 -55 -27q-39 0 -95 21q-14 2 -57 18q-12 -2 -37.5 7.5t-30.5 9.5 q-6 6 -28 20l-35 37q-2 2 -7 19.5t-3 24.5t0 21.5t2 28.5q0 41 8 90q-2 6 -2 14.5t8 30.5q-2 10 -2 15l10 80q0 29 2 41v30q2 8 2 23l11 98q0 23 2 29v20q4 4 4 33l18 57l15 25q2 8 22 18q33 20 94 21q25 -4 54 -21q6 2 28 -8q41 -18 4 -104q-8 -55 -8 -58q-8 -16 -8 -26 q-12 -66 -12 -70q8 8 -7 -24l-8 -76q-14 -49 -12 -109l-8 -26q2 -10 -2 -64q4 -6 4 -14l2 -17q-2 -6 2 -11t23.5 -4t33.5 9q29 35 39 73t10 44q35 88 43 102q10 55 35 127q-4 10 0 41l27 109q18 31 18 38t25 56q0 8 12 33q14 23 51 43h7q45 4 77 -12q4 -8 4 -29q4 -20 9 -74 v-20l-9 -45q17 -52 5 -103z" />
<glyph unicode="&#xfa;" horiz-adv-x="899" d="M721 1354l33 -2q47 -23 90 -80q16 -20 -27 -35q-2 -6 -22 -20q-45 -35 -86 -78t-64 -64q-41 -84 -121 -96q-27 0 -52.5 25.5t-12.5 76.5q10 33 69 105q0 6 33 53q64 82 160 115zM750 567l2 -39q0 -6 12 -129v-24q0 -49 16 -148q0 -43 43 -149q10 -6 15 -29l-2 -20 q4 -10 -11 -23q0 -14 -38.5 -14t-49 -4t-32.5 4q-8 -4 -50 16q-18 4 -28 37l-17 39q0 37 -20 66q0 10 -9.5 36.5t-13.5 28.5q-20 -82 -51 -127q0 -10 -12 -25l-21 -38q0 -4 -18 -23q-12 -27 -55 -27q-39 0 -95 21q-14 2 -57 18q-12 -2 -37.5 7.5t-30.5 9.5q-6 6 -28 20 l-35 37q-2 2 -7 19.5t-3 24.5t0 21.5t2 28.5q0 41 8 90q-2 6 -2 14.5t8 30.5q-2 10 -2 15l10 80q0 29 2 41v30q2 8 2 23l11 98q0 23 2 29v20q4 4 4 33l18 57l15 25q2 8 22 18q33 20 94 21q25 -4 54 -21q6 2 28 -8q41 -18 4 -104q-8 -55 -8 -58q-8 -16 -8 -26 q-12 -66 -12 -70q8 8 -7 -24l-8 -76q-14 -49 -12 -109l-8 -26q2 -10 -2 -64q4 -6 4 -14l2 -17q-2 -6 2 -11t23.5 -4t33.5 9q29 35 39 73t10 44q35 88 43 102q10 55 35 127q-4 10 0 41l27 109q18 31 18 38t25 56q0 8 12 33q14 23 51 43h7q45 4 77 -12q4 -8 4 -29q4 -20 9 -74 v-20l-9 -45q17 -52 5 -103z" />
<glyph unicode="&#xfb;" horiz-adv-x="899" d="M498 1315q51 0 67 -10q47 -33 99 -86q84 -88 108.5 -107.5t35.5 -43.5t9 -36t-10 -19t-25.5 -12.5t-32 -13.5t-63.5 6q-20 0 -45 43q-25 6 -49.5 36t-50.5 48q-12 18 -22.5 17.5t-20 -15t-20.5 -31t-16 -23.5t-11 -15q-10 -18 -15 -23q-33 -35 -94 -8q-18 4 -33.5 23.5 t2.5 54.5q0 10 70 96t78 94q10 17 39 25zM750 567l2 -39q0 -6 12 -129v-24q0 -49 16 -148q0 -43 43 -149q10 -6 15 -29l-2 -20q4 -10 -11 -23q0 -14 -38.5 -14t-49 -4t-32.5 4q-8 -4 -50 16q-18 4 -28 37l-17 39q0 37 -20 66q0 10 -9.5 36.5t-13.5 28.5q-20 -82 -51 -127 q0 -10 -12 -25l-21 -38q0 -4 -18 -23q-12 -27 -55 -27q-39 0 -95 21q-14 2 -57 18q-12 -2 -37.5 7.5t-30.5 9.5q-6 6 -28 20l-35 37q-2 2 -7 19.5t-3 24.5t0 21.5t2 28.5q0 41 8 90q-2 6 -2 14.5t8 30.5q-2 10 -2 15l10 80q0 29 2 41v30q2 8 2 23l11 98q0 23 2 29v20 q4 4 4 33l18 57l15 25q2 8 22 18q33 20 94 21q25 -4 54 -21q6 2 28 -8q41 -18 4 -104q-8 -55 -8 -58q-8 -16 -8 -26q-12 -66 -12 -70q8 8 -7 -24l-8 -76q-14 -49 -12 -109l-8 -26q2 -10 -2 -64q4 -6 4 -14l2 -17q-2 -6 2 -11t23.5 -4t33.5 9q29 35 39 73t10 44q35 88 43 102 q10 55 35 127q-4 10 0 41l27 109q18 31 18 38t25 56q0 8 12 33q14 23 51 43h7q45 4 77 -12q4 -8 4 -29q4 -20 9 -74v-20l-9 -45q17 -52 5 -103z" />
<glyph unicode="&#xfc;" horiz-adv-x="899" d="M756 1262q72 0 90 -78q0 -70 -43 -112t-81 -42t-94.5 35t-56.5 76q0 102 88 123q27 2 76 -7q1 5 21 5zM340 1044q-47 0 -94 29t-47 90q0 113 102 131q100 -35 113 -47l30 -69q-6 -43 -42.5 -88.5t-61.5 -45.5zM750 567l2 -39q0 -6 12 -129v-24q0 -49 16 -148 q0 -43 43 -149q10 -6 15 -29l-2 -20q4 -10 -11 -23q0 -14 -38.5 -14t-49 -4t-32.5 4q-8 -4 -50 16q-18 4 -28 37l-17 39q0 37 -20 66q0 10 -9.5 36.5t-13.5 28.5q-20 -82 -51 -127q0 -10 -12 -25l-21 -38q0 -4 -18 -23q-12 -27 -55 -27q-39 0 -95 21q-14 2 -57 18 q-12 -2 -37.5 7.5t-30.5 9.5q-6 6 -28 20l-35 37q-2 2 -7 19.5t-3 24.5t0 21.5t2 28.5q0 41 8 90q-2 6 -2 14.5t8 30.5q-2 10 -2 15l10 80q0 29 2 41v30q2 8 2 23l11 98q0 23 2 29v20q4 4 4 33l18 57l15 25q2 8 22 18q33 20 94 21q25 -4 54 -21q6 2 28 -8q41 -18 4 -104 q-8 -55 -8 -58q-8 -16 -8 -26q-12 -66 -12 -70q8 8 -7 -24l-8 -76q-14 -49 -12 -109l-8 -26q2 -10 -2 -64q4 -6 4 -14l2 -17q-2 -6 2 -11t23.5 -4t33.5 9q29 35 39 73t10 44q35 88 43 102q10 55 35 127q-4 10 0 41l27 109q18 31 18 38t25 56q0 8 12 33q14 23 51 43h7 q45 4 77 -12q4 -8 4 -29q4 -20 9 -74v-20l-9 -45q17 -52 5 -103z" />
<glyph unicode="&#xfd;" horiz-adv-x="841" d="M618 1354l33 -2q47 -23 90 -80q16 -20 -26 -35q-2 -6 -23 -20q-45 -35 -86 -78t-63 -64q-41 -84 -121 -96q-27 0 -52.5 25.5t-13.5 76.5q10 33 70 105q0 6 33 53q63 82 159 115zM322 645q0 -33 -3.5 -57.5t-3.5 -30.5q0 -63 -5 -93t-5 -48v-92q0 -119 8.5 -142.5 t28.5 -31.5q23 -6 35 3t23.5 28.5t18.5 45t21.5 55t17.5 43t17 33.5q29 111 33 256v66q4 82 31 137q14 33 84 53l30 2q41 0 54 -12q12 -59 2 -168v-141q4 -102 4 -141q-2 -14 2 -242q-2 -2 0 -53q2 -33 -5.5 -143.5t-7.5 -133.5q-23 -125 -50 -172t-74 -82q-33 -33 -117 -45 q-6 2 -33 2q-123 12 -160 49q-109 55 -126 81t-21 48.5t12 75.5q31 39 80 15q20 -10 74 -41l67 -33q14 -12 29 -2q20 12 25 12q35 29 67 90q0 20 21 62q0 41 24 120v23q0 31 4 52.5t4 33.5q-16 -31 -26 -57.5t-25 -44.5q-2 -12 -43 -25l-76 -2q0 2 -12 2l-31 2 q-109 0 -137 29q-14 18 -35 35q-18 23 -22 57q-6 6 -8 35v22l-4 25q2 4 -5 28q-4 25 -4 80v25q0 182 4 190q6 12 7 23q-4 10 2 22l4 29l20 64q0 8 13 51q12 12 14 28q8 39 9 53.5t17 39.5q25 18 73 13t83 -42l-22 -90q2 -14 2 -25z" />
<glyph unicode="&#xfe;" horiz-adv-x="858" d="M606 602l-18 53v2q-4 4 -27 5q-53 0 -61 -7q-31 -23 -62 -39q-2 -2 -43 -41l-18 -43q-10 -94 -8 -106q-12 -72 -8 -86t1.5 -29.5t-8.5 -66.5q4 -18 2 -63.5t2 -55.5q18 0 48 25q4 -2 21 15t26 34q4 2 12 12q14 16 20 27q10 2 17 18q0 10 24 43q51 90 60 152v12q4 12 4 22 l8 29q0 10 4 14zM221 1096l15 121l2 63q0 27 10 41l31 43q31 27 50 34t45.5 1t35.5 -15l22 -18q18 -10 19 -33q10 -12 6 -18q-12 -14 -41 -242l-17 -278l-8 -39l2 -4q41 41 129 41q14 -2 32.5 6t47.5 10l16 -4q14 0 39 -12.5t56 -22.5l18 -18l27 -19q23 -6 22 -22l4 -17 q20 -27 15 -63q18 -43 6 -123q-4 -117 -25 -178l-12 -19l-57 -114q-33 -45 -64 -68q-4 -18 -59 -53l-25 -17q-37 -31 -147 -59q-16 -4 -25.5 -4t-17.5 -2h-33q6 -2 2 -19v-26l2 -51q-4 -14 -4 -43t2 -37l-6 -58v-59q-12 -43 -10 -58.5t-2 -23.5q4 -8 4 -18.5t-9.5 -34 t-12.5 -28.5t-5 -5q-4 -2 -27 -18l-12 -2q-66 0 -97.5 22.5t-35.5 87.5q4 4 -1 16.5t-11 34.5q0 12 -6 29l4 45q-6 66 -5 75t2 17t-2.5 34t9.5 83q-4 16 0 68q10 57 10 106q6 12 6 33v29q2 2 2 14l2 12q0 14 7.5 69.5t12.5 76t8 75t1 68.5q-4 14 12 88q-4 20 -4 74l8 39v53 q2 84 9 90l-3 18q0 49 15.5 134.5t15.5 91.5z" />
<glyph unicode="&#xff;" horiz-adv-x="841" d="M238 1044q-47 0 -94.5 29t-47.5 90q0 113 103 131q100 -35 112 -47l31 -69q-6 -43 -42.5 -88.5t-61.5 -45.5zM653 1262q72 0 90 -78q0 -70 -43 -112t-80.5 -42t-94 35t-56.5 76q0 102 88 123q27 2 76 -7q0 5 20 5zM322 645q0 -33 -3.5 -57.5t-3.5 -30.5q0 -63 -5 -93 t-5 -48v-92q0 -119 8.5 -142.5t28.5 -31.5q23 -6 35 3t23.5 28.5t18.5 45t21.5 55t17.5 43t17 33.5q29 111 33 256v66q4 82 31 137q14 33 84 53l30 2q41 0 54 -12q12 -59 2 -168v-141q4 -102 4 -141q-2 -14 2 -242q-2 -2 0 -53q2 -33 -5.5 -143.5t-7.5 -133.5 q-23 -125 -50 -172t-74 -82q-33 -33 -117 -45q-6 2 -33 2q-123 12 -160 49q-109 55 -126 81t-21 48.5t12 75.5q31 39 80 15q20 -10 74 -41l67 -33q14 -12 29 -2q20 12 25 12q35 29 67 90q0 20 21 62q0 41 24 120v23q0 31 4 52.5t4 33.5q-16 -31 -26 -57.5t-25 -44.5 q-2 -12 -43 -25l-76 -2q0 2 -12 2l-31 2q-109 0 -137 29q-14 18 -35 35q-18 23 -22 57q-6 6 -8 35v22l-4 25q2 4 -5 28q-4 25 -4 80v25q0 182 4 190q6 12 7 23q-4 10 2 22l4 29l20 64q0 8 13 51q12 12 14 28q8 39 9 53.5t17 39.5q25 18 73 13t83 -42l-22 -90q2 -14 2 -25z " />
<glyph unicode="&#x100;" horiz-adv-x="956" d="M336 1649q70 8 139 8q66 0 172.5 -8.5t114.5 -10.5q80 -23 79 -34t-2 -26t-3 -19q-6 -12 -52 -21q-51 -10 -79 -10h-33q-4 0 -18.5 -4t-47.5 -4h-47q-16 -2 -63 -7q-23 -14 -50 -8q-12 -6 -62 -13t-88 -7t-79 28l-27 17l-10 43q0 33 6 59q27 8 73 10.5t75 6.5h2zM389 553 q4 4 48 9t104 36q2 0 -2 49q-6 86 -11 123q-4 49 -8 70q0 39 -31 161l-90 -305q-29 -127 -22 -155zM113 494l12 90q0 27 8 53q0 35 35 104q0 4 18 54q0 4 39 120l25 60q0 8 10 31.5t15.5 47t13.5 46.5q29 55 51 94q43 82 160 74l65 -6q61 -16 94 -35q47 -18 63.5 -40 t14.5 -71q2 -25 12.5 -213t10.5 -190l10 -88q0 -12 45 -295l45 -144q41 -115 44 -120t18 -43q23 -68 -39 -91q-55 -8 -82 11q-10 0 -47 18q-4 10 -23.5 19.5t-25.5 15.5q-23 6 -41 63q-6 4 -23 33q-14 29 -8 47q-14 18 -15 76q-18 31 -18 96.5t-20 102.5q-104 -47 -224 -52 q-23 0 -22 -8q0 -18 -12 -65l-35 -226q20 -152 -37 -159q-16 0 -54 -8.5t-63 14.5q-47 27 -66.5 54.5t-17.5 62.5q2 29 10 123q4 4 3 46t6 64l32 127q6 4 17 62q-2 4 -2 20z" />
<glyph unicode="&#x101;" horiz-adv-x="882" d="M487 588q-2 45 -20 68.5t-68 27.5q-14 -10 -37.5 -68.5t-29.5 -123.5q-20 -98 -21 -197q2 -100 33 -148q4 -8 8 -6q10 0 33 41q108 197 102 406zM264 1239q70 8 139 8q63 0 171 -8t116 -10q80 -23 79 -34t-2 -26.5t-3 -19.5q-6 -12 -51 -21q-51 -10 -80 -10h-33 q-4 0 -18.5 -4t-46.5 -4h-48q-16 -2 -63 -6q-23 -14 -49 -8q-12 -6 -62.5 -13.5t-88.5 -7.5t-79 29l-26 16l-10 43q0 33 6 60q27 8 72.5 10t74.5 6h2zM551 197l-31 -80q0 -4 -59 -88q-18 -39 -68.5 -43t-97.5 10q-63 23 -96 53.5t-65 103t-34 119.5q-10 68 -10 86v50 q0 74 6 86q2 8 10 43q10 86 50 163q76 150 155 154h11q4 -2 12 -2h26q72 -6 89 -12q31 -8 53 -9l53 -10q25 2 64.5 -10t43 -18.5t11.5 -45t11 -56t5 -36.5q16 -150 53 -278q2 -6 4.5 -18.5t14.5 -48.5t18 -60.5t23 -65.5q12 -31 37 -71q45 -63 -47 -99q-12 -4 -43 -4 q-6 0 -39 21q-20 0 -39 22l-17 4q-14 14 -24 15q-4 4 -74 166q-6 -23 -6 -41z" />
<glyph unicode="&#x102;" horiz-adv-x="956" d="M389 553q4 4 48 9t104 36q2 0 -2 49q-6 86 -11 123q-4 49 -8 70q0 39 -31 161l-90 -305q-29 -127 -22 -155zM791 1651q0 -39 -43 -129q-84 -100 -129.5 -115.5t-132.5 -5.5t-121 39q-92 72 -99.5 77t-17.5 41.5t-12 65.5q-4 70 24 82q20 6 59 2q63 -10 68 -33 q2 -12 0 -32.5t1 -37t25.5 -34t41 -21.5t46 -7t62.5 12.5t56.5 53.5t19.5 62q23 23 54.5 22t45.5 -14q52 -22 52 -28zM113 494l12 90q0 27 8 53q0 35 35 104q0 4 18 54q0 4 39 120l25 60q0 8 10 31.5t15.5 47t13.5 46.5q29 55 51 94q43 82 160 74l65 -6q61 -16 94 -35 q47 -18 63.5 -40t14.5 -71q2 -25 12.5 -213t10.5 -190l10 -88q0 -12 45 -295l45 -144q41 -115 44 -120t18 -43q23 -68 -39 -91q-55 -8 -82 11q-10 0 -47 18q-4 10 -23.5 19.5t-25.5 15.5q-23 6 -41 63q-6 4 -23 33q-14 29 -8 47q-14 18 -15 76q-18 31 -18 96.5t-20 102.5 q-104 -47 -224 -52q-23 0 -22 -8q0 -18 -12 -65l-35 -226q20 -152 -37 -159q-16 0 -54 -8.5t-63 14.5q-47 27 -66.5 54.5t-17.5 62.5q2 29 10 123q4 4 3 46t6 64l32 127q6 4 17 62q-2 4 -2 20z" />
<glyph unicode="&#x103;" horiz-adv-x="882" d="M719 1241q0 -39 -43 -129q-84 -100 -129 -115.5t-132 -5.5t-122 39q-92 72 -99.5 77t-17.5 42t-12 65q-4 70 24 82q20 6 60 2q63 -10 67 -32q2 -12 0 -33t1 -37t26 -33.5t41 -21.5t46 -7.5t62.5 12t56 53.5t19.5 63q23 23 54.5 21.5t46.5 -13.5q51 -23 51 -29zM487 588 q-2 45 -20 68.5t-68 27.5q-14 -10 -37.5 -68.5t-29.5 -123.5q-20 -98 -21 -197q2 -100 33 -148q4 -8 8 -6q10 0 33 41q108 197 102 406zM551 197l-31 -80q0 -4 -59 -88q-18 -39 -68.5 -43t-97.5 10q-63 23 -96 53.5t-65 103t-34 119.5q-10 68 -10 86v50q0 74 6 86q2 8 10 43 q10 86 50 163q76 150 155 154h11q4 -2 12 -2h26q72 -6 89 -12q31 -8 53 -9l53 -10q25 2 64.5 -10t43 -18.5t11.5 -45t11 -56t5 -36.5q16 -150 53 -278q2 -6 4.5 -18.5t14.5 -48.5t18 -60.5t23 -65.5q12 -31 37 -71q45 -63 -47 -99q-12 -4 -43 -4q-6 0 -39 21q-20 0 -39 22 l-17 4q-14 14 -24 15q-4 4 -74 166q-6 -23 -6 -41z" />
<glyph unicode="&#x104;" horiz-adv-x="956" d="M389 553q4 4 48 9t104 36q2 0 -2 49q-6 86 -11 123q-4 49 -8 70q0 39 -31 161l-90 -305q-29 -127 -22 -155zM113 494l12 90q0 27 8 53q0 35 35 104q0 4 18 54q0 4 39 120l25 60q0 8 10 31.5t15.5 47t13.5 46.5q29 55 51 94q43 82 160 74l65 -6q61 -16 94 -35 q47 -18 63.5 -40t14.5 -71q2 -25 12.5 -213t10.5 -190l10 -88q0 -12 45 -295l45 -144q41 -115 44 -120t18 -43q23 -68 -39 -91l-23 -2q-66 -33 -80 -53l-45 -33q-14 -4 -32.5 -22.5t-18.5 -24.5t-6 -18q-12 -29 -6 -53q16 -76 114 -45q39 10 58 26q55 37 79.5 -8t-1.5 -80 q-51 -68 -140.5 -68t-154.5 37q-88 41 -105 109q-6 29 -6 55q0 51 10 58q31 57 99 108l61 41q4 6 31 27l-12 10q-23 6 -41 63q-6 4 -23 33q-14 29 -8 47q-14 18 -15 76q-18 31 -18 96.5t-20 102.5q-104 -47 -224 -52q-23 0 -22 -8q0 -18 -12 -65l-35 -226q20 -152 -37 -159 q-16 0 -54 -8.5t-63 14.5q-47 27 -66.5 54.5t-17.5 62.5q2 29 10 123q4 4 3 46t6 64l32 127q6 4 17 62q-2 4 -2 20z" />
<glyph unicode="&#x105;" horiz-adv-x="882" d="M487 588q-2 45 -20 68.5t-68 27.5q-14 -10 -37.5 -68.5t-29.5 -123.5q-20 -98 -21 -197q2 -100 33 -148q4 -8 8 -6q10 0 33 41q108 197 102 406zM551 197l-31 -80q0 -4 -59 -88q-18 -39 -68.5 -43t-97.5 10q-63 23 -96 53.5t-65 103t-34 119.5q-10 68 -10 86v50 q0 74 6 86q2 8 10 43q10 86 50 163q76 150 155 154h11q4 -2 12 -2h26q72 -6 89 -12q31 -8 53 -9l53 -10q25 2 64.5 -10t43 -18.5t11.5 -45t11 -56t5 -36.5q16 -150 53 -278q2 -6 4.5 -18.5t14.5 -48.5t18 -60.5t23 -65.5q12 -31 37 -71q35 -51 -19 -86l-94 -58l-45 -32 q-14 -4 -32.5 -22.5t-18.5 -25t-6 -20.5q-12 -27 -7 -51q16 -76 115 -47q39 12 58 28q55 37 79.5 -8t-2.5 -80q-51 -68 -140 -67.5t-155 37.5q-88 41 -104 108q-6 29 -6 55q0 53 10 58q31 57 98 108l62 41l14 12q-12 8 -16 9q-4 4 -74 166q-6 -23 -6 -41z" />
<glyph unicode="&#x106;" horiz-adv-x="907" d="M733 1763l33 -2q47 -23 90 -80q16 -20 -27 -34q-2 -6 -22 -21q-45 -35 -86 -78t-64 -63q-41 -84 -120 -96q-27 0 -52.5 25.5t-13.5 76.5q10 33 70 104q0 6 32 54q64 81 160 114zM383 1253q29 12 119 9.5t129 -17.5l51 -16q63 -43 72 -43q84 -66 96 -172q12 -45 4 -82 q0 -12 -8 -53l-21 -48l-24 -34q-12 -2 -15 -2q-76 -12 -116.5 -3t-71.5 44q-6 12 -6 22q2 10 6 19l10 32q27 66 -4 111q0 6 -20.5 22.5t-31.5 24.5t-40 2q-49 -20 -84 -125q-41 -53 -57 -139q-25 -154 -25 -174l-2 -45v-19q-4 -4 4 -178q2 -10 8 -29q6 -23 19 -73l26 -45 q10 -6 27 -37q10 0 16 -15q14 -14 13 -16q10 -2 30 -12q55 -29 97 12q14 14 35.5 40t33 41t35.5 30q68 51 117 -4q10 -16 3 -79t-58 -130q-4 -12 -27 -40t-47 -44q-4 -14 -156 -21q-8 0 -33 4q-23 -6 -60.5 6.5t-41.5 12.5l-27 6q-16 0 -32.5 10t-54.5 36t-58 42 q-61 49 -88 113q-8 14 -10 39.5t-9 37.5q-16 16 -15 53.5t-5 90.5q0 25 2 28q-10 10 -8 36t2 71q6 12 5 72.5t3 91.5q-8 18 -2 53l2 61q2 37 19 78q2 18 8 44t53 104q0 16 31 41q0 8 16 24.5t37 40.5q29 35 63.5 51t65.5 39z" />
<glyph unicode="&#x107;" horiz-adv-x="737" d="M567 1354l33 -2q47 -23 90 -80q16 -20 -26 -35q-2 -6 -23 -20q-45 -35 -86 -78t-63 -64q-41 -84 -121 -96q-27 0 -52.5 25.5t-13.5 76.5q10 33 70 105q0 6 33 53q63 82 159 115zM145 684q0 27 27 45v4q0 14 32 51t36 45q45 27 59 31q16 -4 23 -4h4q59 14 136 -4t107 -66 q16 -31 33 -81q25 -72 25 -105q12 -53 2 -98l-2 -21q0 -8 -10.5 -16t-23.5 -7t-23.5 -10.5t-42 -11.5t-33.5 19q-6 2 -19.5 14t-13.5 18l-10 15q0 4 -9 12q-18 37 -14 57q10 53 6 58q0 31 -20 61q-2 2 -7.5 3t-13.5 3q-4 14 -8 15q-14 -4 -31 -23q-29 -80 -35 -106l-12 -125 v-95q4 -74 17 -90q0 -8 8 -28q2 -27 43 -94l10 -13q10 -29 34.5 -28.5t69.5 57.5q-2 6 27 49q29 39 90 31q27 -4 27 -31q2 -18 -12 -92q-20 -20 -21 -41q-14 -37 -14 -41q-6 0 -13 -6l-10 -21q-8 0 -10 -8q-23 -27 -31 -26q-6 -6 -33 -7q-39 -16 -57 -16l-35 -2l-22 8l-19 2 q-25 10 -38 9t-19 2.5t-16 11.5q-25 20 -32 20t-24 12q-16 4 -26 15l-8 20q4 14 -5 17q-27 0 -30 10l-13 16q0 16 -16 43l-25 74q-4 4 0 14v37l-24 160v29q18 68 18 69q-2 45 21 80q-1 39 26 80z" />
<glyph unicode="&#x108;" horiz-adv-x="907" d="M446 1724q51 0 66 -10q49 -33 100 -86q84 -88 108.5 -107.5t36 -43t9.5 -35.5t-10 -19.5t-25.5 -12.5t-32 -13t-63.5 6q-20 0 -45 43q-25 6 -49.5 35.5t-51.5 48.5q-12 18 -22 17t-19.5 -15t-20.5 -30.5l-16 -24t-10 -15.5q-12 -18 -16 -22q-33 -35 -94 -8 q-18 4 -33.5 23.5t2.5 53.5q0 10 69.5 96.5t78.5 94.5q9 16 38 24zM383 1253q29 12 119 9.5t129 -17.5l51 -16q63 -43 72 -43q84 -66 96 -172q12 -45 4 -82q0 -12 -8 -53l-21 -48l-24 -34q-12 -2 -15 -2q-76 -12 -116.5 -3t-71.5 44q-6 12 -6 22q2 10 4 19q12 33 12 32 q27 66 -4 111q0 6 -20.5 22.5t-31.5 24.5t-40 2q-49 -20 -84 -125q-41 -53 -57 -139q-25 -154 -25 -174l-2 -45v-19q-4 -4 4 -178q2 -10 8 -29q6 -23 19 -73l26 -45q10 -6 27 -37q10 0 16 -15q14 -14 13 -16q10 -2 30 -12q55 -29 97 12q14 14 35.5 40t33 41t35.5 30 q68 51 117 -4q10 -16 3 -79t-58 -130q-4 -12 -27 -40t-47 -44q-4 -14 -156 -21q-8 0 -33 4q-23 -6 -60.5 6.5t-41.5 12.5l-27 6q-16 0 -32.5 10t-54.5 36t-58 42q-61 49 -88 113q-8 14 -10 39.5t-9 37.5q-16 16 -15 53.5t-5 90.5q0 25 2 28q-10 10 -8 36t2 71q6 12 5 72.5 t3 91.5q-8 18 -2 53l2 61q2 37 19 78q2 18 8 44t53 104q0 16 31 41q0 8 16 24.5t37 40.5q29 35 63.5 51t65.5 39z" />
<glyph unicode="&#x109;" horiz-adv-x="737" d="M344 1315q51 0 66 -10q49 -33 100 -86q84 -88 108.5 -107.5t36 -43.5t9.5 -36t-10.5 -19t-26 -12.5t-31.5 -13.5t-64 6q-20 0 -45 43q-25 6 -49 36t-51 48q-12 18 -22.5 17.5t-19.5 -15t-20.5 -31t-16.5 -23.5t-9 -15q-12 -18 -16 -23q-33 -35 -95 -8q-18 4 -33.5 23.5 t3.5 54.5q0 10 69.5 96t77.5 94q10 17 39 25zM145 684q0 27 27 45v4q0 14 32 51t36 45q45 27 59 31q16 -4 23 -4h4q59 14 136 -4t107 -66q16 -31 33 -81q25 -72 25 -105q12 -53 2 -98l-2 -21q0 -8 -10.5 -16t-23.5 -7t-23.5 -10.5t-42 -11.5t-33.5 19q-6 2 -19.5 14 t-13.5 18l-10 15q0 4 -9 12q-18 37 -14 57q10 53 6 58q0 31 -20 61q-2 2 -7.5 3t-13.5 3q-4 14 -8 15q-14 -4 -31 -23q-29 -80 -35 -106l-12 -125v-95q4 -74 17 -90q0 -8 8 -28q2 -27 43 -94l10 -13q10 -29 34.5 -28.5t69.5 57.5q-2 6 27 49q29 39 90 31q27 -4 27 -31 q2 -18 -12 -92q-20 -20 -21 -41q-14 -37 -14 -41q-6 0 -13 -6l-10 -21q-8 0 -10 -8q-23 -27 -31 -26q-6 -6 -33 -7q-39 -16 -57 -16l-35 -2l-22 8l-19 2q-25 10 -38 9t-19 2.5t-16 11.5q-25 20 -32 20t-24 12q-16 4 -26 15l-8 20q4 14 -5 17q-27 0 -30 10l-13 16 q0 16 -16 43l-25 74q-4 4 0 14v37l-24 160v29q18 68 18 69q-2 45 21 80q-1 39 26 80z" />
<glyph unicode="&#x10a;" horiz-adv-x="907" d="M553 1679q80 0 98 -86q0 -76 -46 -118.5t-86 -42.5t-99.5 36.5t-59.5 81.5q0 113 97 131q27 2 75 -6q1 4 21 4zM383 1253q29 12 119 9.5t129 -17.5l51 -16q63 -43 72 -43q84 -66 96 -172q12 -45 4 -82q0 -12 -8 -53l-21 -48l-24 -34q-12 -2 -15 -2q-76 -12 -116.5 -3 t-71.5 44q-6 12 -6 22q2 10 6 19l10 32q27 66 -4 111q0 6 -20.5 22.5t-31.5 24.5t-40 2q-49 -20 -84 -125q-41 -53 -57 -139q-25 -154 -25 -174l-2 -45v-19q-4 -4 4 -178q2 -10 8 -29q6 -23 19 -73l26 -45q10 -6 27 -37q10 0 16 -15q14 -14 13 -16q10 -2 30 -12 q55 -29 97 12q14 14 35.5 40t33 41t35.5 30q68 51 117 -4q10 -16 3 -79t-58 -130q-4 -12 -27 -40t-47 -44q-4 -14 -156 -21q-8 0 -33 4q-23 -6 -60.5 6.5t-41.5 12.5l-27 6q-16 0 -32.5 10t-54.5 36t-58 42q-61 49 -88 113q-8 14 -10 39.5t-9 37.5q-16 16 -15 53.5t-5 90.5 q0 25 2 28q-10 10 -8 36t2 71q6 12 5 72.5t3 91.5q-8 18 -2 53l2 61q2 37 19 78q2 18 8 44t53 104q0 16 31 41q0 8 16 24.5t37 40.5q29 35 63.5 51t65.5 39z" />
<glyph unicode="&#x10b;" horiz-adv-x="737" d="M416 1270q80 0 98 -86q0 -76 -46 -119t-86 -43t-99.5 37t-59.5 82q0 113 96 131q27 2 76 -6q1 4 21 4zM145 684q0 27 27 45v4q0 14 32 51t36 45q45 27 59 31q16 -4 23 -4h4q59 14 136 -4t107 -66q16 -31 33 -81q25 -72 25 -105q12 -53 2 -98l-2 -21q0 -8 -10.5 -16 t-23.5 -7t-23.5 -10.5t-42 -11.5t-33.5 19q-6 2 -19.5 14t-13.5 18l-10 15q0 4 -9 12q-18 37 -14 57q10 53 6 58q0 31 -20 61q-2 2 -7.5 3t-13.5 3q-4 14 -8 15q-14 -4 -31 -23q-29 -80 -35 -106l-12 -125v-95q4 -74 17 -90q0 -8 8 -28q2 -27 43 -94l10 -13 q10 -29 34.5 -28.5t69.5 57.5q-2 6 27 49q29 39 90 31q27 -4 27 -31q2 -18 -12 -92q-20 -20 -21 -41q-14 -37 -14 -41q-6 0 -13 -6l-10 -21q-8 0 -10 -8q-23 -27 -31 -26q-6 -6 -33 -7q-39 -16 -57 -16l-35 -2l-22 8l-19 2q-25 10 -38 9t-19 2.5t-16 11.5q-25 20 -32 20 t-24 12q-16 4 -26 15l-8 20q4 14 -5 17q-27 0 -30 10l-13 16q0 16 -16 43l-25 74q-4 4 0 14v37l-24 160v29q18 68 18 69q-2 45 21 80q-1 39 26 80z" />
<glyph unicode="&#x10c;" horiz-adv-x="907" d="M557 1409h-2q-43 -16 -76 -16q-29 8 -39 24q-16 16 -67 82q-80 102 -80 109q-18 35 -3 54t34 24q70 31 100 -17q4 -6 9 -14t9 -17q29 -37 37 -53q20 -31 43 2q27 18 51.5 48t49.5 36q25 43 45 43q49 14 63 6t31 -12q53 -16 29 -70q-12 -23 -29 -36q-33 -25 -72 -66 q-121 -127 -133 -127zM383 1253q29 12 119 9.5t129 -17.5l51 -16q63 -43 72 -43q84 -66 96 -172q12 -45 4 -82q0 -12 -8 -53l-21 -48l-24 -34q-12 -2 -15 -2q-76 -12 -116.5 -3t-71.5 44q-6 12 -6 22q2 10 4 19q12 33 12 32q27 66 -4 111q0 6 -20.5 22.5t-31.5 24.5t-40 2 q-49 -20 -84 -125q-41 -53 -57 -139q-25 -154 -25 -174l-2 -45v-19q-4 -4 4 -178q2 -10 8 -29q6 -23 19 -73l26 -45q10 -6 27 -37q10 0 16 -15q14 -14 13 -16q10 -2 30 -12q55 -29 97 12q14 14 35.5 40t33 41t35.5 30q68 51 117 -4q10 -16 3 -79t-58 -130q-4 -12 -27 -40 t-47 -44q-4 -14 -156 -21q-8 0 -33 4q-23 -6 -60.5 6.5t-41.5 12.5l-27 6q-16 0 -32.5 10t-54.5 36t-58 42q-61 49 -88 113q-8 14 -10 39.5t-9 37.5q-16 16 -15 53.5t-5 90.5q0 25 2 28q-10 10 -8 36t2 71q6 12 5 72.5t3 91.5q-8 18 -2 53l2 61q2 37 19 78q2 18 8 44t53 104 q0 16 31 41q0 8 16 24.5t37 40.5q29 35 63.5 51t65.5 39z" />
<glyph unicode="&#x10d;" horiz-adv-x="737" d="M426 999h-2q-43 -16 -76 -16q-29 8 -39 25q-16 16 -67 82q-80 102 -80 108q-18 35 -3 54.5t34 23.5q70 31 100 -16q4 -6 9 -14.5t9 -16.5q29 -37 37 -53q20 -31 43 2q27 18 51.5 47.5t49.5 36.5q25 43 45 43q49 14 63 6t31 -13q53 -16 28 -69q-12 -23 -28 -37 q-33 -25 -72 -66q-121 -127 -133 -127zM145 684q0 27 27 45v4q0 14 32 51t36 45q45 27 59 31q16 -4 23 -4h4q59 14 136 -4t107 -66q16 -31 33 -81q25 -72 25 -105q12 -53 2 -98l-2 -21q0 -8 -10.5 -16t-23.5 -7t-23.5 -10.5t-42 -11.5t-33.5 19q-6 2 -19.5 14t-13.5 18 l-10 15q0 4 -9 12q-18 37 -14 57q10 53 6 58q0 31 -20 61q-2 2 -7.5 3t-13.5 3q-4 14 -8 15q-14 -4 -31 -23q-29 -80 -35 -106l-12 -125v-95q4 -74 17 -90q0 -8 8 -28q2 -27 43 -94l10 -13q10 -29 34.5 -28.5t69.5 57.5q-2 6 27 49q29 39 90 31q27 -4 27 -31q2 -18 -12 -92 q-20 -20 -21 -41q-14 -37 -14 -41q-6 0 -13 -6l-10 -21q-8 0 -10 -8q-23 -27 -31 -26q-6 -6 -33 -7q-39 -16 -57 -16l-35 -2l-22 8l-19 2q-25 10 -38 9t-19 2.5t-16 11.5q-25 20 -32 20t-24 12q-16 4 -26 15l-8 20q4 14 -5 17q-27 0 -30 10l-13 16q0 16 -16 43l-25 74 q-4 4 0 14v37l-24 160v29q18 68 18 69q-2 45 21 80q-1 39 26 80z" />
<glyph unicode="&#x10e;" horiz-adv-x="1093" d="M598 1409h-2q-43 -16 -76 -16q-29 8 -39 24q-16 16 -67 82q-80 102 -80 109q-18 35 -3 54t34 24q70 31 100 -17q4 -6 9 -14t9 -17q29 -37 37 -53q20 -31 43 2q27 18 51.5 48t49.5 36q25 43 45 43q49 14 63 6t31 -12q53 -16 28 -70q-12 -23 -28 -36q-33 -25 -72 -66 q-121 -127 -133 -127zM797 586q12 25 16 90t8 90q0 240 -131 313q-53 31 -102 17q-23 0 -70 -29q-2 -29 -2 -96l-10 -76l-19 -188q0 -4 -4 -60q-31 -322 -30 -481q37 8 63 35q72 59 80 63l29 27q10 2 53 49v2l39 51l41 84q16 23 39 109zM205 276q-4 8 -4 30t6 50.5t6 67.5 t12 100q-8 12 2 92q10 18 8 49t-2 50q0 88 4.5 100t2.5 49q12 12 20 97q-70 -2 -104.5 37.5t-57.5 113.5q2 12 5 23.5t5.5 19.5t8.5 17.5t9 14.5t13.5 14t14.5 12.5t18 12.5t18.5 12t21.5 14.5t24 15.5q6 10 32.5 15t79.5 28q8 8 96 27.5t172 -15.5q47 0 68 -8 q20 -18 55 -27l105 -55q23 -23 92 -107q76 -135 96 -274q2 -39 2 -137q-18 -186 -67 -271q-4 -25 -23 -61q0 -4 -27.5 -50t-62.5 -90t-45 -59q-84 -78 -94 -86q-47 -35 -53 -37q-156 -78 -165.5 -84t-50.5 -14q-59 -6 -73 6q-33 14 -60 43q-8 2 -32 33q-33 25 -37 29 q-27 39 -39 147q-2 8 0 55z" />
<glyph unicode="&#x10f;" horiz-adv-x="1040" d="M997 1409q8 -4 18.5 -1t26 3t27.5 -2q20 0 39 -35q0 -16 2 -63t-4 -98.5t-17.5 -72t-26.5 -38t-36 -43.5q-55 -76 -152 -62q-37 4 -36 43q0 6 4 7h4q12 0 45 51l35 51v8q0 20 -2 121l-33 86q20 41 59 45h47zM508 520l-4 31q-6 8 -7 21.5t-8 41.5q0 37 -18 66 q-6 16 -49 10q-29 -29 -68 -162q0 -2 -6 -16q-8 -18 -16 -60t-10 -49q-4 -12 -5 -22q-4 -8 -4 -27l-8 -39q-8 -12 -4 -30v-29q2 -6 -2 -35v-28l4 -70q0 -25 41 -80q16 -4 21 2q41 41 45 84l6 27q10 10 16 61l10 35q0 18 8.5 38.5t10.5 31.5q0 16 26 81q-2 6 -2 13v14 q23 88 23 90zM768 1182q0 -72 -8 -88l-15 -133v-70q-2 -35 -2 -104.5t3.5 -115.5t-5.5 -77q4 -4 4 -14l3 -17l-3 -47v-86q2 -23 3 -78q4 -47 4 -75.5t6 -57.5v-26l8 -84v-70q4 -14 4 -27.5t9 -45.5t7 -58q-57 -68 -145 -33q-18 2 -37.5 20.5t-23.5 36.5l-2 41q-10 2 -13 35 q-8 12 -6 21q6 10 -10 34l-23 -38q-10 -16 -22 -21l-8 -24q-29 -31 -43 -52l-25 -24q-49 -10 -135 8q-20 0 -33 4h-14q-4 -4 -45 18q-35 14 -37 27l12 -2q-29 12 -20 39q-25 10 -31 45l-19 70q-4 27 3 57q-4 8 10 55l-6 19l-4 37q-6 8 2 36l-13 21q0 82 6 100l2 27 q-10 16 7 70l28 94q0 4 6 37q10 51 25 65l37 62q10 10 22 30q20 37 86 37q68 10 218 -16v71l-7 86q0 61 -3 112.5t1 82.5q2 2 20.5 84t61.5 123q14 8 52 10t46.5 -4t22.5 -10q57 -16 57 -105z" />
<glyph unicode="&#x110;" horiz-adv-x="1093" d="M485 680q20 0 140 -8q90 -23 94 -35q0 -4 -1 -9t-2 -20.5t-3 -19.5q-6 -12 -51 -21q-51 -10 -80 -10h-33q-4 0 -18.5 -4t-47.5 -4h-10v-10q-27 -350 -20 -373q8 4 20 8q16 0 43 27q72 59 80 63l29 27q25 4 53 49v2l39 51l41 84q18 25 30.5 72t24.5 90v31l4 55q0 16 4 41 q0 240 -131 313q-53 31 -102 17q-18 0 -70 -29v-23q-2 -29 -2 -73l-10 -76zM213 678l20 2v41q0 82 4.5 94t2.5 49q6 6 6 72l-23 -16q-8 -6 -31.5 -36t-48 -53.5t-77 -9t-58.5 48.5q16 53 35.5 92t46.5 107q41 41 49 84l15 21l32 36q0 14 50 58q6 10 32.5 15t79.5 28 q8 8 34 15t36 7q115 25 198 -10q47 0 68 -8q20 -18 55 -27l105 -55q23 -23 92 -107q76 -135 96 -274q2 -39 2 -137q-18 -186 -67 -271q-4 -25 -23 -61q0 -4 -27.5 -50t-62.5 -90t-45 -59q-111 -102 -122 -108t-16 -9.5t-12 -5.5q-154 -78 -163 -84t-50 -14q-59 -6 -73 6 q-33 14 -60 43q-8 2 -32 33q-33 25 -37 29q-18 27 -26.5 67.5t-8.5 42.5q-6 53 -4 92q-4 8 -4 30t6 50.5t6 69.5t10 90q-14 -2 -51 -2t-78 29l-26 16l-11 43q0 33 6 60q27 8 73 10t75 6h2z" />
<glyph unicode="&#x111;" horiz-adv-x="909" d="M334 350q0 -27 -4 -65.5t20 -124.5q10 -59 21 -76q14 0 26 31q0 2 15 28q6 2 41 58q12 25 24 49q6 43 28.5 76.5t35 59.5t10.5 69q0 16 -14 98q-4 10 -15.5 46t-29 51.5t-36 13.5t-44.5 -58q-33 -66 -47.5 -127t-18.5 -73q-6 -18 -6 -33zM754 1288q16 -16 17 -36.5 t7 -45.5h21q55 -4 82 -12q6 -27 6 -59l-10 -43l-27 -17q-41 -29 -68 -28h-6v-17q-16 -260 -37 -393l13 -113q31 -168 39 -182q12 -78 51 -143l4 -17l31 -51q14 -31 13 -61.5t-7 -42.5q-29 -57 -58 -62q-14 -6 -45 0q-27 0 -39 12q-6 0 -16 3q-31 -6 -39 14q-12 12 -27.5 44 t-35.5 54l-11 23q-8 37 -9 38t-3 9l-72 -113q-4 -14 -53 -82l-26 -22q-25 -12 -72 -6q-4 -2 -35 -2l-115 20q-37 25 -63 78q-16 29 -17 47q0 20 -18 80l-4 31v12l-2 28q4 8 -4 35l-2 19v35q0 12 6 47q2 27 1 60.5t1 47.5q-4 20 2 35q-4 14 2 49q0 23 35 103q-6 33 29 73 q0 2 20 31q6 6 31 16l49 33q78 23 143 8l82 -28q4 31 1 143.5t-1 138.5q-6 0 -10 2h-47q-33 0 -47.5 4.5t-18.5 4.5h-33q-29 0 -71.5 8t-52 15t-10.5 24.5t-3 28t14.5 16.5t43 13t29.5 8t7 1q127 8 213 13q0 33 3 51l24 86q0 23 8 32l25 21q43 6 52 5t42 5q43 -51 53 -76z " />
<glyph unicode="&#x112;" horiz-adv-x="821" d="M319 1649q70 8 140 8q66 0 172 -8.5t114 -10.5q80 -23 79 -34t-2 -26t-3 -19q-6 -12 -51 -21q-51 -10 -80 -10h-33q-4 0 -18 -4t-47 -4h-47q-16 -2 -64 -7q-23 -14 -49 -8q-12 -6 -62.5 -13t-88 -7t-78.5 28l-27 17l-10 43q0 33 6 59q27 8 73 10.5t74 6.5h2zM330 477v-82 q0 -127 14 -141q-2 -2 10 -49q0 -16 17 -51q0 -10 57 -50q25 0 121 41l145 56q27 8 50.5 -7.5t28.5 -53.5t-2 -54t-34.5 -41t-36 -35t-31 -21.5t-50 -23.5t-37.5 -18q-80 -37 -123 -29q-27 0 -54.5 10.5t-30.5 9.5t-16.5 2t-26 6t-63.5 13q0 8 -28 16l-56 45q-14 8 -30 52 l-19 30q-8 6 -22 48q-8 10 -11 36q-10 23 -10 64q-8 10 -18 78q-14 88 -2 157q0 39 14 76q2 16 4 33q10 53 14 82q-8 29 27 137q0 16 13.5 48t15.5 67l16 39q0 16 31 120q16 39 16 46l51 108l25 33q14 14 43 24q12 10 66 -2q33 -12 45 -24q14 -6 34 -6l158 10 q59 -4 79.5 -13.5t40 -32t14.5 -45t-17 -34.5q-27 -23 -98 -53q-125 -68 -136 -72l-49 -22q-31 -20 -39 -43q-63 -229 -68 -255t-6 -31t-1 -7l41 4q90 29 106 18q8 0 23 6q76 27 133 23q10 6 22 -8.5t19 -34.5q12 -51 -31 -80q-86 -57 -205 -92q-39 -31 -108 -39z" />
<glyph unicode="&#x113;" d="M506 655q8 31 -2 78q-14 12 -39 12q-31 0 -55 -57q-33 -49 -50 -108h-2q-23 -86 -22 -93q33 -8 53.5 -7t46.5 22q47 44 70 153zM295 1239q70 8 139 8q63 0 171 -8t116 -10q80 -23 79 -34t-2 -26.5t-3 -19.5q-6 -12 -52 -21q-51 -10 -79 -10h-33q-4 0 -18.5 -4t-47.5 -4 h-47q-16 -2 -63 -6q-23 -14 -49 -8q-12 -6 -62.5 -13.5t-88.5 -7.5t-79 29l-26 16l-11 43q0 33 6 60q27 8 73 10t75 6h2zM500 360l-76 -6q-63 0 -100 13l6 -39q6 -170 94 -224q25 -10 41 -10t43 17q8 8 14 22q2 18 21 17q84 106 127 83q43 -29 43 -45q0 -8 -11 -18v-12 q0 -20 -25.5 -73.5t-53.5 -90.5q-14 -31 -37 -43q-66 -41 -140 -33q-16 2 -22 8q-16 4 -25 2l-16 2q-18 0 -31 9q-20 12 -28 12q-53 20 -64.5 30.5t-20 14.5t-38.5 43q-27 23 -31 29q-12 18 -21.5 26t-11.5 37q-8 10 -8 27l-8 16q0 14 -12 23q-12 12 -13 30v17q-8 4 -4 24 v54l-2 18v14q-2 8 4 35l-2 19q2 2 6 32q8 43 19 54v18q2 6 2 16.5t5 22.5t32 92l32 72q14 31 45 67q2 10 17 37l26 25q12 18 37 26q29 14 43 15l58 8q10 -2 14 -2h27q45 -4 73 -19q61 -18 90 -47q63 -72 63.5 -137t-19.5 -113q-51 -117 -74 -147q-37 -68 -88 -68z" />
<glyph unicode="&#x114;" horiz-adv-x="821" d="M774 1651q0 -39 -43 -129q-84 -100 -129 -115.5t-132 -5.5t-122 39q-92 72 -99 77t-17.5 41.5t-12.5 65.5q-4 70 25 82q20 6 59 2q63 -10 68 -33q2 -12 0 -32.5t1 -37t25.5 -34t41 -21.5t46 -7t62.5 12.5t56.5 53.5t19.5 62q23 23 54.5 22t45.5 -14q51 -22 51 -28z M330 477v-82q0 -127 14 -141q-2 -2 10 -49q0 -16 17 -51q0 -10 57 -50q25 0 121 41l145 56q27 8 50.5 -7.5t28.5 -53.5t-2 -54t-34.5 -41t-36 -35t-31 -21.5t-50 -23.5t-37.5 -18q-80 -37 -123 -29q-27 0 -54.5 10.5t-30.5 9.5t-16.5 2t-26 6t-63.5 13q0 8 -28 16l-56 45 q-14 8 -30 52l-19 30q-8 6 -22 48q-8 10 -11 36q-10 23 -10 64q-8 10 -18 78q-14 88 -2 157q0 39 14 76q2 16 4 33q10 53 14 82q-8 29 27 137q0 16 13.5 48t15.5 67l16 39q0 16 31 120q16 39 16 46l51 108l25 33q14 14 43 24q12 10 66 -2q33 -12 45 -24q14 -6 34 -6l158 10 q59 -4 79.5 -13.5t40 -32t14.5 -45t-17 -34.5q-27 -23 -98 -53q-125 -68 -136 -72l-49 -22q-31 -20 -39 -43q-63 -229 -68 -255t-6 -31t-1 -7l41 4q90 29 106 18q8 0 23 6q76 27 133 23q10 6 22 -8.5t19 -34.5q12 -51 -31 -80q-86 -57 -205 -92q-39 -31 -108 -39z" />
<glyph unicode="&#x115;" d="M506 655q8 31 -2 78q-14 12 -39 12q-31 0 -55 -57q-33 -49 -50 -108h-2q-23 -86 -22 -93q33 -8 53.5 -7t46.5 22q47 44 70 153zM750 1241q0 -39 -43 -129q-84 -100 -129.5 -115.5t-132.5 -5.5t-121 39q-92 72 -99.5 77t-17.5 42t-12 65q-4 70 24 82q20 6 60 2 q63 -10 67 -32q2 -12 0 -33t1 -37t25.5 -33.5t41 -21.5t46 -7.5t62.5 12t56.5 53.5t19.5 63q23 23 54.5 21.5t45.5 -13.5q52 -23 52 -29zM500 360l-76 -6q-63 0 -100 13l6 -39q6 -170 94 -224q25 -10 41 -10t43 17q8 8 14 22q2 18 21 17q84 106 127 83q43 -29 43 -45 q0 -8 -11 -18v-12q0 -20 -25.5 -73.5t-53.5 -90.5q-14 -31 -37 -43q-66 -41 -140 -33q-16 2 -22 8q-16 4 -25 2l-16 2q-18 0 -31 9q-20 12 -28 12q-53 20 -64.5 30.5t-20 14.5t-38.5 43q-27 23 -31 29q-12 18 -21.5 26t-11.5 37q-8 10 -8 27l-8 16q0 14 -12 23 q-12 12 -13 30v17q-8 4 -4 24v54l-2 18v14q-2 8 4 35l-2 19q2 2 6 32q8 43 19 54v18q2 6 2 16.5t5 22.5t32 92l32 72q14 31 45 67q2 10 17 37l26 25q12 18 37 26q29 14 43 15l58 8q10 -2 14 -2h27q45 -4 73 -19q61 -18 90 -47q63 -72 63.5 -137t-19.5 -113 q-51 -117 -74 -147q-37 -68 -88 -68z" />
<glyph unicode="&#x116;" horiz-adv-x="821" d="M543 1679q80 0 98 -86q0 -76 -46 -118.5t-86 -42.5t-99.5 36.5t-59.5 81.5q0 113 96 131q27 2 76 -6q1 4 21 4zM330 477v-82q0 -127 14 -141q-2 -2 10 -49q0 -16 17 -51q0 -10 57 -50q25 0 121 41l145 56q27 8 50.5 -7.5t28.5 -53.5t-2 -54t-34.5 -41t-36 -35t-31 -21.5 t-50 -23.5t-37.5 -18q-80 -37 -123 -29q-27 0 -54.5 10.5t-30.5 9.5t-16.5 2t-26 6t-63.5 13q0 8 -28 16l-56 45q-14 8 -30 52l-19 30q-8 6 -22 48q-8 10 -11 36q-10 23 -10 64q-8 10 -18 78q-14 88 -2 157q0 39 14 76q2 16 4 33q10 53 14 82q-8 29 27 137q0 16 13.5 48 t15.5 67l16 39q0 16 31 120q16 39 16 46l51 108l25 33q14 14 43 24q12 10 66 -2q33 -12 45 -24q14 -6 34 -6l158 10q59 -4 79.5 -13.5t40 -32t14.5 -45t-17 -34.5q-27 -23 -98 -53q-125 -68 -136 -72l-49 -22q-31 -20 -39 -43q-63 -229 -68 -255t-6 -31t-1 -7l41 4 q90 29 106 18q8 0 23 6q76 27 133 23q10 6 22 -8.5t19 -34.5q12 -51 -31 -80q-86 -57 -205 -92q-39 -31 -108 -39z" />
<glyph unicode="&#x117;" d="M506 655q8 31 -2 78q-14 12 -39 12q-31 0 -55 -57q-33 -49 -50 -108h-2q-23 -86 -22 -93q33 -8 53.5 -7t46.5 22q47 44 70 153zM518 1270q80 0 98 -86q0 -76 -46 -119t-86 -43t-99 37t-59 82q0 113 96 131q27 2 76 -6q0 4 20 4zM500 360l-76 -6q-63 0 -100 13l6 -39 q6 -170 94 -224q25 -10 41 -10t43 17q8 8 14 22q2 18 21 17q84 106 127 83q43 -29 43 -45q0 -8 -11 -18v-12q0 -20 -25.5 -73.5t-53.5 -90.5q-14 -31 -37 -43q-66 -41 -140 -33q-16 2 -22 8q-16 4 -25 2l-16 2q-18 0 -31 9q-20 12 -28 12q-53 20 -64.5 30.5t-20 14.5 t-38.5 43q-27 23 -31 29q-12 18 -21.5 26t-11.5 37q-8 10 -8 27l-8 16q0 14 -12 23q-12 12 -13 30v17q-8 4 -4 24v54l-2 18v14q-2 8 4 35l-2 19q2 2 6 32q8 43 19 54v18q2 6 2 16.5t5 22.5t32 92l32 72q14 31 45 67q2 10 17 37l26 25q12 18 37 26q29 14 43 15l58 8 q10 -2 14 -2h27q45 -4 73 -19q61 -18 90 -47q63 -72 63.5 -137t-19.5 -113q-51 -117 -74 -147q-37 -68 -88 -68z" />
<glyph unicode="&#x118;" horiz-adv-x="821" d="M334 461q-6 -43 -2 -92v-43q4 -68 12 -76q-2 -2 10 -47q0 -33 45 -94l29 -9q23 0 109 35l92 37q8 0 55 33t73.5 6t9.5 -66t-28 -53q-20 -72 -94 -145l-45 -33q-14 -4 -32.5 -22.5t-18.5 -24.5t-6 -19q-12 -29 -6 -53q16 -76 114 -45q39 10 58 27q55 37 79.5 -8t-2.5 -80 q-51 -68 -140 -68t-154 37q-94 43 -107 96q-18 86 6 103q16 33 45 61q-14 0 -57 16q0 -2 -4 -2l-107 23q0 8 -28 18l-37 23q0 8 -19 22q-14 6 -22 24.5t-8 25.5l-19 30q-8 4 -22 47q-8 10 -11 37q-10 23 -10 64q-12 18 -20 80q-12 94 -8 112.5t8 42.5q0 41 14 76 q2 14 4 24.5t2 16.5l10 59q0 10 2 15q-6 29 23 125q0 2 2 8t4 16t4 14.5t8 28.5q12 25 15 60l16 39q0 35 21 86l26 81l51 107l25 33q39 39 94 24q37 -6 60 -24q14 -8 51 -8q8 4 49 4q49 10 101.5 6t71.5 -13.5t38.5 -32t14.5 -45t-17 -34.5q-27 -23 -98 -53 q-113 -61 -129 -68q-12 -6 -56 -27q-31 -20 -39 -43q-31 -104 -37 -129q-2 -14 -16 -66t-17 -68.5t-4 -21.5t-1 -7q20 10 45 10l24 6q4 0 31 12q49 6 59 4q8 -2 24.5 2t20.5 4q57 14 73.5 18.5t53.5 2.5q8 4 23.5 -5t18.5 -27.5t-5 -31.5q-25 -37 -180 -114l-117 -60 q-33 -20 -71 -24l-31 12v-12z" />
<glyph unicode="&#x119;" d="M506 655q8 31 -2 78q-14 12 -39 12q-31 0 -55 -57q-33 -49 -50 -108h-2q-23 -86 -22 -93q33 -8 53.5 -7t46.5 22q47 44 70 153zM500 360l-76 -6q-63 0 -100 13l6 -39q6 -170 94 -224q25 -10 41 -10t43 17q8 8 14 22q2 18 21 17q84 106 127 83q43 -29 43 -45q0 -8 -11 -18 v-12q0 -20 -43 -107q0 -2 -47 -63q-96 -88 -96 -109q0 -2 -6 -14q-12 -29 -6 -53q16 -76 114 -45q39 10 58 26q55 37 79.5 -8t-1.5 -80q-51 -68 -140.5 -67.5t-154.5 36.5q-88 41 -105 109q-6 29 -6 55q0 51 10 58q8 18 23 34q-16 0 -29 9q-20 12 -28 12q-53 20 -64.5 30.5 t-20 14.5t-38.5 43q-27 23 -31 29q-12 18 -21.5 26t-11.5 37q-8 10 -8 27l-8 16q0 14 -12 23q-12 12 -13 30v17q-8 4 -4 24v54l-2 18v14q-2 8 4 35l-2 19q2 2 6 32q8 43 19 54v18q2 6 2 16.5t5 22.5t32 92l32 72q14 31 45 67q2 10 17 37l26 25q12 18 37 26q29 14 43 15l58 8 q10 -2 14 -2h27q45 -4 73 -19q61 -18 90 -47q63 -72 63.5 -137t-19.5 -113q-51 -117 -74 -147q-37 -68 -88 -68z" />
<glyph unicode="&#x11a;" horiz-adv-x="821" d="M469 1393q-29 8 -39 24q-16 16 -68 82q-80 102 -79 109q-18 35 -3 54t33 24q70 31 101 -17q4 -6 9 -14t11 -17q27 -37 37 -53q18 -31 41 2q27 18 51.5 48t48.5 36q25 43 45 43q49 14 63.5 6t33.5 -12q51 -16 24 -70q-10 -23 -26 -36q-33 -25 -72 -66q-121 -127 -135 -127 q-43 -16 -76 -16zM330 477v-82q0 -127 14 -141q-2 -2 10 -49q0 -16 17 -51q0 -10 57 -50q25 0 121 41l145 56q27 8 50.5 -7.5t28.5 -53.5t-2 -54t-34.5 -41t-36 -35t-31 -21.5t-50 -23.5t-37.5 -18q-80 -37 -123 -29q-27 0 -54.5 10.5t-30.5 9.5t-16.5 2t-26 6t-63.5 13 q0 8 -28 16l-56 45q-14 8 -30 52l-19 30q-8 6 -22 48q-8 10 -11 36q-10 23 -10 64q-8 10 -18 78q-14 88 -2 157q0 39 14 76q2 16 4 33q10 53 14 82q-8 29 27 137q0 16 13.5 48t15.5 67l16 39q0 16 31 120q16 39 16 46l51 108l25 33q14 14 43 24q12 10 66 -2q33 -12 45 -24 q14 -6 34 -6l158 10q59 -4 79.5 -13.5t40 -32t14.5 -45t-17 -34.5q-27 -23 -98 -53q-125 -68 -136 -72l-49 -22q-31 -20 -39 -43q-63 -229 -68 -255t-6 -31t-1 -7l41 4q90 29 106 18q8 0 23 6q76 27 133 23q10 6 22 -8.5t19 -34.5q12 -51 -31 -80q-86 -57 -205 -92 q-39 -31 -108 -39z" />
<glyph unicode="&#x11b;" d="M506 655q8 31 -2 78q-14 12 -39 12q-31 0 -55 -57q-33 -49 -50 -108h-2q-23 -86 -22 -93q33 -8 53.5 -7t46.5 22q47 44 70 153zM528 999h-2q-43 -16 -75 -16q-29 8 -39 25q-16 16 -68 82q-80 102 -80 108q-18 35 -3 54.5t34 23.5q70 31 100 -16q4 -6 9.5 -14.5t9.5 -16.5 q29 -37 37 -53q20 -31 43 2q27 18 51 47.5t49 36.5q25 43 45 43q49 14 63.5 6t30.5 -13q53 -16 29 -69q-12 -23 -29 -37q-33 -25 -71 -66q-122 -127 -134 -127zM500 360l-76 -6q-63 0 -100 13l6 -39q6 -170 94 -224q25 -10 41 -10t43 17q8 8 14 22q2 18 21 17q84 106 127 83 q43 -29 43 -45q0 -8 -11 -18v-12q0 -20 -25.5 -73.5t-53.5 -90.5q-14 -31 -37 -43q-66 -41 -140 -33q-16 2 -22 8q-16 4 -25 2l-16 2q-18 0 -31 9q-20 12 -28 12q-53 20 -64.5 30.5t-20 14.5t-38.5 43q-27 23 -31 29q-12 18 -21.5 26t-11.5 37q-8 10 -8 27l-8 16 q0 14 -12 23q-12 12 -13 30v17q-8 4 -4 24v54l-2 18v14q-2 8 4 35l-2 19q2 2 6 32q8 43 19 54v18q2 6 2 16.5t5 22.5t32 92l32 72q14 31 45 67q2 10 17 37l26 25q12 18 37 26q29 14 43 15l58 8q10 -2 14 -2h27q45 -4 73 -19q61 -18 90 -47q63 -72 63.5 -137t-19.5 -113 q-51 -117 -74 -147q-37 -68 -88 -68z" />
<glyph unicode="&#x11c;" horiz-adv-x="1064" d="M473 1724q51 0 68 -10q47 -33 98 -86q84 -88 108.5 -107.5t36 -43t9.5 -35.5t-10.5 -19.5t-26 -12.5t-31.5 -13t-63 6q-20 0 -46 43q-25 6 -49 35.5t-51 48.5q-12 18 -22.5 17t-19.5 -15t-20.5 -30.5t-16.5 -24t-11 -15.5q-10 -18 -14 -22q-33 -35 -95 -8 q-18 4 -33.5 23.5t3.5 53.5q0 10 69.5 96.5t77.5 94.5q10 16 39 24zM342 10l-39 -2q-4 4 -45 6q-4 8 -31 19q-12 0 -51 39q-35 29 -37 32q-2 8 -14 21q-8 12 -19 57q-33 100 -34.5 131t4.5 86q-8 10 2 52q0 23 6 102v12l8 92q-2 41 12.5 84t20.5 80q6 2 12 53q31 96 37 107 l33 57q6 6 18 27l62 80q12 14 53 35q23 23 53 34q78 33 133 39q25 -18 68 13q123 -10 165 -10.5t83 -14.5q61 -12 63 -47q4 -51 -14.5 -77.5t-46.5 -22.5q-84 12 -137.5 8t-100.5 -31q-4 -2 -18 -8q-33 -14 -53 -31q-76 -63 -142 -239l-6 -35q2 2 1 -1t-4 -12.5t-4 -15.5 t-7 -20q-20 -55 -35.5 -154.5t-15.5 -165t22 -104.5l33 -37q8 -16 49 -39q18 -23 55 -45q33 -14 111 31q8 6 16 14l49 33q45 47 56 63l24 21l8 63q0 2 5 12q8 31 8 54v28l-4 64q2 29 -9 39q-31 0 -114 -58q-6 -4 -27.5 -3t-34.5 7q-35 20 -34.5 51t6.5 49.5t7 25t8 13.5 t19.5 15t30 25.5t72.5 44t124.5 26.5t112.5 -40t74 -148q4 -25 4 -108t-39 -308q-10 -98 -23 -132t-17.5 -69.5t-7.5 -50t-4 -19.5t-2 -9t-7 -23.5t-30.5 -40t-45.5 -22.5q-68 12 -90 43q-8 12 -22.5 44.5t-15.5 56.5t0 32t7 50t9 64l-56 -67q0 -8 -37 -29q-16 -16 -94 -12 h-18q-2 -16 -97 2q-12 -2 -61 14z" />
<glyph unicode="&#x11d;" horiz-adv-x="821" d="M330 399l4 -80l14 -38l21 -41q6 -43 41 -52q25 -4 47 27q12 10 18 14q12 10 12 46t7 59q-2 10 3 72.5t10 96.5t3 46q-14 18 -27 76q-41 41 -55 45q-45 16 -55 4q-14 -14 -31 -135q-12 -20 -11 -52t-1 -49v-39zM385 1315q51 0 66 -10q49 -33 100 -86q84 -88 108.5 -107.5 t36 -43.5t9 -36t-10.5 -19t-25.5 -12.5t-31.5 -13.5t-64 6q-20 0 -45 43q-25 6 -49 36t-51 48q-12 18 -22.5 17.5t-19.5 -15t-20.5 -31t-16.5 -23.5t-9 -15q-12 -18 -16 -23q-33 -35 -95 -8q-18 4 -33.5 23.5t3.5 54.5q0 10 69.5 96t77.5 94q10 17 39 25zM711 455 q8 -102 8 -160l2 -27l-4 -125q0 -29 -2 -53v-33l-8 -53v-20q0 -76 -70 -215q-25 -51 -76 -105q-86 -92 -211 -96q-104 0 -153 43l-21 10q-25 12 -55 78q0 6 -10 27q0 29 12 45q8 16 55 28q20 4 76 -41q41 -45 96 -47q57 -8 88 53.5t47 163.5q8 39 8.5 88.5t-4.5 65.5 q-55 -29 -98 -25h-18q-16 -4 -49 1t-62 26l-39 27q2 -2 -2 -2l-10 6l-29 22q-18 10 -18 39q-14 8 -21 21q-16 6 -16 28l-10 41q0 10 -11 51q-10 16 -5 33t5 27l7 69v15q-6 6 0 39q6 12 6 18q12 66 18 83t9.5 40t15.5 41l20 47q12 23 66 64q20 20 51 26l57 -4l60 -14 q2 0 76 -31q0 39 38 66q16 16 72 2h19q23 2 49 -19q12 -14 26 -65q15 -190 15 -299z" />
<glyph unicode="&#x11e;" horiz-adv-x="1064" d="M811 1651q0 -39 -43 -129q-84 -100 -129 -115.5t-132 -5.5t-122 39q-92 72 -99 77t-17.5 41.5t-12.5 65.5q-4 70 25 82q20 6 59 2q63 -10 68 -33q2 -12 0 -32.5t1 -37t25.5 -34t41 -21.5t46 -7t62 12.5t56.5 53.5t19 62q23 23 54.5 22t46.5 -14q51 -22 51 -28zM342 10 l-39 -2q-4 4 -45 6q-4 8 -31 19q-12 0 -51 39q-35 29 -37 32q-2 8 -14 21q-8 12 -19 57q-33 100 -34.5 131t4.5 86q-8 10 2 52q0 23 6 102v12l8 92q-2 41 12.5 84t20.5 80q6 2 12 53q31 96 37 107l33 57q6 6 18 27l62 80q12 14 53 35q23 23 53 34q78 33 133 39q25 -18 68 13 q123 -10 165 -10.5t83 -14.5q61 -12 63 -47q4 -51 -14.5 -77.5t-46.5 -22.5q-84 12 -137.5 8t-100.5 -31q-4 -2 -18 -8q-33 -14 -53 -31q-76 -63 -142 -239l-6 -35q2 2 1 -1t-4 -12.5t-4 -15.5t-7 -20q-20 -55 -35.5 -154.5t-15.5 -165t22 -104.5l33 -37q8 -16 49 -39 q18 -23 55 -45q33 -14 111 31q8 6 16 14l49 33q45 47 56 63l24 21l8 63q0 2 5 12q8 31 8 54v28l-4 64q2 29 -9 39q-31 0 -114 -58q-6 -4 -27.5 -3t-34.5 7q-35 20 -34.5 51t6.5 49.5t7 25t8 13.5t19.5 15t30 25.5t72.5 44t124.5 26.5t112.5 -40t74 -148q4 -25 4 -108 t-39 -308q-10 -98 -23 -132t-17.5 -69.5t-7.5 -50t-4 -19.5t-2 -9t-7 -23.5t-30.5 -40t-45.5 -22.5q-68 12 -90 43q-8 12 -22.5 44.5t-15.5 56.5t0 32t7 50t9 64l-56 -67q0 -8 -37 -29q-16 -16 -94 -12h-18q-2 -16 -97 2q-12 -2 -61 14z" />
<glyph unicode="&#x11f;" horiz-adv-x="821" d="M688 1241q0 -39 -43 -129q-84 -100 -129 -115.5t-132 -5.5t-122 39q-92 72 -99 77t-17.5 42t-12.5 65q-4 70 25 82q20 6 59 2q63 -10 68 -32q2 -12 0 -33t1 -37t25.5 -33.5t41 -21.5t46 -7.5t62.5 12t56.5 53.5t19.5 63q23 23 54.5 21.5t45.5 -13.5q51 -23 51 -29z M330 399l4 -80l14 -38l21 -41q6 -43 41 -52q25 -4 47 27q12 10 18 14q12 10 12 46t7 59q-2 10 3 72.5t10 96.5t3 46q-14 18 -27 76q-41 41 -55 45q-45 16 -55 4q-14 -14 -31 -135q-12 -20 -11 -52t-1 -49v-39zM711 455q8 -102 8 -160l2 -27l-4 -125q0 -29 -2 -53v-33l-8 -53 v-20q0 -76 -70 -215q-25 -51 -76 -105q-86 -92 -211 -96q-104 0 -153 43l-21 10q-25 12 -55 78q0 6 -10 27q0 29 12 45q8 16 55 28q20 4 76 -41q41 -45 96 -47q57 -8 88 53.5t47 163.5q8 39 8.5 88.5t-4.5 65.5q-55 -29 -98 -25h-18q-16 -4 -49 1t-62 26l-39 27q2 -2 -2 -2 l-10 6l-29 22q-18 10 -18 39q-14 8 -21 21q-16 6 -16 28l-10 41q0 10 -11 51q-10 16 -5 33t5 27l7 69v15q-6 6 0 39q6 12 6 18q12 66 18 83t9.5 40t15.5 41l20 47q12 23 66 64q20 20 51 26l57 -4l60 -14q2 0 76 -31q0 39 38 66q16 16 72 2h19q23 2 49 -19q12 -14 26 -65 q15 -190 15 -299z" />
<glyph unicode="&#x120;" horiz-adv-x="1064" d="M580 1679q80 0 98 -86q0 -76 -46 -118.5t-86 -42.5t-99.5 36.5t-59.5 81.5q0 113 96 131q27 2 76 -6q1 4 21 4zM342 10l-39 -2q-4 4 -45 6q-4 8 -31 19q-12 0 -51 39q-35 29 -37 32q-2 8 -14 21q-8 12 -19 57q-33 100 -34.5 131t4.5 86q-8 10 2 52q0 23 6 102v12l8 92 q-2 41 12.5 84t20.5 80q6 2 12 53q31 96 37 107l33 57q6 6 18 27l62 80q12 14 53 35q23 23 53 34q78 33 133 39q25 -18 68 13q123 -10 165 -10.5t83 -14.5q61 -12 63 -47q4 -51 -14.5 -77.5t-46.5 -22.5q-84 12 -137.5 8t-100.5 -31q-4 -2 -18 -8q-33 -14 -53 -31 q-76 -63 -142 -239l-6 -35q2 2 1 -1t-4 -12.5t-4 -15.5t-7 -20q-20 -55 -35.5 -154.5t-15.5 -165t22 -104.5l33 -37q8 -16 49 -39q18 -23 55 -45q33 -14 111 31q8 6 16 14l49 33q45 47 56 63l24 21l8 63q0 2 5 12q8 31 8 54v28l-4 64q2 29 -9 39q-31 0 -114 -58 q-6 -4 -27.5 -3t-34.5 7q-35 20 -34.5 51t6.5 49.5t7 25t8 13.5t19.5 15t30 25.5t72.5 44t124.5 26.5t112.5 -40t74 -148q4 -25 4 -108t-39 -308q-10 -98 -23 -132t-17.5 -69.5t-7.5 -50t-4 -19.5t-2 -9t-7 -23.5t-30.5 -40t-45.5 -22.5q-68 12 -90 43q-8 12 -22.5 44.5 t-15.5 56.5t0 32t7 50t9 64l-56 -67q0 -8 -37 -29q-16 -16 -94 -12h-18q-2 -16 -97 2q-12 -2 -61 14z" />
<glyph unicode="&#x121;" horiz-adv-x="821" d="M457 1270q80 0 98 -86q0 -76 -46 -119t-86 -43t-99.5 37t-59.5 82q0 113 96 131q27 2 76 -6q1 4 21 4zM330 399l4 -80l14 -38l21 -41q6 -43 41 -52q25 -4 47 27q12 10 18 14q12 10 12 46t7 59q-2 10 3 72.5t10 96.5t3 46q-14 18 -27 76q-41 41 -55 45q-45 16 -55 4 q-14 -14 -31 -135q-12 -20 -11 -52t-1 -49v-39zM711 455q8 -102 8 -160l2 -27l-4 -125q0 -29 -2 -53v-33l-8 -53v-20q0 -76 -70 -215q-25 -51 -76 -105q-86 -92 -211 -96q-104 0 -153 43l-21 10q-25 12 -55 78q0 6 -10 27q0 29 12 45q8 16 55 28q20 4 76 -41q41 -45 96 -47 q57 -8 88 53.5t47 163.5q8 39 8.5 88.5t-4.5 65.5q-55 -29 -98 -25h-18q-16 -4 -49 1t-62 26l-39 27q2 -2 -2 -2l-10 6l-29 22q-18 10 -18 39q-14 8 -21 21q-16 6 -16 28l-10 41q0 10 -11 51q-10 16 -5 33t5 27l7 69v15q-6 6 0 39q6 12 6 18q12 66 18 83t9.5 40t15.5 41 l20 47q12 23 66 64q20 20 51 26l57 -4l60 -14q2 0 76 -31q0 39 38 66q16 16 72 2h19q23 2 49 -19q12 -14 26 -65q15 -190 15 -299z" />
<glyph unicode="&#x122;" horiz-adv-x="1064" d="M473 -180l62 6q115 0 114 -98q0 -78 -80 -238q-14 -14 -50 -30.5t-48 -16.5q-53 0 -53 20q0 14 29.5 59.5t29.5 92.5t-3 57.5t-19 14.5q-29 20 -29 66.5t47 66.5zM342 10l-39 -2q-4 4 -45 6q-4 8 -31 19q-12 0 -51 39q-35 29 -37 32q-2 8 -14 21q-8 12 -19 57 q-33 100 -34.5 131t4.5 86q-8 10 2 52q0 23 6 102v12l8 92q-2 41 12.5 84t20.5 80q6 2 12 53q31 96 37 107l33 57q6 6 18 27l62 80q12 14 53 35q23 23 53 34q78 33 133 39q25 -18 68 13q123 -10 165 -10.5t83 -14.5q61 -12 63 -47q4 -51 -14.5 -77.5t-46.5 -22.5 q-84 12 -137.5 8t-100.5 -31q-4 -2 -18 -8q-33 -14 -53 -31q-76 -63 -142 -239l-6 -35q2 2 1 -1t-4 -12.5t-4 -15.5t-7 -20q-20 -55 -35.5 -154.5t-15.5 -165t22 -104.5l33 -37q8 -16 49 -39q18 -23 55 -45q33 -14 111 31q8 6 16 14l49 33q45 47 56 63l24 21l8 63q0 2 5 12 q8 31 8 54v28l-4 64q2 29 -9 39q-31 0 -114 -58q-6 -4 -27.5 -3t-34.5 7q-35 20 -34.5 51t6.5 49.5t7 25t8 13.5t19.5 15t30 25.5t72.5 44t124.5 26.5t112.5 -40t74 -148q4 -25 4 -108t-39 -308q-10 -98 -23 -132t-17.5 -69.5t-7.5 -50t-4 -19.5t-2 -9t-7 -23.5t-30.5 -40 t-45.5 -22.5q-68 12 -90 43q-8 12 -22.5 44.5t-15.5 56.5t0 32t7 50t9 64l-56 -67q0 -8 -37 -29q-16 -16 -94 -12h-18q-2 -16 -97 2q-12 -2 -61 14z" />
</font>
</defs>
</svg>
